STIXTwoMath-Regular.ufo
<glyph name="quotedbl" format="2">
  <advance width="334"/>
  <unicode hex="0022"/>
  <outline>
    <contour>
      <point x="53" y="504" type="line"/>
      <point x="91" y="504" type="line"/>
      <point x="140" y="688" type="line"/>
      <point x="140" y="706" type="line"/>
      <point x="52" y="706" type="line"/>
    </contour>
    <contour>
      <point x="200" y="504" type="line"/>
      <point x="238" y="504" type="line"/>
      <point x="287" y="688" type="line"/>
      <point x="287" y="706" type="line"/>
      <point x="198" y="706" type="line"/>
    </contour>
  </outline>
</glyph>
<glyph name="numbersign" format="2">
  <advance width="702"/>
  <unicode hex="0023"/>
  <outline>
    <contour>
      <point x="647" y="394" type="line"/>
      <point x="647" y="443" type="line"/>
      <point x="516" y="443" type="line"/>
      <point x="549" y="657" type="line"/>
      <point x="491" y="657" type="line"/>
      <point x="460" y="443" type="line"/>
      <point x="279" y="443" type="line"/>
      <point x="314" y="657" type="line"/>
      <point x="255" y="657" type="line"/>
      <point x="221" y="443" type="line"/>
      <point x="83" y="443" type="line"/>
      <point x="83" y="394" type="line"/>
      <point x="215" y="394" type="line"/>
      <point x="189" y="232" type="line"/>
      <point x="55" y="232" type="line"/>
      <point x="55" y="185" type="line"/>
      <point x="182" y="185" type="line"/>
      <point x="148" y="-23" type="line"/>
      <point x="205" y="-23" type="line"/>
      <point x="239" y="185" type="line"/>
      <point x="421" y="185" type="line"/>
      <point x="389" y="-23" type="line"/>
      <point x="448" y="-23" type="line"/>
      <point x="479" y="185" type="line"/>
      <point x="623" y="185" type="line"/>
      <point x="623" y="232" type="line"/>
      <point x="485" y="232" type="line"/>
      <point x="509" y="394" type="line"/>
    </contour>
    <contour>
      <point x="451" y="394" type="line"/>
      <point x="428" y="232" type="line"/>
      <point x="246" y="232" type="line"/>
      <point x="272" y="394" type="line"/>
    </contour>
  </outline>
  <guideline angle="0" x="0" y="639"/>
</glyph>
<glyph name="dollar" format="2">
  <advance width="495"/>
  <unicode hex="0024"/>
  <outline>
    <contour>
      <point x="267" y="602" type="line"/>
      <point x="343" y="595"/>
      <point x="385" y="546"/>
      <point x="403" y="458" type="curve"/>
      <point x="432" y="458" type="line"/>
      <point x="432" y="588" type="line"/>
      <point x="395" y="612"/>
      <point x="342" y="634"/>
      <point x="267" y="639" type="curve"/>
      <point x="267" y="705" type="line"/>
      <point x="224" y="705" type="line"/>
      <point x="224" y="639" type="line"/>
      <point x="133" y="634"/>
      <point x="39" y="589"/>
      <point x="39" y="489" type="curve" smooth="yes"/>
      <point x="39" y="405"/>
      <point x="92" y="360"/>
      <point x="207" y="298" type="curve"/>
      <point x="224" y="288" type="line"/>
      <point x="224" y="31" type="line"/>
      <point x="139" y="31"/>
      <point x="85" y="77"/>
      <point x="64" y="192" type="curve"/>
      <point x="35" y="192" type="line"/>
      <point x="35" y="40" type="line"/>
      <point x="87" y="9"/>
      <point x="139" y="-7"/>
      <point x="224" y="-7" type="curve"/>
      <point x="224" y="-93" type="line"/>
      <point x="267" y="-93" type="line"/>
      <point x="267" y="-7" type="line"/>
      <point x="375" y="7"/>
      <point x="461" y="44"/>
      <point x="461" y="166" type="curve" smooth="yes"/>
      <point x="461" y="271"/>
      <point x="371" y="323"/>
      <point x="283" y="367" type="curve" smooth="yes"/>
      <point x="267" y="375" type="line"/>
    </contour>
    <contour>
      <point x="224" y="393" type="line"/>
      <point x="143" y="439"/>
      <point x="118" y="465"/>
      <point x="118" y="511" type="curve" smooth="yes"/>
      <point x="118" y="565"/>
      <point x="153" y="596"/>
      <point x="224" y="602" type="curve"/>
    </contour>
    <contour>
      <point x="267" y="272" type="line"/>
      <point x="346" y="229"/>
      <point x="375" y="199"/>
      <point x="375" y="142" type="curve" smooth="yes"/>
      <point x="375" y="73"/>
      <point x="340" y="42"/>
      <point x="267" y="33" type="curve"/>
    </contour>
  </outline>
</glyph>
<glyph name="percent" format="2">
  <advance width="692"/>
  <unicode hex="0025"/>
  <outline>
    <contour>
      <point x="285" y="521" type="curve" smooth="yes"/>
      <point x="285" y="423"/>
      <point x="234" y="340"/>
      <point x="167" y="340" type="curve" smooth="yes"/>
      <point x="135" y="340"/>
      <point x="114" y="361"/>
      <point x="114" y="431" type="curve" smooth="yes"/>
      <point x="114" y="508"/>
      <point x="135" y="610"/>
      <point x="223" y="610" type="curve" smooth="yes"/>
      <point x="257" y="610"/>
      <point x="285" y="580"/>
    </contour>
    <contour>
      <point x="647" y="191" type="curve" smooth="yes"/>
      <point x="647" y="270"/>
      <point x="605" y="310"/>
      <point x="547" y="310" type="curve" smooth="yes"/>
      <point x="434" y="310"/>
      <point x="373" y="213"/>
      <point x="373" y="103" type="curve" smooth="yes"/>
      <point x="373" y="25"/>
      <point x="414" y="-20"/>
      <point x="483" y="-20" type="curve" smooth="yes"/>
      <point x="573" y="-20"/>
      <point x="647" y="64"/>
    </contour>
    <contour>
      <point x="613" y="192" type="curve" smooth="yes"/>
      <point x="613" y="93"/>
      <point x="561" y="13"/>
      <point x="492" y="13" type="curve" smooth="yes"/>
      <point x="462" y="13"/>
      <point x="442" y="37"/>
      <point x="442" y="96" type="curve" smooth="yes"/>
      <point x="442" y="186"/>
      <point x="464" y="283"/>
      <point x="550" y="283" type="curve" smooth="yes"/>
      <point x="584" y="283"/>
      <point x="613" y="253"/>
    </contour>
    <contour>
      <point x="586" y="666" type="line"/>
      <point x="541" y="666" type="line"/>
      <point x="458" y="582"/>
      <point x="432" y="577"/>
      <point x="386" y="577" type="curve" smooth="yes"/>
      <point x="306" y="577"/>
      <point x="289" y="637"/>
      <point x="216" y="637" type="curve" smooth="yes"/>
      <point x="119" y="637"/>
      <point x="45" y="551"/>
      <point x="45" y="432" type="curve" smooth="yes"/>
      <point x="45" y="355"/>
      <point x="84" y="307"/>
      <point x="154" y="307" type="curve" smooth="yes"/>
      <point x="257" y="307"/>
      <point x="319" y="409"/>
      <point x="319" y="515" type="curve" smooth="yes"/>
      <point x="319" y="532"/>
      <point x="316" y="550"/>
      <point x="312" y="564" type="curve"/>
      <point x="314" y="566" type="line"/>
      <point x="342" y="554"/>
      <point x="356" y="550"/>
      <point x="382" y="550" type="curve" smooth="yes"/>
      <point x="433" y="550"/>
      <point x="459" y="564"/>
      <point x="485" y="582" type="curve"/>
      <point x="490" y="582" type="line"/>
      <point x="133" y="-21" type="line"/>
      <point x="181" y="-21" type="line"/>
    </contour>
  </outline>
  <guideline angle="0" x="0" y="724"/>
</glyph>
<glyph name="ampersand" format="2">
  <advance width="736"/>
  <unicode hex="0026"/>
  <outline>
    <contour>
      <point x="697" y="109" type="line"/>
      <point x="670" y="69"/>
      <point x="640" y="53"/>
      <point x="599" y="53" type="curve" smooth="yes"/>
      <point x="546" y="53"/>
      <point x="513" y="84"/>
      <point x="461" y="139" type="curve"/>
      <point x="518" y="217"/>
      <point x="541" y="255"/>
      <point x="581" y="324" type="curve" smooth="yes"/>
      <point x="604" y="364"/>
      <point x="627" y="378"/>
      <point x="676" y="378" type="curve"/>
      <point x="676" y="409" type="line"/>
      <point x="456" y="409" type="line"/>
      <point x="456" y="378" type="line"/>
      <point x="503" y="378"/>
      <point x="518" y="366"/>
      <point x="518" y="337" type="curve" smooth="yes"/>
      <point x="518" y="295"/>
      <point x="496" y="253"/>
      <point x="439" y="164" type="curve"/>
      <point x="382" y="238"/>
      <point x="348" y="292"/>
      <point x="299" y="375" type="curve"/>
      <point x="411" y="425"/>
      <point x="450" y="471"/>
      <point x="450" y="541" type="curve" smooth="yes"/>
      <point x="450" y="622"/>
      <point x="390" y="662"/>
      <point x="317" y="662" type="curve" smooth="yes"/>
      <point x="222" y="662"/>
      <point x="160" y="609"/>
      <point x="160" y="532" type="curve" smooth="yes"/>
      <point x="160" y="478"/>
      <point x="176" y="437"/>
      <point x="213" y="367" type="curve"/>
      <point x="83" y="293"/>
      <point x="30" y="233"/>
      <point x="30" y="142" type="curve" smooth="yes"/>
      <point x="30" y="41"/>
      <point x="92" y="-14"/>
      <point x="204" y="-14" type="curve" smooth="yes"/>
      <point x="283" y="-14"/>
      <point x="336" y="10"/>
      <point x="404" y="78" type="curve"/>
      <point x="472" y="11"/>
      <point x="500" y="-14"/>
      <point x="563" y="-14" type="curve" smooth="yes"/>
      <point x="629" y="-14"/>
      <point x="688" y="27"/>
      <point x="714" y="98" type="curve"/>
    </contour>
    <contour>
      <point x="393" y="543" type="curve" smooth="yes"/>
      <point x="393" y="486"/>
      <point x="368" y="443"/>
      <point x="284" y="402" type="curve"/>
      <point x="248" y="472"/>
      <point x="235" y="506"/>
      <point x="235" y="552" type="curve" smooth="yes"/>
      <point x="235" y="600"/>
      <point x="266" y="632"/>
      <point x="315" y="632" type="curve" smooth="yes"/>
      <point x="366" y="632"/>
      <point x="393" y="593"/>
    </contour>
    <contour>
      <point x="380" y="103" type="curve"/>
      <point x="326" y="55"/>
      <point x="287" y="47"/>
      <point x="240" y="47" type="curve" smooth="yes"/>
      <point x="165" y="47"/>
      <point x="122" y="83"/>
      <point x="122" y="167" type="curve" smooth="yes"/>
      <point x="122" y="238"/>
      <point x="153" y="288"/>
      <point x="229" y="336" type="curve"/>
      <point x="288" y="230"/>
      <point x="326" y="173"/>
    </contour>
  </outline>
</glyph>
<glyph name="parenright" format="2">
  <advance width="357"/>
  <unicode hex="0029"/>
  <outline>
    <contour>
      <point x="312" y="270" type="curve" smooth="yes"/>
      <point x="312" y="493"/>
      <point x="207" y="652"/>
      <point x="46" y="736" type="curve"/>
      <point x="30" y="710" type="line"/>
      <point x="176" y="611"/>
      <point x="230" y="474"/>
      <point x="230" y="270" type="curve" smooth="yes"/>
      <point x="230" y="66"/>
      <point x="176" y="-71"/>
      <point x="30" y="-170" type="curve"/>
      <point x="46" y="-196" type="line"/>
      <point x="207" y="-112"/>
      <point x="312" y="47"/>
    </contour>
  </outline>
  <guideline angle="0" x="0" y="732"/>
  <guideline angle="0" x="0" y="-192"/>
</glyph>
<glyph name="asterisk" format="2">
  <advance width="410"/>
  <unicode hex="002A"/>
  <outline>
    <contour>
      <point x="220" y="545" type="line" smooth="yes"/>
      <point x="220" y="577"/>
      <point x="242" y="624"/>
      <point x="242" y="654" type="curve" smooth="yes"/>
      <point x="242" y="678"/>
      <point x="225" y="689"/>
      <point x="206" y="689" type="curve" smooth="yes"/>
      <point x="189" y="689"/>
      <point x="169" y="678"/>
      <point x="169" y="653" type="curve" smooth="yes"/>
      <point x="169" y="623"/>
      <point x="190" y="577"/>
      <point x="190" y="545" type="curve" smooth="yes"/>
      <point x="190" y="526" type="line"/>
      <point x="189" y="525" type="line"/>
      <point x="174" y="537" type="line" smooth="yes"/>
      <point x="146" y="559"/>
      <point x="102" y="616"/>
      <point x="74" y="616" type="curve" smooth="yes"/>
      <point x="54" y="616"/>
      <point x="37" y="594"/>
      <point x="37" y="575" type="curve" smooth="yes"/>
      <point x="37" y="529"/>
      <point x="123" y="535"/>
      <point x="163" y="513" type="curve"/>
      <point x="177" y="504" type="line"/>
      <point x="177" y="502" type="line"/>
      <point x="161" y="493" type="line" smooth="yes"/>
      <point x="121" y="470"/>
      <point x="37" y="473"/>
      <point x="37" y="427" type="curve" smooth="yes"/>
      <point x="37" y="409"/>
      <point x="54" y="388"/>
      <point x="74" y="388" type="curve"/>
      <point x="104" y="387"/>
      <point x="144" y="451"/>
      <point x="172" y="469" type="curve" smooth="yes"/>
      <point x="189" y="480" type="line"/>
      <point x="190" y="479" type="line"/>
      <point x="190" y="459" type="line" smooth="yes"/>
      <point x="190" y="427"/>
      <point x="169" y="382"/>
      <point x="169" y="351" type="curve" smooth="yes"/>
      <point x="169" y="327"/>
      <point x="188" y="315"/>
      <point x="206" y="315" type="curve" smooth="yes"/>
      <point x="225" y="315"/>
      <point x="242" y="327"/>
      <point x="242" y="350" type="curve" smooth="yes"/>
      <point x="242" y="381"/>
      <point x="220" y="427"/>
      <point x="220" y="459" type="curve" smooth="yes"/>
      <point x="220" y="480" type="line"/>
      <point x="237" y="469" type="line" smooth="yes"/>
      <point x="268" y="449"/>
      <point x="303" y="388"/>
      <point x="335" y="388" type="curve" smooth="yes"/>
      <point x="355" y="388"/>
      <point x="372" y="406"/>
      <point x="372" y="426" type="curve" smooth="yes"/>
      <point x="372" y="473"/>
      <point x="291" y="471"/>
      <point x="249" y="493" type="curve" smooth="yes"/>
      <point x="232" y="502" type="line"/>
      <point x="232" y="504" type="line"/>
      <point x="247" y="513" type="line"/>
      <point x="289" y="535"/>
      <point x="372" y="528"/>
      <point x="372" y="576" type="curve" smooth="yes"/>
      <point x="372" y="597"/>
      <point x="355" y="616"/>
      <point x="335" y="616" type="curve"/>
      <point x="307" y="615"/>
      <point x="264" y="560"/>
      <point x="236" y="537" type="curve" smooth="yes"/>
      <point x="220" y="524" type="line"/>
    </contour>
  </outline>
</glyph>
<glyph name="slash" format="2">
  <advance width="386"/>
  <unicode hex="002F"/>
  <outline>
    <contour>
      <point x="351" y="709" type="line"/>
      <point x="296" y="709" type="line"/>
      <point x="35" y="-89" type="line"/>
      <point x="91" y="-89" type="line"/>
    </contour>
  </outline>
</glyph>
<glyph name="two" format="2">
  <advance width="495"/>
  <unicode hex="0032"/>
  <outline>
    <contour>
      <point x="464" y="160" type="line"/>
      <point x="435" y="160" type="line"/>
      <point x="412" y="100"/>
      <point x="399" y="79"/>
      <point x="346" y="79" type="curve" smooth="yes"/>
      <point x="207" y="79" type="line"/>
      <point x="137" y="76" type="line"/>
      <point x="137" y="81" type="line"/>
      <point x="269" y="206" type="line"/>
      <point x="375" y="313"/>
      <point x="432" y="382"/>
      <point x="432" y="471" type="curve" smooth="yes"/>
      <point x="432" y="576"/>
      <point x="353" y="644"/>
      <point x="240" y="644" type="curve" smooth="yes"/>
      <point x="143" y="644"/>
      <point x="75" y="588"/>
      <point x="44" y="491" type="curve"/>
      <point x="68" y="481" type="line"/>
      <point x="105" y="556"/>
      <point x="149" y="579"/>
      <point x="214" y="579" type="curve" smooth="yes"/>
      <point x="291" y="579"/>
      <point x="339" y="531"/>
      <point x="339" y="456" type="curve" smooth="yes"/>
      <point x="339" y="351"/>
      <point x="289" y="288"/>
      <point x="190" y="186" type="curve"/>
      <point x="38" y="34" type="line"/>
      <point x="38" y="0" type="line"/>
      <point x="432" y="0" type="line"/>
    </contour>
  </outline>
</glyph>
<glyph name="five" format="2">
  <advance width="495"/>
  <unicode hex="0035"/>
  <outline>
    <contour>
      <point x="417" y="549" type="line"/>
      <point x="433" y="630" type="line"/>
      <point x="159" y="630" type="line"/>
      <point x="97" y="369" type="line"/>
      <point x="109" y="354" type="line"/>
      <point x="123" y="354"/>
      <point x="128" y="354"/>
      <point x="154" y="352" type="curve"/>
      <point x="292" y="345"/>
      <point x="370" y="304"/>
      <point x="370" y="179" type="curve" smooth="yes"/>
      <point x="370" y="75"/>
      <point x="307" y="37"/>
      <point x="236" y="37" type="curve" smooth="yes"/>
      <point x="172" y="37"/>
      <point x="139" y="86"/>
      <point x="99" y="86" type="curve" smooth="yes"/>
      <point x="74" y="86"/>
      <point x="59" y="66"/>
      <point x="59" y="43" type="curve" smooth="yes"/>
      <point x="59" y="6"/>
      <point x="97" y="-13"/>
      <point x="174" y="-13" type="curve" smooth="yes"/>
      <point x="333" y="-13"/>
      <point x="443" y="65"/>
      <point x="443" y="219" type="curve" smooth="yes"/>
      <point x="443" y="376"/>
      <point x="320" y="423"/>
      <point x="202" y="432" type="curve" smooth="yes"/>
      <point x="155" y="435" type="line"/>
      <point x="182" y="549" type="line"/>
    </contour>
  </outline>
</glyph>
<glyph name="eight" format="2">
  <advance width="495"/>
  <unicode hex="0038"/>
  <outline>
    <contour>
      <point x="448" y="150" type="curve" smooth="yes"/>
      <point x="448" y="230"/>
      <point x="412" y="278"/>
      <point x="295" y="349" type="curve"/>
      <point x="295" y="352" type="line"/>
      <point x="388" y="403"/>
      <point x="424" y="436"/>
      <point x="424" y="509" type="curve" smooth="yes"/>
      <point x="424" y="588"/>
      <point x="348" y="647"/>
      <point x="249" y="647" type="curve" smooth="yes"/>
      <point x="139" y="647"/>
      <point x="59" y="590"/>
      <point x="59" y="499" type="curve" smooth="yes"/>
      <point x="59" y="431"/>
      <point x="81" y="390"/>
      <point x="183" y="319" type="curve"/>
      <point x="183" y="316" type="line"/>
      <point x="90" y="254"/>
      <point x="46" y="222"/>
      <point x="46" y="142" type="curve" smooth="yes"/>
      <point x="46" y="40"/>
      <point x="130" y="-12"/>
      <point x="246" y="-12" type="curve" smooth="yes"/>
      <point x="365" y="-12"/>
      <point x="448" y="45"/>
    </contour>
    <contour>
      <point x="350" y="511" type="curve" smooth="yes"/>
      <point x="350" y="447"/>
      <point x="330" y="408"/>
      <point x="264" y="368" type="curve"/>
      <point x="175" y="422"/>
      <point x="137" y="458"/>
      <point x="137" y="517" type="curve" smooth="yes"/>
      <point x="137" y="578"/>
      <point x="179" y="614"/>
      <point x="247" y="614" type="curve" smooth="yes"/>
      <point x="311" y="614"/>
      <point x="350" y="577"/>
    </contour>
    <contour>
      <point x="213" y="300" type="curve"/>
      <point x="334" y="222"/>
      <point x="364" y="185"/>
      <point x="364" y="121" type="curve" smooth="yes"/>
      <point x="364" y="53"/>
      <point x="312" y="19"/>
      <point x="250" y="19" type="curve" smooth="yes"/>
      <point x="174" y="19"/>
      <point x="124" y="60"/>
      <point x="124" y="150" type="curve" smooth="yes"/>
      <point x="124" y="219"/>
      <point x="156" y="254"/>
    </contour>
  </outline>
  <guideline angle="90" x="237" y="0"/>
</glyph>
<glyph name="nine" format="2">
  <advance width="495"/>
  <unicode hex="0039"/>
  <outline>
    <contour>
      <point x="85" y="-13" type="line"/>
      <point x="306" y="-11"/>
      <point x="450" y="116"/>
      <point x="450" y="374" type="curve" smooth="yes"/>
      <point x="450" y="522"/>
      <point x="389" y="646"/>
      <point x="240" y="646" type="curve" smooth="yes"/>
      <point x="114" y="646"/>
      <point x="39" y="567"/>
      <point x="39" y="432" type="curve" smooth="yes"/>
      <point x="39" y="300"/>
      <point x="110" y="222"/>
      <point x="219" y="222" type="curve" smooth="yes"/>
      <point x="269" y="222"/>
      <point x="305" y="243"/>
      <point x="350" y="284" type="curve"/>
      <point x="356" y="283" type="line"/>
      <point x="334" y="121"/>
      <point x="221" y="32"/>
      <point x="83" y="16" type="curve"/>
    </contour>
    <contour>
      <point x="126" y="438" type="curve" smooth="yes"/>
      <point x="126" y="566"/>
      <point x="171" y="612"/>
      <point x="236" y="612" type="curve" smooth="yes"/>
      <point x="324" y="612"/>
      <point x="360" y="523"/>
      <point x="360" y="398" type="curve" smooth="yes"/>
      <point x="360" y="312"/>
      <point x="307" y="281"/>
      <point x="249" y="281" type="curve" smooth="yes"/>
      <point x="166" y="281"/>
      <point x="126" y="345"/>
    </contour>
  </outline>
</glyph>
<glyph name="less" format="2">
  <advance width="720"/>
  <unicode hex="003C"/>
  <outline>
    <contour>
      <point x="650" y="-25" type="line"/>
      <point x="650" y="42" type="line"/>
      <point x="207" y="260" type="line"/>
      <point x="650" y="478" type="line"/>
      <point x="650" y="547" type="line"/>
      <point x="71" y="265" type="line"/>
      <point x="71" y="255" type="line"/>
    </contour>
  </outline>
</glyph>
<glyph name="equal" format="2">
  <advance width="720"/>
  <unicode hex="003D"/>
  <outline>
    <contour>
      <point x="658" y="327" type="line"/>
      <point x="658" y="395" type="line"/>
      <point x="62" y="395" type="line"/>
      <point x="62" y="327" type="line"/>
    </contour>
    <contour>
      <point x="658" y="123" type="line"/>
      <point x="658" y="190" type="line"/>
      <point x="62" y="190" type="line"/>
      <point x="62" y="123" type="line"/>
    </contour>
  </outline>
</glyph>
<glyph name="greater" format="2">
  <advance width="701"/>
  <unicode hex="003E"/>
  <outline>
    <contour>
      <point x="636" y="255" type="line"/>
      <point x="636" y="265" type="line"/>
      <point x="57" y="547" type="line"/>
      <point x="57" y="478" type="line"/>
      <point x="499" y="260" type="line"/>
      <point x="57" y="42" type="line"/>
      <point x="57" y="-25" type="line"/>
    </contour>
  </outline>
</glyph>
<glyph name="question" format="2">
  <advance width="411"/>
  <unicode hex="003F"/>
  <outline>
    <contour>
      <point x="224" y="170" type="line"/>
      <point x="224" y="186" type="line" smooth="yes"/>
      <point x="224" y="295"/>
      <point x="385" y="373"/>
      <point x="385" y="520" type="curve" smooth="yes"/>
      <point x="385" y="624"/>
      <point x="298" y="669"/>
      <point x="200" y="669" type="curve" smooth="yes"/>
      <point x="99" y="669"/>
      <point x="30" y="612"/>
      <point x="30" y="531" type="curve" smooth="yes"/>
      <point x="30" y="484"/>
      <point x="49" y="461"/>
      <point x="81" y="461" type="curve" smooth="yes"/>
      <point x="105" y="461"/>
      <point x="126" y="474"/>
      <point x="126" y="505" type="curve" smooth="yes"/>
      <point x="126" y="543"/>
      <point x="105" y="544"/>
      <point x="105" y="577" type="curve" smooth="yes"/>
      <point x="105" y="608"/>
      <point x="132" y="631"/>
      <point x="191" y="631" type="curve" smooth="yes"/>
      <point x="255" y="631"/>
      <point x="295" y="596"/>
      <point x="295" y="517" type="curve" smooth="yes"/>
      <point x="295" y="363"/>
      <point x="184" y="326"/>
      <point x="184" y="196" type="curve" smooth="yes"/>
      <point x="184" y="170" type="line"/>
    </contour>
    <contour>
      <point x="262" y="48" type="curve" smooth="yes"/>
      <point x="262" y="79"/>
      <point x="241" y="107"/>
      <point x="206" y="107" type="curve" smooth="yes"/>
      <point x="169" y="107"/>
      <point x="147" y="80"/>
      <point x="147" y="48" type="curve" smooth="yes"/>
      <point x="147" y="15"/>
      <point x="166" y="-8"/>
      <point x="205" y="-8" type="curve" smooth="yes"/>
      <point x="241" y="-8"/>
      <point x="262" y="16"/>
    </contour>
  </outline>
</glyph>
<glyph name="F" format="2">
  <advance width="588"/>
  <unicode hex="0046"/>
  <outline>
    <contour>
      <point x="574" y="493" type="line"/>
      <point x="568" y="657" type="line"/>
      <point x="36" y="657" type="line"/>
      <point x="36" y="627" type="line"/>
      <point x="108" y="627"/>
      <point x="133" y="613"/>
      <point x="133" y="544" type="curve" smooth="yes"/>
      <point x="133" y="116" type="line" smooth="yes"/>
      <point x="133" y="42"/>
      <point x="117" y="30"/>
      <point x="36" y="30" type="curve"/>
      <point x="36" y="0" type="line"/>
      <point x="329" y="0" type="line"/>
      <point x="329" y="30" type="line"/>
      <point x="251" y="30"/>
      <point x="225" y="42"/>
      <point x="225" y="110" type="curve" smooth="yes"/>
      <point x="225" y="320" type="line"/>
      <point x="343" y="320" type="line" smooth="yes"/>
      <point x="429" y="320"/>
      <point x="449" y="307"/>
      <point x="449" y="226" type="curve"/>
      <point x="483" y="226" type="line"/>
      <point x="483" y="458" type="line"/>
      <point x="449" y="458" type="line"/>
      <point x="449" y="377"/>
      <point x="429" y="359"/>
      <point x="343" y="359" type="curve" smooth="yes"/>
      <point x="225" y="359" type="line"/>
      <point x="225" y="612" type="line"/>
      <point x="384" y="612" type="line" smooth="yes"/>
      <point x="515" y="612"/>
      <point x="524" y="588"/>
      <point x="542" y="493" type="curve"/>
    </contour>
  </outline>
</glyph>
<glyph name="G" format="2">
  <advance width="720"/>
  <unicode hex="0047"/>
  <outline>
    <contour>
      <point x="685" y="310" type="line"/>
      <point x="438" y="310" type="line"/>
      <point x="438" y="278" type="line"/>
      <point x="514" y="278"/>
      <point x="526" y="264"/>
      <point x="526" y="192" type="curve" smooth="yes"/>
      <point x="526" y="84" type="line"/>
      <point x="486" y="54"/>
      <point x="446" y="34"/>
      <point x="384" y="34" type="curve" smooth="yes"/>
      <point x="241" y="34"/>
      <point x="154" y="134"/>
      <point x="154" y="338" type="curve" smooth="yes"/>
      <point x="154" y="515"/>
      <point x="236" y="626"/>
      <point x="377" y="626" type="curve" smooth="yes"/>
      <point x="483" y="626"/>
      <point x="553" y="573"/>
      <point x="576" y="440" type="curve"/>
      <point x="610" y="440" type="line"/>
      <point x="610" y="669" type="line"/>
      <point x="581" y="669" type="line"/>
      <point x="568" y="647"/>
      <point x="562" y="633"/>
      <point x="545" y="633" type="curve" smooth="yes"/>
      <point x="520" y="633"/>
      <point x="486" y="669"/>
      <point x="376" y="669" type="curve" smooth="yes"/>
      <point x="188" y="669"/>
      <point x="50" y="548"/>
      <point x="50" y="326" type="curve" smooth="yes"/>
      <point x="50" y="112"/>
      <point x="158" y="-11"/>
      <point x="370" y="-11" type="curve" smooth="yes"/>
      <point x="480" y="-11"/>
      <point x="545" y="15"/>
      <point x="617" y="57" type="curve"/>
      <point x="617" y="202" type="line" smooth="yes"/>
      <point x="617" y="264"/>
      <point x="629" y="278"/>
      <point x="685" y="278" type="curve"/>
    </contour>
  </outline>
  <guideline angle="90" x="556" y="0"/>
  <guideline angle="90" x="680" y="0"/>
</glyph>
<glyph name="L" format="2">
  <advance width="585"/>
  <unicode hex="004C"/>
  <outline>
    <contour>
      <point x="568" y="195" type="line"/>
      <point x="536" y="195" type="line"/>
      <point x="497" y="79"/>
      <point x="481" y="42"/>
      <point x="347" y="42" type="curve" smooth="yes"/>
      <point x="301" y="42" type="line" smooth="yes"/>
      <point x="242" y="42"/>
      <point x="225" y="51"/>
      <point x="225" y="95" type="curve" smooth="yes"/>
      <point x="225" y="529" type="line" smooth="yes"/>
      <point x="225" y="607"/>
      <point x="242" y="627"/>
      <point x="323" y="627" type="curve"/>
      <point x="323" y="657" type="line"/>
      <point x="42" y="657" type="line"/>
      <point x="42" y="627" type="line"/>
      <point x="122" y="627"/>
      <point x="133" y="607"/>
      <point x="133" y="530" type="curve" smooth="yes"/>
      <point x="133" y="123" type="line" smooth="yes"/>
      <point x="133" y="45"/>
      <point x="122" y="30"/>
      <point x="42" y="30" type="curve"/>
      <point x="42" y="0" type="line"/>
      <point x="538" y="0" type="line"/>
    </contour>
  </outline>
</glyph>
<glyph name="N" format="2">
  <advance width="742"/>
  <unicode hex="004E"/>
  <outline>
    <contour>
      <point x="715" y="657" type="line"/>
      <point x="479" y="657" type="line"/>
      <point x="479" y="627" type="line"/>
      <point x="521" y="627"/>
      <point x="539" y="621"/>
      <point x="555" y="602" type="curve" smooth="yes"/>
      <point x="570" y="585"/>
      <point x="574" y="558"/>
      <point x="574" y="498" type="curve" smooth="yes"/>
      <point x="574" y="174" type="line"/>
      <point x="569" y="174" type="line"/>
      <point x="199" y="657" type="line"/>
      <point x="29" y="657" type="line"/>
      <point x="29" y="627" type="line"/>
      <point x="74" y="627"/>
      <point x="91" y="617"/>
      <point x="123" y="576" type="curve"/>
      <point x="123" y="149" type="line" smooth="yes"/>
      <point x="123" y="48"/>
      <point x="108" y="30"/>
      <point x="29" y="30" type="curve"/>
      <point x="29" y="0" type="line"/>
      <point x="263" y="0" type="line"/>
      <point x="263" y="30" type="line"/>
      <point x="188" y="30"/>
      <point x="172" y="49"/>
      <point x="172" y="149" type="curve" smooth="yes"/>
      <point x="172" y="527" type="line"/>
      <point x="177" y="527" type="line"/>
      <point x="591" y="-8" type="line"/>
      <point x="624" y="-8" type="line"/>
      <point x="624" y="493" type="line" smooth="yes"/>
      <point x="624" y="565"/>
      <point x="634" y="593"/>
      <point x="650" y="607" type="curve" smooth="yes"/>
      <point x="665" y="621"/>
      <point x="679" y="627"/>
      <point x="715" y="627" type="curve"/>
    </contour>
  </outline>
</glyph>
<glyph name="O" format="2">
  <advance width="738"/>
  <unicode hex="004F"/>
  <outline>
    <contour>
      <point x="688" y="338" type="curve" smooth="yes"/>
      <point x="688" y="536"/>
      <point x="569" y="669"/>
      <point x="370" y="669" type="curve" smooth="yes"/>
      <point x="172" y="669"/>
      <point x="51" y="532"/>
      <point x="51" y="329" type="curve" smooth="yes"/>
      <point x="51" y="117"/>
      <point x="171" y="-12"/>
      <point x="370" y="-12" type="curve" smooth="yes"/>
      <point x="567" y="-12"/>
      <point x="688" y="129"/>
    </contour>
    <contour>
      <point x="583" y="335" type="curve" smooth="yes"/>
      <point x="583" y="134"/>
      <point x="513" y="30"/>
      <point x="371" y="30" type="curve" smooth="yes"/>
      <point x="227" y="30"/>
      <point x="156" y="147"/>
      <point x="156" y="335" type="curve" smooth="yes"/>
      <point x="156" y="518"/>
      <point x="238" y="627"/>
      <point x="367" y="627" type="curve" smooth="yes"/>
      <point x="497" y="627"/>
      <point x="583" y="515"/>
    </contour>
  </outline>
  <guideline angle="90" x="435" y="0"/>
</glyph>
<glyph name="R" format="2">
  <advance width="659"/>
  <unicode hex="0052"/>
  <outline>
    <contour>
      <point x="547" y="493" type="curve" smooth="yes"/>
      <point x="547" y="620"/>
      <point x="439" y="657"/>
      <point x="289" y="657" type="curve" smooth="yes"/>
      <point x="43" y="657" type="line"/>
      <point x="43" y="627" type="line"/>
      <point x="123" y="627"/>
      <point x="132" y="608"/>
      <point x="132" y="553" type="curve" smooth="yes"/>
      <point x="132" y="124" type="line" smooth="yes"/>
      <point x="132" y="40"/>
      <point x="118" y="30"/>
      <point x="43" y="30" type="curve"/>
      <point x="43" y="0" type="line"/>
      <point x="324" y="0" type="line"/>
      <point x="324" y="30" type="line"/>
      <point x="238" y="30"/>
      <point x="225" y="41"/>
      <point x="225" y="124" type="curve" smooth="yes"/>
      <point x="225" y="301" type="line"/>
      <point x="253" y="301" type="line" smooth="yes"/>
      <point x="289" y="301"/>
      <point x="300" y="298"/>
      <point x="320" y="268" type="curve" smooth="yes"/>
      <point x="361" y="208"/>
      <point x="390" y="165"/>
      <point x="499" y="0" type="curve"/>
      <point x="664" y="0" type="line"/>
      <point x="664" y="30" type="line"/>
      <point x="618" y="30"/>
      <point x="593" y="37"/>
      <point x="561" y="81" type="curve"/>
      <point x="451" y="238"/>
      <point x="412" y="294"/>
      <point x="378" y="314" type="curve"/>
      <point x="378" y="318" type="line"/>
      <point x="459" y="337"/>
      <point x="547" y="381"/>
    </contour>
    <contour>
      <point x="225" y="615" type="line"/>
      <point x="246" y="617"/>
      <point x="269" y="618"/>
      <point x="291" y="618" type="curve" smooth="yes"/>
      <point x="399" y="618"/>
      <point x="446" y="569"/>
      <point x="446" y="489" type="curve" smooth="yes"/>
      <point x="446" y="383"/>
      <point x="373" y="344"/>
      <point x="263" y="339" type="curve"/>
      <point x="225" y="340" type="line"/>
    </contour>
  </outline>
</glyph>
<glyph name="V" format="2">
  <advance width="680"/>
  <unicode hex="0056"/>
  <outline>
    <contour>
      <point x="407" y="226" type="line"/>
      <point x="372" y="126" type="line"/>
      <point x="367" y="126" type="line"/>
      <point x="328" y="231" type="line"/>
      <point x="207" y="528" type="line" smooth="yes"/>
      <point x="195" y="557"/>
      <point x="190" y="576"/>
      <point x="190" y="589" type="curve" smooth="yes"/>
      <point x="190" y="626"/>
      <point x="232" y="627"/>
      <point x="258" y="627" type="curve"/>
      <point x="258" y="657" type="line"/>
      <point x="-10" y="657" type="line"/>
      <point x="-10" y="627" type="line"/>
      <point x="44" y="627"/>
      <point x="66" y="603"/>
      <point x="95" y="536" type="curve" smooth="yes"/>
      <point x="324" y="-5" type="line"/>
      <point x="364" y="-5" type="line"/>
      <point x="570" y="497" type="line"/>
      <point x="618" y="610"/>
      <point x="631" y="627"/>
      <point x="687" y="627" type="curve"/>
      <point x="687" y="657" type="line"/>
      <point x="477" y="657" type="line"/>
      <point x="477" y="627" type="line"/>
      <point x="524" y="627"/>
      <point x="544" y="620"/>
      <point x="544" y="593" type="curve" smooth="yes"/>
      <point x="544" y="575"/>
      <point x="539" y="559"/>
      <point x="533" y="544" type="curve" smooth="yes"/>
    </contour>
  </outline>
</glyph>
<glyph name="W" format="2">
  <advance width="944"/>
  <unicode hex="0057"/>
  <outline>
    <contour>
      <point x="943" y="657" type="line"/>
      <point x="737" y="657" type="line"/>
      <point x="737" y="627" type="line"/>
      <point x="783" y="627"/>
      <point x="804" y="615"/>
      <point x="804" y="585" type="curve" smooth="yes"/>
      <point x="804" y="560"/>
      <point x="796" y="530"/>
      <point x="786" y="498" type="curve"/>
      <point x="672" y="166" type="line"/>
      <point x="667" y="166" type="line"/>
      <point x="634" y="265" type="line"/>
      <point x="530" y="535" type="line" smooth="yes"/>
      <point x="523" y="553"/>
      <point x="513" y="577"/>
      <point x="513" y="593" type="curve" smooth="yes"/>
      <point x="513" y="615"/>
      <point x="539" y="627"/>
      <point x="589" y="627" type="curve"/>
      <point x="589" y="657" type="line"/>
      <point x="328" y="657" type="line"/>
      <point x="328" y="627" type="line"/>
      <point x="385" y="627"/>
      <point x="401" y="619"/>
      <point x="433" y="532" type="curve" smooth="yes"/>
      <point x="461" y="455" type="line"/>
      <point x="348" y="163" type="line"/>
      <point x="343" y="163" type="line"/>
      <point x="312" y="247" type="line"/>
      <point x="196" y="539" type="line" smooth="yes"/>
      <point x="186" y="565"/>
      <point x="182" y="582"/>
      <point x="182" y="594" type="curve" smooth="yes"/>
      <point x="182" y="615"/>
      <point x="197" y="627"/>
      <point x="248" y="627" type="curve"/>
      <point x="248" y="657" type="line"/>
      <point x="-10" y="657" type="line"/>
      <point x="-10" y="627" type="line"/>
      <point x="42" y="625"/>
      <point x="69" y="602"/>
      <point x="100" y="518" type="curve"/>
      <point x="308" y="-6" type="line"/>
      <point x="333" y="-6" type="line"/>
      <point x="484" y="391" type="line"/>
      <point x="488" y="391" type="line"/>
      <point x="638" y="-6" type="line"/>
      <point x="665" y="-6" type="line"/>
      <point x="858" y="558" type="line" smooth="yes"/>
      <point x="876" y="609"/>
      <point x="896" y="626"/>
      <point x="943" y="627" type="curve"/>
    </contour>
  </outline>
</glyph>
<glyph name="bracketright" format="2">
  <advance width="349"/>
  <unicode hex="005D"/>
  <outline>
    <contour>
      <point x="259" y="-196" type="line"/>
      <point x="259" y="736" type="line"/>
      <point x="50" y="736" type="line"/>
      <point x="50" y="704" type="line"/>
      <point x="180" y="704" type="line"/>
      <point x="180" y="-164" type="line"/>
      <point x="50" y="-164" type="line"/>
      <point x="50" y="-196" type="line"/>
    </contour>
  </outline>
</glyph>
<glyph name="asciicircum" format="2">
  <advance width="480"/>
  <unicode hex="005E"/>
  <outline>
    <contour>
      <point x="449" y="309" type="line"/>
      <point x="268" y="673" type="line"/>
      <point x="212" y="673" type="line"/>
      <point x="32" y="309" type="line"/>
      <point x="91" y="309" type="line"/>
      <point x="238" y="612" type="line"/>
      <point x="241" y="612" type="line"/>
      <point x="389" y="309" type="line"/>
    </contour>
  </outline>
</glyph>
<glyph name="underscore" format="2">
  <advance width="512"/>
  <unicode hex="005F"/>
  <outline>
    <contour>
      <point x="512" y="-128" type="line"/>
      <point x="512" y="-77" type="line"/>
      <point x="0" y="-77" type="line"/>
      <point x="0" y="-128" type="line"/>
    </contour>
  </outline>
</glyph>
<glyph name="g" format="2">
  <advance width="484"/>
  <unicode hex="0067"/>
  <outline>
    <contour>
      <point x="128" y="184" type="line"/>
      <point x="81" y="148"/>
      <point x="46" y="106"/>
      <point x="46" y="70" type="curve" smooth="yes"/>
      <point x="46" y="42"/>
      <point x="68" y="15"/>
      <point x="102" y="-2" type="curve"/>
      <point x="102" y="-6" type="line"/>
      <point x="48" y="-58"/>
      <point x="21" y="-92"/>
      <point x="21" y="-125" type="curve" smooth="yes"/>
      <point x="21" y="-180"/>
      <point x="60" y="-235"/>
      <point x="191" y="-235" type="curve" smooth="yes"/>
      <point x="317" y="-235"/>
      <point x="465" y="-189"/>
      <point x="465" y="-55" type="curve" smooth="yes"/>
      <point x="465" y="60"/>
      <point x="369" y="64"/>
      <point x="243" y="64" type="curve" smooth="yes"/>
      <point x="151" y="64"/>
      <point x="125" y="74"/>
      <point x="125" y="104" type="curve" smooth="yes"/>
      <point x="125" y="121"/>
      <point x="141" y="157"/>
      <point x="151" y="171" type="curve"/>
      <point x="177" y="162"/>
      <point x="205" y="156"/>
      <point x="237" y="156" type="curve" smooth="yes"/>
      <point x="342" y="156"/>
      <point x="414" y="215"/>
      <point x="414" y="308" type="curve" smooth="yes"/>
      <point x="414" y="358"/>
      <point x="392" y="391"/>
      <point x="378" y="411" type="curve"/>
      <point x="378" y="416" type="line"/>
      <point x="472" y="413" type="line"/>
      <point x="472" y="467" type="line"/>
      <point x="343" y="460" type="line"/>
      <point x="343" y="460"/>
      <point x="298" y="485"/>
      <point x="232" y="485" type="curve" smooth="yes"/>
      <point x="126" y="485"/>
      <point x="51" y="422"/>
      <point x="51" y="322" type="curve" smooth="yes"/>
      <point x="51" y="257"/>
      <point x="80" y="214"/>
      <point x="128" y="186" type="curve"/>
    </contour>
    <contour>
      <point x="225" y="449" type="curve" smooth="yes"/>
      <point x="289" y="449"/>
      <point x="325" y="395"/>
      <point x="325" y="314" type="curve" smooth="yes"/>
      <point x="325" y="219"/>
      <point x="288" y="191"/>
      <point x="238" y="191" type="curve" smooth="yes"/>
      <point x="173" y="191"/>
      <point x="139" y="240"/>
      <point x="139" y="326" type="curve" smooth="yes"/>
      <point x="139" y="410"/>
      <point x="173" y="449"/>
    </contour>
    <contour>
      <point x="127" y="-10" type="curve"/>
      <point x="141" y="-10"/>
      <point x="160" y="-11"/>
      <point x="240" y="-12" type="curve" smooth="yes"/>
      <point x="307" y="-13"/>
      <point x="414" y="-11"/>
      <point x="414" y="-83" type="curve" smooth="yes"/>
      <point x="414" y="-126"/>
      <point x="367" y="-178"/>
      <point x="249" y="-178" type="curve" smooth="yes"/>
      <point x="147" y="-178"/>
      <point x="99" y="-149"/>
      <point x="99" y="-91" type="curve" smooth="yes"/>
      <point x="99" y="-70"/>
      <point x="106" y="-47"/>
    </contour>
  </outline>
  <guideline angle="0" x="0" y="59"/>
</glyph>
<glyph name="h" format="2">
  <advance width="577"/>
  <unicode hex="0068"/>
  <outline>
    <contour>
      <point x="183" y="359" type="line"/>
      <point x="232" y="404"/>
      <point x="268" y="421"/>
      <point x="307" y="421" type="curve" smooth="yes"/>
      <point x="388" y="421"/>
      <point x="399" y="352"/>
      <point x="399" y="270" type="curve" smooth="yes"/>
      <point x="399" y="97" type="line" smooth="yes"/>
      <point x="399" y="49"/>
      <point x="395" y="29"/>
      <point x="326" y="29" type="curve"/>
      <point x="326" y="0" type="line"/>
      <point x="556" y="0" type="line"/>
      <point x="556" y="29" type="line"/>
      <point x="493" y="29"/>
      <point x="482" y="48"/>
      <point x="482" y="101" type="curve" smooth="yes"/>
      <point x="482" y="300" type="line" smooth="yes"/>
      <point x="482" y="382"/>
      <point x="463" y="485"/>
      <point x="348" y="485" type="curve" smooth="yes"/>
      <point x="295" y="485"/>
      <point x="249" y="462"/>
      <point x="186" y="403" type="curve"/>
      <point x="183" y="403" type="line"/>
      <point x="183" y="706" type="line"/>
      <point x="156" y="706" type="line"/>
      <point x="22" y="671" type="line"/>
      <point x="22" y="643" type="line"/>
      <point x="22" y="643"/>
      <point x="35" y="645"/>
      <point x="51" y="645" type="curve" smooth="yes"/>
      <point x="78" y="645"/>
      <point x="100" y="640"/>
      <point x="100" y="605" type="curve" smooth="yes"/>
      <point x="100" y="93" type="line" smooth="yes"/>
      <point x="100" y="37"/>
      <point x="82" y="29"/>
      <point x="30" y="29" type="curve"/>
      <point x="30" y="0" type="line"/>
      <point x="257" y="0" type="line"/>
      <point x="257" y="29" type="line"/>
      <point x="188" y="29"/>
      <point x="183" y="45"/>
      <point x="183" y="97" type="curve" smooth="yes"/>
    </contour>
  </outline>
</glyph>
<glyph name="m" format="2">
  <advance width="852"/>
  <unicode hex="006D"/>
  <outline>
    <contour>
      <point x="185" y="357" type="line"/>
      <point x="214" y="384"/>
      <point x="258" y="421"/>
      <point x="310" y="421" type="curve" smooth="yes"/>
      <point x="356" y="421"/>
      <point x="390" y="399"/>
      <point x="390" y="314" type="curve" smooth="yes"/>
      <point x="390" y="116" type="line" smooth="yes"/>
      <point x="390" y="46"/>
      <point x="384" y="29"/>
      <point x="313" y="29" type="curve"/>
      <point x="313" y="0" type="line"/>
      <point x="550" y="0" type="line"/>
      <point x="550" y="29" type="line"/>
      <point x="478" y="29"/>
      <point x="473" y="47"/>
      <point x="473" y="116" type="curve" smooth="yes"/>
      <point x="473" y="359" type="line"/>
      <point x="506" y="387"/>
      <point x="547" y="421"/>
      <point x="588" y="421" type="curve" smooth="yes"/>
      <point x="635" y="421"/>
      <point x="674" y="399"/>
      <point x="674" y="308" type="curve" smooth="yes"/>
      <point x="674" y="116" type="line" smooth="yes"/>
      <point x="674" y="55"/>
      <point x="671" y="29"/>
      <point x="603" y="29" type="curve"/>
      <point x="603" y="0" type="line"/>
      <point x="829" y="0" type="line"/>
      <point x="829" y="29" type="line"/>
      <point x="760" y="29"/>
      <point x="757" y="53"/>
      <point x="757" y="116" type="curve" smooth="yes"/>
      <point x="757" y="320" type="line" smooth="yes"/>
      <point x="757" y="441"/>
      <point x="706" y="485"/>
      <point x="628" y="485" type="curve" smooth="yes"/>
      <point x="575" y="485"/>
      <point x="524" y="456"/>
      <point x="469" y="402" type="curve"/>
      <point x="465" y="402" type="line"/>
      <point x="445" y="450"/>
      <point x="411" y="485"/>
      <point x="354" y="485" type="curve" smooth="yes"/>
      <point x="286" y="485"/>
      <point x="240" y="448"/>
      <point x="186" y="401" type="curve"/>
      <point x="182" y="401" type="line"/>
      <point x="182" y="482" type="line"/>
      <point x="158" y="482" type="line"/>
      <point x="33" y="453" type="line"/>
      <point x="33" y="424" type="line"/>
      <point x="33" y="424"/>
      <point x="45" y="426"/>
      <point x="60" y="426" type="curve" smooth="yes"/>
      <point x="88" y="426"/>
      <point x="102" y="417"/>
      <point x="102" y="381" type="curve" smooth="yes"/>
      <point x="102" y="101" type="line" smooth="yes"/>
      <point x="102" y="41"/>
      <point x="95" y="29"/>
      <point x="32" y="29" type="curve"/>
      <point x="32" y="0" type="line"/>
      <point x="260" y="0" type="line"/>
      <point x="260" y="29" type="line"/>
      <point x="198" y="29"/>
      <point x="185" y="41"/>
      <point x="185" y="97" type="curve" smooth="yes"/>
    </contour>
  </outline>
  <guideline angle="90" x="32" y="0"/>
</glyph>
<glyph name="s" format="2">
  <advance width="395"/>
  <unicode hex="0073"/>
  <outline>
    <contour>
      <point x="39" y="164" type="line"/>
      <point x="42" y="-8" type="line"/>
      <point x="63" y="-8" type="line"/>
      <point x="84" y="15" type="line"/>
      <point x="86" y="15" type="line"/>
      <point x="112" y="4"/>
      <point x="142" y="-11"/>
      <point x="200" y="-11" type="curve" smooth="yes"/>
      <point x="290" y="-11"/>
      <point x="368" y="25"/>
      <point x="368" y="119" type="curve" smooth="yes"/>
      <point x="368" y="193"/>
      <point x="319" y="230"/>
      <point x="228" y="278" type="curve" smooth="yes"/>
      <point x="144" y="321"/>
      <point x="111" y="346"/>
      <point x="111" y="385" type="curve" smooth="yes"/>
      <point x="111" y="430"/>
      <point x="146" y="451"/>
      <point x="192" y="451" type="curve" smooth="yes"/>
      <point x="253" y="451"/>
      <point x="290" y="422"/>
      <point x="312" y="327" type="curve"/>
      <point x="339" y="327" type="line"/>
      <point x="336" y="480" type="line"/>
      <point x="316" y="480" type="line"/>
      <point x="299" y="459" type="line"/>
      <point x="298" y="459" type="line"/>
      <point x="273" y="471"/>
      <point x="243" y="485"/>
      <point x="193" y="485" type="curve" smooth="yes"/>
      <point x="107" y="485"/>
      <point x="40" y="441"/>
      <point x="40" y="359" type="curve" smooth="yes"/>
      <point x="40" y="285"/>
      <point x="81" y="250"/>
      <point x="172" y="204" type="curve" smooth="yes"/>
      <point x="265" y="158"/>
      <point x="284" y="139"/>
      <point x="284" y="92" type="curve" smooth="yes"/>
      <point x="284" y="45"/>
      <point x="248" y="26"/>
      <point x="198" y="26" type="curve" smooth="yes"/>
      <point x="124" y="26"/>
      <point x="86" y="61"/>
      <point x="65" y="164" type="curve"/>
    </contour>
  </outline>
</glyph>
<glyph name="v" format="2">
  <advance width="481"/>
  <unicode hex="0076"/>
  <outline>
    <contour>
      <point x="498" y="473" type="line"/>
      <point x="323" y="473" type="line"/>
      <point x="323" y="444" type="line"/>
      <point x="359" y="444"/>
      <point x="380" y="439"/>
      <point x="380" y="417" type="curve" smooth="yes"/>
      <point x="380" y="401"/>
      <point x="374" y="389"/>
      <point x="373" y="384" type="curve"/>
      <point x="287" y="158" type="line"/>
      <point x="266" y="97" type="line"/>
      <point x="260" y="97" type="line"/>
      <point x="241" y="157" type="line"/>
      <point x="156" y="380" type="line"/>
      <point x="150" y="394"/>
      <point x="146" y="406"/>
      <point x="146" y="419" type="curve" smooth="yes"/>
      <point x="146" y="435"/>
      <point x="159" y="444"/>
      <point x="198" y="444" type="curve"/>
      <point x="198" y="473" type="line"/>
      <point x="-13" y="473" type="line"/>
      <point x="-13" y="444" type="line"/>
      <point x="30" y="444"/>
      <point x="42" y="433"/>
      <point x="68" y="371" type="curve"/>
      <point x="217" y="-6" type="line"/>
      <point x="265" y="-6" type="line"/>
      <point x="423" y="378" type="line"/>
      <point x="443" y="430"/>
      <point x="459" y="444"/>
      <point x="498" y="444" type="curve"/>
    </contour>
  </outline>
</glyph>
<glyph name="w" format="2">
  <advance width="749"/>
  <unicode hex="0077"/>
  <outline>
    <contour>
      <point x="762" y="473" type="line"/>
      <point x="589" y="473" type="line"/>
      <point x="589" y="444" type="line"/>
      <point x="626" y="444"/>
      <point x="645" y="438"/>
      <point x="645" y="419" type="curve" smooth="yes"/>
      <point x="645" y="402"/>
      <point x="640" y="388"/>
      <point x="639" y="383" type="curve"/>
      <point x="560" y="159" type="line"/>
      <point x="540" y="101" type="line"/>
      <point x="534" y="101" type="line"/>
      <point x="516" y="159" type="line"/>
      <point x="435" y="378" type="line" smooth="yes"/>
      <point x="430" y="393"/>
      <point x="426" y="407"/>
      <point x="426" y="419" type="curve" smooth="yes"/>
      <point x="426" y="435"/>
      <point x="438" y="444"/>
      <point x="476" y="444" type="curve"/>
      <point x="476" y="473" type="line"/>
      <point x="267" y="473" type="line"/>
      <point x="267" y="444" type="line"/>
      <point x="311" y="444"/>
      <point x="326" y="436"/>
      <point x="350" y="371" type="curve" smooth="yes"/>
      <point x="361" y="341" type="line"/>
      <point x="289" y="159" type="line"/>
      <point x="268" y="101" type="line"/>
      <point x="261" y="101" type="line"/>
      <point x="243" y="159" type="line"/>
      <point x="156" y="380" type="line" smooth="yes"/>
      <point x="150" y="395"/>
      <point x="145" y="406"/>
      <point x="145" y="419" type="curve" smooth="yes"/>
      <point x="145" y="435"/>
      <point x="158" y="444"/>
      <point x="198" y="444" type="curve"/>
      <point x="198" y="473" type="line"/>
      <point x="-17" y="473" type="line"/>
      <point x="-17" y="444" type="line"/>
      <point x="27" y="444"/>
      <point x="42" y="433"/>
      <point x="68" y="371" type="curve"/>
      <point x="218" y="-6" type="line"/>
      <point x="264" y="-6" type="line"/>
      <point x="381" y="285" type="line"/>
      <point x="385" y="285" type="line"/>
      <point x="491" y="-6" type="line"/>
      <point x="539" y="-6" type="line"/>
      <point x="688" y="378" type="line" smooth="yes"/>
      <point x="708" y="430"/>
      <point x="723" y="444"/>
      <point x="762" y="444" type="curve"/>
    </contour>
  </outline>
</glyph>
<glyph name="z" format="2">
  <advance width="458"/>
  <unicode hex="007A"/>
  <outline>
    <contour>
      <point x="425" y="160" type="line"/>
      <point x="392" y="160" type="line"/>
      <point x="372" y="67"/>
      <point x="351" y="41"/>
      <point x="265" y="41" type="curve" smooth="yes"/>
      <point x="140" y="41" type="line"/>
      <point x="140" y="44" type="line"/>
      <point x="421" y="444" type="line"/>
      <point x="421" y="473" type="line"/>
      <point x="52" y="473" type="line"/>
      <point x="47" y="326" type="line"/>
      <point x="78" y="326" type="line"/>
      <point x="87" y="393"/>
      <point x="103" y="431"/>
      <point x="177" y="431" type="curve" smooth="yes"/>
      <point x="312" y="431" type="line"/>
      <point x="312" y="428" type="line"/>
      <point x="31" y="29" type="line"/>
      <point x="31" y="0" type="line"/>
      <point x="415" y="0" type="line"/>
    </contour>
  </outline>
</glyph>
<glyph name="exclamdown" format="2">
  <advance width="282"/>
  <unicode hex="00A1"/>
  <outline>
    <contour>
      <point x="160" y="303" type="line"/>
      <point x="125" y="303" type="line"/>
      <point x="92" y="-64" type="line" smooth="yes"/>
      <point x="90" y="-88"/>
      <point x="89" y="-111"/>
      <point x="89" y="-128" type="curve" smooth="yes"/>
      <point x="89" y="-167"/>
      <point x="103" y="-196"/>
      <point x="142" y="-196" type="curve" smooth="yes"/>
      <point x="184" y="-196"/>
      <point x="194" y="-167"/>
      <point x="194" y="-130" type="curve" smooth="yes"/>
      <point x="194" y="-114"/>
      <point x="192" y="-93"/>
      <point x="191" y="-64" type="curve"/>
    </contour>
    <contour>
      <point x="82" y="424" type="curve" smooth="yes"/>
      <point x="82" y="391"/>
      <point x="104" y="362"/>
      <point x="141" y="362" type="curve" smooth="yes"/>
      <point x="179" y="362"/>
      <point x="201" y="390"/>
      <point x="201" y="423" type="curve" smooth="yes"/>
      <point x="201" y="457"/>
      <point x="181" y="482"/>
      <point x="142" y="482" type="curve" smooth="yes"/>
      <point x="104" y="482"/>
      <point x="82" y="455"/>
    </contour>
  </outline>
</glyph>
<glyph name="sterling" format="2">
  <advance width="495"/>
  <unicode hex="00A3"/>
  <outline>
    <contour>
      <point x="372" y="304" type="line"/>
      <point x="372" y="347" type="line"/>
      <point x="233" y="347" type="line"/>
      <point x="224" y="411"/>
      <point x="219" y="456"/>
      <point x="219" y="496" type="curve" smooth="yes"/>
      <point x="219" y="577"/>
      <point x="245" y="601"/>
      <point x="295" y="601" type="curve" smooth="yes"/>
      <point x="364" y="601"/>
      <point x="365" y="512"/>
      <point x="422" y="512" type="curve" smooth="yes"/>
      <point x="442" y="512"/>
      <point x="462" y="524"/>
      <point x="462" y="553" type="curve" smooth="yes"/>
      <point x="462" y="600"/>
      <point x="405" y="644"/>
      <point x="323" y="644" type="curve" smooth="yes"/>
      <point x="201" y="644"/>
      <point x="136" y="547"/>
      <point x="136" y="427" type="curve" smooth="yes"/>
      <point x="136" y="400"/>
      <point x="138" y="371"/>
      <point x="141" y="347" type="curve"/>
      <point x="51" y="347" type="line"/>
      <point x="51" y="304" type="line"/>
      <point x="146" y="304" type="line"/>
      <point x="161" y="220"/>
      <point x="164" y="173"/>
      <point x="163" y="125" type="curve"/>
      <point x="146" y="131"/>
      <point x="129" y="135"/>
      <point x="106" y="135" type="curve" smooth="yes"/>
      <point x="64" y="135"/>
      <point x="14" y="116"/>
      <point x="14" y="58" type="curve" smooth="yes"/>
      <point x="14" y="10"/>
      <point x="51" y="-8"/>
      <point x="92" y="-8" type="curve" smooth="yes"/>
      <point x="131" y="-8"/>
      <point x="158" y="7"/>
      <point x="189" y="50" type="curve"/>
      <point x="254" y="7"/>
      <point x="278" y="-6"/>
      <point x="322" y="-6" type="curve" smooth="yes"/>
      <point x="408" y="-6"/>
      <point x="454" y="55"/>
      <point x="480" y="120" type="curve"/>
      <point x="460" y="132" type="line"/>
      <point x="432" y="93"/>
      <point x="398" y="66"/>
      <point x="339" y="66" type="curve" smooth="yes"/>
      <point x="290" y="66"/>
      <point x="274" y="80"/>
      <point x="218" y="107" type="curve"/>
      <point x="234" y="157"/>
      <point x="241" y="200"/>
      <point x="241" y="242" type="curve" smooth="yes"/>
      <point x="241" y="261"/>
      <point x="239" y="281"/>
      <point x="237" y="304" type="curve"/>
    </contour>
    <contour>
      <point x="159" y="75" type="line"/>
      <point x="145" y="48"/>
      <point x="124" y="27"/>
      <point x="97" y="27" type="curve" smooth="yes"/>
      <point x="73" y="27"/>
      <point x="53" y="36"/>
      <point x="53" y="61" type="curve" smooth="yes"/>
      <point x="53" y="83"/>
      <point x="69" y="98"/>
      <point x="104" y="98" type="curve" smooth="yes"/>
      <point x="129" y="98"/>
      <point x="145" y="88"/>
      <point x="159" y="77" type="curve"/>
    </contour>
  </outline>
</glyph>
<glyph name="currency" format="2">
  <advance width="617"/>
  <unicode hex="00A4"/>
  <outline>
    <contour>
      <point x="577" y="41" type="line"/>
      <point x="480" y="138" type="line"/>
      <point x="512" y="186"/>
      <point x="522" y="222"/>
      <point x="522" y="269" type="curve" smooth="yes"/>
      <point x="522" y="318"/>
      <point x="512" y="352"/>
      <point x="480" y="398" type="curve"/>
      <point x="577" y="497" type="line"/>
      <point x="538" y="537" type="line"/>
      <point x="439" y="439" type="line"/>
      <point x="397" y="469"/>
      <point x="358" y="481"/>
      <point x="310" y="481" type="curve" smooth="yes"/>
      <point x="263" y="481"/>
      <point x="226" y="470"/>
      <point x="179" y="439" type="curve"/>
      <point x="81" y="537" type="line"/>
      <point x="40" y="497" type="line"/>
      <point x="140" y="398" type="line"/>
      <point x="108" y="355"/>
      <point x="96" y="315"/>
      <point x="96" y="268" type="curve" smooth="yes"/>
      <point x="96" y="221"/>
      <point x="108" y="183"/>
      <point x="140" y="138" type="curve"/>
      <point x="40" y="41" type="line"/>
      <point x="81" y="0" type="line"/>
      <point x="179" y="99" type="line"/>
      <point x="224" y="67"/>
      <point x="264" y="55"/>
      <point x="310" y="55" type="curve" smooth="yes"/>
      <point x="356" y="55"/>
      <point x="396" y="68"/>
      <point x="439" y="99" type="curve"/>
      <point x="538" y="0" type="line"/>
    </contour>
    <contour>
      <point x="466" y="270" type="curve" smooth="yes"/>
      <point x="466" y="178"/>
      <point x="398" y="106"/>
      <point x="310" y="106" type="curve" smooth="yes"/>
      <point x="222" y="106"/>
      <point x="151" y="179"/>
      <point x="151" y="269" type="curve" smooth="yes"/>
      <point x="151" y="357"/>
      <point x="222" y="430"/>
      <point x="308" y="430" type="curve" smooth="yes"/>
      <point x="397" y="430"/>
      <point x="466" y="359"/>
    </contour>
  </outline>
</glyph>
<glyph name="copyright" format="2">
  <advance width="781"/>
  <unicode hex="00A9"/>
  <outline>
    <contour>
      <point x="55" y="330" type="curve" smooth="yes"/>
      <point x="55" y="129"/>
      <point x="194" y="-14"/>
      <point x="389" y="-14" type="curve" smooth="yes"/>
      <point x="586" y="-14"/>
      <point x="726" y="129"/>
      <point x="726" y="330" type="curve" smooth="yes"/>
      <point x="726" y="532"/>
      <point x="586" y="676"/>
      <point x="389" y="676" type="curve" smooth="yes"/>
      <point x="194" y="676"/>
      <point x="55" y="532"/>
    </contour>
    <contour>
      <point x="93" y="330" type="curve" smooth="yes"/>
      <point x="93" y="514"/>
      <point x="212" y="643"/>
      <point x="389" y="643" type="curve" smooth="yes"/>
      <point x="568" y="643"/>
      <point x="688" y="514"/>
      <point x="688" y="330" type="curve" smooth="yes"/>
      <point x="688" y="148"/>
      <point x="568" y="19"/>
      <point x="389" y="19" type="curve" smooth="yes"/>
      <point x="212" y="19"/>
      <point x="93" y="148"/>
    </contour>
    <contour>
      <point x="533" y="241" type="line"/>
      <point x="501" y="207"/>
      <point x="470" y="194"/>
      <point x="410" y="194" type="curve" smooth="yes"/>
      <point x="326" y="194"/>
      <point x="285" y="247"/>
      <point x="285" y="338" type="curve" smooth="yes"/>
      <point x="285" y="431"/>
      <point x="303" y="490"/>
      <point x="388" y="490" type="curve" smooth="yes"/>
      <point x="457" y="490"/>
      <point x="493" y="461"/>
      <point x="508" y="388" type="curve"/>
      <point x="536" y="388" type="line"/>
      <point x="536" y="522" type="line"/>
      <point x="512" y="522" type="line"/>
      <point x="501" y="509"/>
      <point x="496" y="504"/>
      <point x="491" y="504" type="curve" smooth="yes"/>
      <point x="475" y="504"/>
      <point x="457" y="523"/>
      <point x="392" y="523" type="curve" smooth="yes"/>
      <point x="272" y="523"/>
      <point x="210" y="450"/>
      <point x="210" y="329" type="curve" smooth="yes"/>
      <point x="210" y="206"/>
      <point x="275" y="141"/>
      <point x="397" y="141" type="curve" smooth="yes"/>
      <point x="479" y="141"/>
      <point x="522" y="181"/>
      <point x="552" y="224" type="curve"/>
    </contour>
  </outline>
</glyph>
<glyph name="ordfeminine" format="2">
  <advance width="410"/>
  <unicode hex="00AA"/>
  <outline>
    <contour>
      <point x="262" y="299" type="line"/>
      <point x="266" y="265"/>
      <point x="273" y="247"/>
      <point x="310" y="247" type="curve" smooth="yes"/>
      <point x="355" y="247"/>
      <point x="376" y="263"/>
      <point x="403" y="301" type="curve"/>
      <point x="389" y="318" type="line"/>
      <point x="378" y="307"/>
      <point x="366" y="298"/>
      <point x="352" y="298" type="curve" smooth="yes"/>
      <point x="334" y="298"/>
      <point x="327" y="304"/>
      <point x="327" y="337" type="curve" smooth="yes"/>
      <point x="327" y="518" type="line" smooth="yes"/>
      <point x="327" y="603"/>
      <point x="288" y="643"/>
      <point x="196" y="643" type="curve" smooth="yes"/>
      <point x="109" y="643"/>
      <point x="51" y="601"/>
      <point x="51" y="555" type="curve" smooth="yes"/>
      <point x="51" y="526"/>
      <point x="73" y="515"/>
      <point x="88" y="515" type="curve" smooth="yes"/>
      <point x="112" y="515"/>
      <point x="126" y="529"/>
      <point x="126" y="552" type="curve" smooth="yes"/>
      <point x="126" y="600"/>
      <point x="133" y="613"/>
      <point x="178" y="613" type="curve" smooth="yes"/>
      <point x="226" y="613"/>
      <point x="254" y="589"/>
      <point x="254" y="526" type="curve" smooth="yes"/>
      <point x="254" y="485" type="line"/>
      <point x="188" y="470"/>
      <point x="35" y="451"/>
      <point x="35" y="338" type="curve" smooth="yes"/>
      <point x="35" y="282"/>
      <point x="73" y="246"/>
      <point x="134" y="246" type="curve" smooth="yes"/>
      <point x="184" y="246"/>
      <point x="217" y="268"/>
      <point x="256" y="299" type="curve"/>
    </contour>
    <contour>
      <point x="254" y="326" type="line"/>
      <point x="223" y="301"/>
      <point x="193" y="294"/>
      <point x="170" y="294" type="curve" smooth="yes"/>
      <point x="135" y="294"/>
      <point x="111" y="317"/>
      <point x="111" y="355" type="curve" smooth="yes"/>
      <point x="111" y="423"/>
      <point x="184" y="440"/>
      <point x="254" y="457" type="curve"/>
    </contour>
  </outline>
</glyph>
<glyph name="guillemotleft" format="2">
  <advance width="517"/>
  <unicode hex="00AB"/>
  <outline>
    <contour>
      <point x="33" y="226" type="line"/>
      <point x="101" y="165"/>
      <point x="165" y="102"/>
      <point x="233" y="34" type="curve"/>
      <point x="257" y="55" type="line"/>
      <point x="119" y="237" type="line"/>
      <point x="119" y="243" type="line"/>
      <point x="166" y="306"/>
      <point x="207" y="361"/>
      <point x="254" y="422" type="curve"/>
      <point x="231" y="442" type="line"/>
      <point x="168" y="379"/>
      <point x="104" y="315"/>
      <point x="33" y="249" type="curve"/>
    </contour>
    <contour>
      <point x="244" y="226" type="line"/>
      <point x="311" y="165"/>
      <point x="375" y="102"/>
      <point x="443" y="34" type="curve"/>
      <point x="467" y="55" type="line"/>
      <point x="329" y="237" type="line"/>
      <point x="329" y="243" type="line"/>
      <point x="376" y="306"/>
      <point x="417" y="361"/>
      <point x="464" y="422" type="curve"/>
      <point x="441" y="442" type="line"/>
      <point x="378" y="379"/>
      <point x="314" y="315"/>
      <point x="244" y="249" type="curve"/>
    </contour>
  </outline>
</glyph>
<glyph name="logicalnot" format="2">
  <advance width="720"/>
  <unicode hex="00AC"/>
  <outline>
    <contour>
      <point x="638" y="83" type="line"/>
      <point x="638" y="416" type="line"/>
      <point x="62" y="416" type="line"/>
      <point x="62" y="348" type="line"/>
      <point x="566" y="348" type="line"/>
      <point x="566" y="83" type="line"/>
    </contour>
  </outline>
</glyph>
<glyph name="degree" format="2">
  <advance width="409"/>
  <unicode hex="00B0"/>
  <outline>
    <contour>
      <point x="357" y="545" type="curve" smooth="yes"/>
      <point x="357" y="640"/>
      <point x="286" y="698"/>
      <point x="204" y="698" type="curve" smooth="yes"/>
      <point x="117" y="698"/>
      <point x="52" y="639"/>
      <point x="52" y="545" type="curve" smooth="yes"/>
      <point x="52" y="451"/>
      <point x="115" y="393"/>
      <point x="204" y="393" type="curve" smooth="yes"/>
      <point x="293" y="393"/>
      <point x="357" y="451"/>
    </contour>
    <contour>
      <point x="302" y="545" type="curve" smooth="yes"/>
      <point x="302" y="477"/>
      <point x="260" y="440"/>
      <point x="204" y="440" type="curve" smooth="yes"/>
      <point x="148" y="440"/>
      <point x="107" y="478"/>
      <point x="107" y="545" type="curve" smooth="yes"/>
      <point x="107" y="612"/>
      <point x="150" y="651"/>
      <point x="204" y="651" type="curve" smooth="yes"/>
      <point x="260" y="651"/>
      <point x="302" y="613"/>
    </contour>
  </outline>
  <guideline angle="0" x="0" y="545"/>
  <guideline angle="90" x="204" y="0"/>
</glyph>
<glyph name="micro" format="2">
  <advance width="556"/>
  <unicode hex="00B5"/>
  <outline>
    <contour>
      <point x="457" y="463" type="line"/>
      <point x="452" y="472" type="line"/>
      <point x="366" y="469" type="line"/>
      <point x="363" y="281" type="line"/>
      <point x="362" y="256"/>
      <point x="313" y="70"/>
      <point x="223" y="70" type="curve" smooth="yes"/>
      <point x="169" y="70"/>
      <point x="132" y="135"/>
      <point x="132" y="195" type="curve" smooth="yes"/>
      <point x="132" y="207"/>
      <point x="133" y="217"/>
      <point x="133" y="217" type="curve"/>
      <point x="169" y="464" type="line"/>
      <point x="165" y="472" type="line"/>
      <point x="75" y="469" type="line"/>
      <point x="76" y="149" type="line"/>
      <point x="53" y="17"/>
      <point x="46" y="-74"/>
      <point x="45" y="-214" type="curve"/>
      <point x="61" y="-217" type="line"/>
      <point x="136" y="-191" type="line"/>
      <point x="124" y="-73"/>
      <point x="121" y="-12"/>
      <point x="120" y="69" type="curve"/>
      <point x="125" y="69" type="line"/>
      <point x="139" y="41"/>
      <point x="164" y="-13"/>
      <point x="219" y="-13" type="curve" smooth="yes"/>
      <point x="268" y="-13"/>
      <point x="324" y="17"/>
      <point x="356" y="164" type="curve"/>
      <point x="362" y="164" type="line"/>
      <point x="367" y="111"/>
      <point x="370" y="92"/>
      <point x="373" y="72" type="curve" smooth="yes"/>
      <point x="381" y="25"/>
      <point x="394" y="-10"/>
      <point x="443" y="-10" type="curve" smooth="yes"/>
      <point x="508" y="-10"/>
      <point x="542" y="45"/>
      <point x="558" y="92" type="curve"/>
      <point x="541" y="103" type="line"/>
      <point x="526" y="83"/>
      <point x="511" y="64"/>
      <point x="479" y="64" type="curve" smooth="yes"/>
      <point x="442" y="64"/>
      <point x="422" y="96"/>
      <point x="417" y="172" type="curve" smooth="yes"/>
      <point x="416" y="187"/>
      <point x="414" y="206"/>
      <point x="414" y="217" type="curve"/>
    </contour>
  </outline>
</glyph>
<glyph name="ordmasculine" format="2">
  <advance width="432"/>
  <unicode hex="00BA"/>
  <outline>
    <contour>
      <point x="216" y="643" type="curve" smooth="yes"/>
      <point x="104" y="643"/>
      <point x="30" y="564"/>
      <point x="30" y="448" type="curve" smooth="yes"/>
      <point x="30" y="309"/>
      <point x="107" y="243"/>
      <point x="216" y="243" type="curve" smooth="yes"/>
      <point x="322" y="243"/>
      <point x="402" y="309"/>
      <point x="402" y="449" type="curve" smooth="yes"/>
      <point x="402" y="568"/>
      <point x="328" y="643"/>
    </contour>
    <contour>
      <point x="214" y="607" type="curve" smooth="yes"/>
      <point x="288" y="607"/>
      <point x="322" y="547"/>
      <point x="322" y="448" type="curve" smooth="yes"/>
      <point x="322" y="320"/>
      <point x="283" y="280"/>
      <point x="217" y="280" type="curve" smooth="yes"/>
      <point x="150" y="280"/>
      <point x="109" y="325"/>
      <point x="109" y="452" type="curve" smooth="yes"/>
      <point x="109" y="553"/>
      <point x="149" y="607"/>
    </contour>
  </outline>
</glyph>
<glyph name="guillemotright" format="2">
  <advance width="517"/>
  <unicode hex="00BB"/>
  <outline>
    <contour>
      <point x="274" y="249" type="line"/>
      <point x="203" y="315"/>
      <point x="139" y="379"/>
      <point x="76" y="442" type="curve"/>
      <point x="53" y="422" type="line"/>
      <point x="100" y="361"/>
      <point x="141" y="306"/>
      <point x="189" y="243" type="curve"/>
      <point x="189" y="237" type="line"/>
      <point x="143" y="178"/>
      <point x="98" y="118"/>
      <point x="51" y="55" type="curve"/>
      <point x="74" y="34" type="line"/>
      <point x="142" y="102"/>
      <point x="206" y="165"/>
      <point x="274" y="226" type="curve"/>
    </contour>
    <contour>
      <point x="484" y="249" type="line"/>
      <point x="413" y="315"/>
      <point x="349" y="379"/>
      <point x="286" y="442" type="curve"/>
      <point x="264" y="422" type="line"/>
      <point x="399" y="243" type="line"/>
      <point x="399" y="237" type="line"/>
      <point x="353" y="178"/>
      <point x="308" y="118"/>
      <point x="261" y="55" type="curve"/>
      <point x="284" y="34" type="line"/>
      <point x="352" y="102"/>
      <point x="416" y="165"/>
      <point x="484" y="226" type="curve"/>
    </contour>
  </outline>
</glyph>
<glyph name="onehalf" format="2">
  <advance width="889"/>
  <unicode hex="00BD"/>
  <outline>
    <component base="fraction" xOffset="324"/>
    <contour>
      <point x="281" y="252" type="line"/>
      <point x="281" y="279" type="line"/>
      <point x="213" y="279"/>
      <point x="201" y="291"/>
      <point x="201" y="328" type="curve" smooth="yes"/>
      <point x="201" y="663" type="line"/>
      <point x="168" y="663" type="line"/>
      <point x="43" y="627" type="line"/>
      <point x="43" y="597" type="line"/>
      <point x="61" y="601"/>
      <point x="84" y="607"/>
      <point x="100" y="607" type="curve" smooth="yes"/>
      <point x="121" y="607"/>
      <point x="128" y="595"/>
      <point x="128" y="569" type="curve" smooth="yes"/>
      <point x="128" y="328" type="line" smooth="yes"/>
      <point x="128" y="291"/>
      <point x="119" y="279"/>
      <point x="49" y="279" type="curve"/>
      <point x="49" y="252" type="line"/>
    </contour>
    <contour>
      <point x="867" y="127" type="line"/>
      <point x="840" y="127" type="line"/>
      <point x="821" y="81"/>
      <point x="813" y="64"/>
      <point x="770" y="64" type="curve" smooth="yes"/>
      <point x="682" y="64" type="line"/>
      <point x="625" y="61" type="line"/>
      <point x="625" y="66" type="line"/>
      <point x="714" y="131" type="line" smooth="yes"/>
      <point x="798" y="192"/>
      <point x="844" y="232"/>
      <point x="844" y="299" type="curve" smooth="yes"/>
      <point x="844" y="371"/>
      <point x="790" y="416"/>
      <point x="701" y="416" type="curve" smooth="yes"/>
      <point x="628" y="416"/>
      <point x="573" y="375"/>
      <point x="548" y="319" type="curve"/>
      <point x="568" y="310" type="line"/>
      <point x="595" y="346"/>
      <point x="629" y="363"/>
      <point x="682" y="363" type="curve" smooth="yes"/>
      <point x="741" y="363"/>
      <point x="765" y="335"/>
      <point x="765" y="291" type="curve" smooth="yes"/>
      <point x="765" y="221"/>
      <point x="733" y="189"/>
      <point x="648" y="122" type="curve"/>
      <point x="546" y="37" type="line"/>
      <point x="546" y="0" type="line"/>
      <point x="842" y="0" type="line"/>
    </contour>
  </outline>
</glyph>
<glyph name="Eth" format="2">
  <advance width="737"/>
  <unicode hex="00D0"/>
  <outline>
    <contour>
      <point x="40" y="309" type="line"/>
      <point x="138" y="309" type="line"/>
      <point x="138" y="124" type="line" smooth="yes"/>
      <point x="138" y="43"/>
      <point x="127" y="30"/>
      <point x="40" y="30" type="curve"/>
      <point x="40" y="0" type="line"/>
      <point x="326" y="0" type="line" smooth="yes"/>
      <point x="542" y="0"/>
      <point x="686" y="99"/>
      <point x="686" y="329" type="curve" smooth="yes"/>
      <point x="686" y="573"/>
      <point x="523" y="657"/>
      <point x="315" y="657" type="curve" smooth="yes"/>
      <point x="40" y="657" type="line"/>
      <point x="40" y="627" type="line"/>
      <point x="114" y="627"/>
      <point x="138" y="616"/>
      <point x="138" y="543" type="curve" smooth="yes"/>
      <point x="138" y="357" type="line"/>
      <point x="40" y="357" type="line"/>
    </contour>
    <contour>
      <point x="230" y="614" type="line"/>
      <point x="250" y="616"/>
      <point x="262" y="616"/>
      <point x="279" y="616" type="curve" smooth="yes"/>
      <point x="486" y="616"/>
      <point x="576" y="514"/>
      <point x="576" y="320" type="curve" smooth="yes"/>
      <point x="576" y="100"/>
      <point x="471" y="38"/>
      <point x="289" y="38" type="curve" smooth="yes"/>
      <point x="269" y="38"/>
      <point x="250" y="39"/>
      <point x="230" y="41" type="curve"/>
      <point x="230" y="309" type="line"/>
      <point x="401" y="309" type="line"/>
      <point x="401" y="357" type="line"/>
      <point x="230" y="357" type="line"/>
    </contour>
  </outline>
  <guideline angle="90" x="29" y="0"/>
</glyph>
<glyph name="multiply" format="2">
  <advance width="655"/>
  <unicode hex="00D7"/>
  <outline>
    <contour>
      <point x="611" y="22" type="line"/>
      <point x="376" y="258" type="line"/>
      <point x="611" y="495" type="line"/>
      <point x="564" y="541" type="line"/>
      <point x="327" y="306" type="line"/>
      <point x="92" y="541" type="line"/>
      <point x="44" y="494" type="line"/>
      <point x="279" y="258" type="line"/>
      <point x="44" y="21" type="line"/>
      <point x="91" y="-26" type="line"/>
      <point x="327" y="210" type="line"/>
      <point x="564" y="-26" type="line"/>
    </contour>
  </outline>
</glyph>
<glyph name="Oslash" format="2">
  <advance width="737"/>
  <unicode hex="00D8"/>
  <outline>
    <contour>
      <point x="106" y="-20" type="line"/>
      <point x="163" y="53" type="line"/>
      <point x="215" y="11"/>
      <point x="285" y="-12"/>
      <point x="369" y="-12" type="curve" smooth="yes"/>
      <point x="566" y="-12"/>
      <point x="687" y="129"/>
      <point x="687" y="338" type="curve" smooth="yes"/>
      <point x="687" y="446"/>
      <point x="651" y="535"/>
      <point x="586" y="594" type="curve"/>
      <point x="630" y="651" type="line"/>
      <point x="599" y="675" type="line"/>
      <point x="554" y="618" type="line"/>
      <point x="505" y="651"/>
      <point x="442" y="669"/>
      <point x="369" y="669" type="curve" smooth="yes"/>
      <point x="171" y="669"/>
      <point x="50" y="532"/>
      <point x="50" y="329" type="curve" smooth="yes"/>
      <point x="50" y="223"/>
      <point x="79" y="138"/>
      <point x="134" y="80" type="curve"/>
      <point x="75" y="4" type="line"/>
    </contour>
    <contour>
      <point x="582" y="335" type="curve" smooth="yes"/>
      <point x="582" y="134"/>
      <point x="512" y="30"/>
      <point x="370" y="30" type="curve" smooth="yes"/>
      <point x="298" y="30"/>
      <point x="245" y="59"/>
      <point x="209" y="111" type="curve"/>
      <point x="533" y="529" type="line"/>
      <point x="535" y="529" type="line"/>
      <point x="565" y="480"/>
      <point x="582" y="414"/>
    </contour>
    <contour>
      <point x="155" y="335" type="curve" smooth="yes"/>
      <point x="155" y="518"/>
      <point x="237" y="627"/>
      <point x="366" y="627" type="curve" smooth="yes"/>
      <point x="424" y="627"/>
      <point x="474" y="604"/>
      <point x="511" y="562" type="curve"/>
      <point x="190" y="149" type="line"/>
      <point x="188" y="149" type="line"/>
      <point x="166" y="198"/>
      <point x="155" y="261"/>
    </contour>
  </outline>
</glyph>
<glyph name="Thorn" format="2">
  <advance width="572"/>
  <unicode hex="00DE"/>
  <outline>
    <contour>
      <point x="133" y="131" type="line" smooth="yes"/>
      <point x="133" y="43"/>
      <point x="125" y="30"/>
      <point x="34" y="30" type="curve"/>
      <point x="34" y="0" type="line"/>
      <point x="332" y="0" type="line"/>
      <point x="332" y="30" type="line"/>
      <point x="243" y="30"/>
      <point x="224" y="47"/>
      <point x="224" y="131" type="curve" smooth="yes"/>
      <point x="224" y="171" type="line"/>
      <point x="239" y="169"/>
      <point x="262" y="164"/>
      <point x="279" y="164" type="curve" smooth="yes"/>
      <point x="410" y="164"/>
      <point x="542" y="209"/>
      <point x="542" y="364" type="curve" smooth="yes"/>
      <point x="542" y="498"/>
      <point x="420" y="530"/>
      <point x="298" y="530" type="curve" smooth="yes"/>
      <point x="264" y="530"/>
      <point x="241" y="527"/>
      <point x="224" y="525" type="curve"/>
      <point x="224" y="541" type="line" smooth="yes"/>
      <point x="224" y="601"/>
      <point x="246" y="627"/>
      <point x="332" y="627" type="curve"/>
      <point x="332" y="657" type="line"/>
      <point x="34" y="657" type="line"/>
      <point x="34" y="627" type="line"/>
      <point x="129" y="627"/>
      <point x="133" y="603"/>
      <point x="133" y="525" type="curve" smooth="yes"/>
    </contour>
    <contour>
      <point x="276" y="493" type="curve" smooth="yes"/>
      <point x="386" y="493"/>
      <point x="441" y="447"/>
      <point x="441" y="356" type="curve" smooth="yes"/>
      <point x="441" y="241"/>
      <point x="384" y="206"/>
      <point x="274" y="206" type="curve" smooth="yes"/>
      <point x="254" y="206"/>
      <point x="237" y="207"/>
      <point x="224" y="210" type="curve"/>
      <point x="224" y="490" type="line"/>
      <point x="245" y="492"/>
      <point x="259" y="493"/>
    </contour>
  </outline>
</glyph>
<glyph name="germandbls" format="2">
  <advance width="563"/>
  <unicode hex="00DF"/>
  <outline>
    <contour>
      <point x="102" y="97" type="line" smooth="yes"/>
      <point x="102" y="33"/>
      <point x="75" y="29"/>
      <point x="22" y="29" type="curve"/>
      <point x="22" y="0" type="line"/>
      <point x="186" y="0" type="line"/>
      <point x="186" y="565" type="line" smooth="yes"/>
      <point x="186" y="662"/>
      <point x="231" y="681"/>
      <point x="289" y="681" type="curve" smooth="yes"/>
      <point x="356" y="681"/>
      <point x="387" y="645"/>
      <point x="387" y="564" type="curve" smooth="yes"/>
      <point x="387" y="470"/>
      <point x="343" y="440"/>
      <point x="265" y="427" type="curve"/>
      <point x="265" y="381" type="line"/>
      <point x="353" y="371"/>
      <point x="438" y="300"/>
      <point x="438" y="178" type="curve" smooth="yes"/>
      <point x="438" y="47"/>
      <point x="400" y="26"/>
      <point x="367" y="26" type="curve" smooth="yes"/>
      <point x="325" y="26"/>
      <point x="332" y="123"/>
      <point x="277" y="123" type="curve" smooth="yes"/>
      <point x="248" y="123"/>
      <point x="233" y="103"/>
      <point x="233" y="75" type="curve" smooth="yes"/>
      <point x="233" y="30"/>
      <point x="279" y="-6"/>
      <point x="342" y="-6" type="curve" smooth="yes"/>
      <point x="439" y="-6"/>
      <point x="532" y="45"/>
      <point x="532" y="189" type="curve" smooth="yes"/>
      <point x="532" y="330"/>
      <point x="413" y="393"/>
      <point x="313" y="407" type="curve"/>
      <point x="313" y="411" type="line"/>
      <point x="422" y="440"/>
      <point x="471" y="488"/>
      <point x="471" y="570" type="curve" smooth="yes"/>
      <point x="471" y="664"/>
      <point x="406" y="713"/>
      <point x="297" y="713" type="curve" smooth="yes"/>
      <point x="164" y="713"/>
      <point x="102" y="645"/>
      <point x="102" y="482" type="curve" smooth="yes"/>
      <point x="102" y="468" type="line"/>
      <point x="31" y="468" type="line"/>
      <point x="31" y="426" type="line"/>
      <point x="102" y="426" type="line"/>
    </contour>
  </outline>
</glyph>
<glyph name="ccedilla" format="2">
  <advance width="446"/>
  <unicode hex="00E7"/>
  <outline>
    <contour>
      <point x="408" y="148" type="line"/>
      <point x="363" y="90"/>
      <point x="329" y="65"/>
      <point x="264" y="65" type="curve" smooth="yes"/>
      <point x="161" y="65"/>
      <point x="112" y="151"/>
      <point x="112" y="273" type="curve" smooth="yes"/>
      <point x="112" y="388"/>
      <point x="161" y="448"/>
      <point x="242" y="448" type="curve" smooth="yes"/>
      <point x="328" y="448"/>
      <point x="295" y="334"/>
      <point x="369" y="334" type="curve" smooth="yes"/>
      <point x="397" y="334"/>
      <point x="411" y="350"/>
      <point x="411" y="379" type="curve" smooth="yes"/>
      <point x="411" y="437"/>
      <point x="353" y="485"/>
      <point x="259" y="485" type="curve" smooth="yes"/>
      <point x="115" y="485"/>
      <point x="33" y="383"/>
      <point x="33" y="226" type="curve" smooth="yes"/>
      <point x="33" y="92"/>
      <point x="101" y="-1"/>
      <point x="216" y="-9" type="curve"/>
      <point x="199" y="-82" type="line"/>
      <point x="212" y="-93" type="line"/>
      <point x="216" y="-93"/>
      <point x="229" y="-90"/>
      <point x="243" y="-90" type="curve" smooth="yes"/>
      <point x="276" y="-90"/>
      <point x="286" y="-109"/>
      <point x="286" y="-132" type="curve" smooth="yes"/>
      <point x="286" y="-164"/>
      <point x="266" y="-176"/>
      <point x="232" y="-176" type="curve" smooth="yes"/>
      <point x="207" y="-176"/>
      <point x="185" y="-168"/>
      <point x="167" y="-157" type="curve"/>
      <point x="157" y="-180" type="line"/>
      <point x="180" y="-197"/>
      <point x="203" y="-215"/>
      <point x="240" y="-215" type="curve" smooth="yes"/>
      <point x="303" y="-215"/>
      <point x="344" y="-182"/>
      <point x="344" y="-128" type="curve" smooth="yes"/>
      <point x="344" y="-81"/>
      <point x="313" y="-55"/>
      <point x="263" y="-55" type="curve" smooth="yes"/>
      <point x="248" y="-55"/>
      <point x="238" y="-57"/>
      <point x="234" y="-57" type="curve"/>
      <point x="246" y="-9" type="line"/>
      <point x="344" y="-5"/>
      <point x="390" y="56"/>
      <point x="427" y="134" type="curve"/>
    </contour>
  </outline>
</glyph>
<glyph name="idieresis" format="2">
  <advance width="285"/>
  <unicode hex="00EF"/>
  <outline>
    <contour>
      <point x="257" y="28" type="line"/>
      <point x="190" y="28"/>
      <point x="185" y="43"/>
      <point x="185" y="101" type="curve" smooth="yes"/>
      <point x="185" y="482" type="line"/>
      <point x="159" y="482" type="line"/>
      <point x="33" y="454" type="line"/>
      <point x="33" y="425" type="line"/>
      <point x="33" y="425"/>
      <point x="44" y="427"/>
      <point x="58" y="427" type="curve" smooth="yes"/>
      <point x="87" y="427"/>
      <point x="102" y="423"/>
      <point x="102" y="380" type="curve" smooth="yes"/>
      <point x="102" y="101" type="line" smooth="yes"/>
      <point x="102" y="44"/>
      <point x="99" y="28"/>
      <point x="32" y="28" type="curve"/>
      <point x="32" y="0" type="line"/>
      <point x="257" y="0" type="line"/>
    </contour>
    <contour>
      <point x="27" y="672" type="curve" smooth="yes"/>
      <point x="-7" y="672"/>
      <point x="-29" y="646"/>
      <point x="-29" y="616" type="curve" smooth="yes"/>
      <point x="-29" y="586"/>
      <point x="-6" y="560"/>
      <point x="27" y="560" type="curve" smooth="yes"/>
      <point x="62" y="560"/>
      <point x="84" y="586"/>
      <point x="84" y="616" type="curve" smooth="yes"/>
      <point x="84" y="646"/>
      <point x="62" y="672"/>
    </contour>
    <contour>
      <point x="223" y="672" type="curve" smooth="yes"/>
      <point x="189" y="672"/>
      <point x="167" y="646"/>
      <point x="167" y="616" type="curve" smooth="yes"/>
      <point x="167" y="586"/>
      <point x="190" y="560"/>
      <point x="223" y="560" type="curve" smooth="yes"/>
      <point x="258" y="560"/>
      <point x="280" y="586"/>
      <point x="280" y="616" type="curve" smooth="yes"/>
      <point x="280" y="646"/>
      <point x="258" y="672"/>
    </contour>
  </outline>
</glyph>
<glyph name="divide" format="2">
  <advance width="720"/>
  <unicode hex="00F7"/>
  <outline>
    <contour>
      <point x="417" y="470" type="curve" smooth="yes"/>
      <point x="417" y="500"/>
      <point x="390" y="528"/>
      <point x="361" y="528" type="curve" smooth="yes"/>
      <point x="329" y="528"/>
      <point x="303" y="503"/>
      <point x="303" y="471" type="curve" smooth="yes"/>
      <point x="303" y="439"/>
      <point x="328" y="414"/>
      <point x="360" y="414" type="curve" smooth="yes"/>
      <point x="390" y="414"/>
      <point x="417" y="440"/>
    </contour>
    <contour>
      <point x="658" y="225" type="line"/>
      <point x="658" y="293" type="line"/>
      <point x="62" y="293" type="line"/>
      <point x="62" y="225" type="line"/>
    </contour>
    <contour>
      <point x="417" y="45" type="curve" smooth="yes"/>
      <point x="417" y="76"/>
      <point x="390" y="103"/>
      <point x="361" y="103" type="curve" smooth="yes"/>
      <point x="329" y="103"/>
      <point x="303" y="78"/>
      <point x="303" y="46" type="curve" smooth="yes"/>
      <point x="303" y="14"/>
      <point x="328" y="-10"/>
      <point x="360" y="-10" type="curve" smooth="yes"/>
      <point x="390" y="-10"/>
      <point x="417" y="15"/>
    </contour>
  </outline>
</glyph>
<glyph name="oslash" format="2">
  <advance width="514"/>
  <unicode hex="00F8"/>
  <outline>
    <contour>
      <point x="65" y="-16" type="line"/>
      <point x="108" y="40" type="line"/>
      <point x="146" y="7"/>
      <point x="196" y="-10"/>
      <point x="258" y="-10" type="curve" smooth="yes"/>
      <point x="388" y="-10"/>
      <point x="480" y="78"/>
      <point x="480" y="246" type="curve" smooth="yes"/>
      <point x="480" y="326"/>
      <point x="455" y="389"/>
      <point x="410" y="431" type="curve"/>
      <point x="442" y="472" type="line"/>
      <point x="413" y="494" type="line"/>
      <point x="381" y="453" type="line"/>
      <point x="347" y="474"/>
      <point x="306" y="485"/>
      <point x="258" y="485" type="curve" smooth="yes"/>
      <point x="123" y="485"/>
      <point x="34" y="387"/>
      <point x="34" y="242" type="curve" smooth="yes"/>
      <point x="34" y="168"/>
      <point x="51" y="109"/>
      <point x="84" y="67" type="curve"/>
      <point x="37" y="6" type="line"/>
    </contour>
    <contour>
      <point x="388" y="241" type="curve" smooth="yes"/>
      <point x="388" y="78"/>
      <point x="343" y="30"/>
      <point x="262" y="30" type="curve" smooth="yes"/>
      <point x="213" y="30"/>
      <point x="176" y="51"/>
      <point x="153" y="98" type="curve"/>
      <point x="364" y="371" type="line"/>
      <point x="380" y="337"/>
      <point x="388" y="292"/>
    </contour>
    <contour>
      <point x="254" y="447" type="curve" smooth="yes"/>
      <point x="292" y="447"/>
      <point x="322" y="431"/>
      <point x="344" y="404" type="curve"/>
      <point x="139" y="139" type="line"/>
      <point x="131" y="170"/>
      <point x="127" y="209"/>
      <point x="127" y="255" type="curve" smooth="yes"/>
      <point x="127" y="383"/>
      <point x="178" y="447"/>
    </contour>
  </outline>
</glyph>
<glyph name="aogonek" format="2">
  <advance width="480"/>
  <unicode hex="0105"/>
  <outline>
    <contour>
      <point x="308" y="62" type="line"/>
      <point x="313" y="21"/>
      <point x="322" y="0"/>
      <point x="358" y="-3" type="curve"/>
      <point x="358" y="-5" type="line"/>
      <point x="320" y="-35"/>
      <point x="266" y="-80"/>
      <point x="266" y="-134" type="curve" smooth="yes"/>
      <point x="266" y="-184"/>
      <point x="303" y="-216"/>
      <point x="356" y="-216" type="curve" smooth="yes"/>
      <point x="415" y="-216"/>
      <point x="445" y="-190"/>
      <point x="483" y="-151" type="curve"/>
      <point x="469" y="-134" type="line"/>
      <point x="439" y="-156"/>
      <point x="422" y="-165"/>
      <point x="385" y="-165" type="curve" smooth="yes"/>
      <point x="353" y="-165"/>
      <point x="334" y="-147"/>
      <point x="334" y="-110" type="curve" smooth="yes"/>
      <point x="334" y="-57"/>
      <point x="377" y="-21"/>
      <point x="415" y="3" type="curve"/>
      <point x="437" y="13"/>
      <point x="454" y="33"/>
      <point x="476" y="64" type="curve"/>
      <point x="461" y="80" type="line"/>
      <point x="447" y="65"/>
      <point x="433" y="55"/>
      <point x="414" y="55" type="curve" smooth="yes"/>
      <point x="393" y="55"/>
      <point x="384" y="63"/>
      <point x="384" y="104" type="curve" smooth="yes"/>
      <point x="384" y="331" type="line" smooth="yes"/>
      <point x="384" y="435"/>
      <point x="343" y="485"/>
      <point x="234" y="485" type="curve" smooth="yes"/>
      <point x="125" y="485"/>
      <point x="58" y="431"/>
      <point x="58" y="375" type="curve" smooth="yes"/>
      <point x="58" y="342"/>
      <point x="80" y="327"/>
      <point x="100" y="327" type="curve" smooth="yes"/>
      <point x="128" y="327"/>
      <point x="144" y="342"/>
      <point x="144" y="373" type="curve" smooth="yes"/>
      <point x="144" y="433"/>
      <point x="154" y="454"/>
      <point x="211" y="454" type="curve" smooth="yes"/>
      <point x="271" y="454"/>
      <point x="301" y="421"/>
      <point x="301" y="334" type="curve" smooth="yes"/>
      <point x="301" y="290" type="line"/>
      <point x="215" y="263"/>
      <point x="38" y="237"/>
      <point x="38" y="105" type="curve" smooth="yes"/>
      <point x="38" y="41"/>
      <point x="80" y="-7"/>
      <point x="157" y="-7" type="curve" smooth="yes"/>
      <point x="221" y="-7"/>
      <point x="257" y="21"/>
      <point x="304" y="62" type="curve"/>
    </contour>
    <contour>
      <point x="301" y="92" type="line"/>
      <point x="267" y="64"/>
      <point x="231" y="48"/>
      <point x="198" y="48" type="curve" smooth="yes"/>
      <point x="155" y="48"/>
      <point x="126" y="79"/>
      <point x="126" y="129" type="curve" smooth="yes"/>
      <point x="126" y="207"/>
      <point x="210" y="234"/>
      <point x="301" y="257" type="curve"/>
    </contour>
  </outline>
</glyph>
<glyph name="Hbar" format="2">
  <advance width="788"/>
  <unicode hex="0126"/>
  <outline>
    <contour>
      <point x="230" y="525" type="line" smooth="yes"/>
      <point x="230" y="603"/>
      <point x="233" y="627"/>
      <point x="328" y="627" type="curve"/>
      <point x="328" y="657" type="line"/>
      <point x="41" y="657" type="line"/>
      <point x="41" y="627" type="line"/>
      <point x="133" y="627"/>
      <point x="138" y="603"/>
      <point x="138" y="525" type="curve" smooth="yes"/>
      <point x="138" y="495" type="line"/>
      <point x="41" y="495" type="line"/>
      <point x="41" y="456" type="line"/>
      <point x="138" y="456" type="line"/>
      <point x="138" y="131" type="line" smooth="yes"/>
      <point x="138" y="42"/>
      <point x="131" y="30"/>
      <point x="41" y="30" type="curve"/>
      <point x="41" y="0" type="line"/>
      <point x="328" y="0" type="line"/>
      <point x="328" y="30" type="line"/>
      <point x="238" y="30"/>
      <point x="230" y="43"/>
      <point x="230" y="131" type="curve" smooth="yes"/>
      <point x="230" y="314" type="line"/>
      <point x="558" y="314" type="line"/>
      <point x="558" y="131" type="line" smooth="yes"/>
      <point x="558" y="44"/>
      <point x="550" y="30"/>
      <point x="461" y="30" type="curve"/>
      <point x="461" y="0" type="line"/>
      <point x="748" y="0" type="line"/>
      <point x="748" y="30" type="line"/>
      <point x="657" y="30"/>
      <point x="650" y="44"/>
      <point x="650" y="131" type="curve" smooth="yes"/>
      <point x="650" y="456" type="line"/>
      <point x="747" y="456" type="line"/>
      <point x="747" y="495" type="line"/>
      <point x="650" y="495" type="line"/>
      <point x="650" y="525" type="line" smooth="yes"/>
      <point x="650" y="604"/>
      <point x="652" y="627"/>
      <point x="748" y="627" type="curve"/>
      <point x="748" y="657" type="line"/>
      <point x="461" y="657" type="line"/>
      <point x="461" y="627" type="line"/>
      <point x="553" y="627"/>
      <point x="558" y="603"/>
      <point x="558" y="525" type="curve" smooth="yes"/>
      <point x="558" y="495" type="line"/>
      <point x="230" y="495" type="line"/>
    </contour>
    <contour>
      <point x="230" y="353" type="line"/>
      <point x="230" y="456" type="line"/>
      <point x="558" y="456" type="line"/>
      <point x="558" y="353" type="line"/>
    </contour>
  </outline>
</glyph>
<glyph name="itilde" format="2">
  <advance width="285"/>
  <unicode hex="0129"/>
  <outline>
    <contour>
      <point x="250" y="642" type="line"/>
      <point x="239" y="604"/>
      <point x="219" y="595"/>
      <point x="198" y="595" type="curve" smooth="yes"/>
      <point x="155" y="595"/>
      <point x="128" y="638"/>
      <point x="76" y="638" type="curve" smooth="yes"/>
      <point x="32" y="638"/>
      <point x="-4" y="600"/>
      <point x="-15" y="533" type="curve"/>
      <point x="12" y="533" type="line"/>
      <point x="21" y="569"/>
      <point x="40" y="579"/>
      <point x="62" y="579" type="curve" smooth="yes"/>
      <point x="106" y="579"/>
      <point x="132" y="536"/>
      <point x="182" y="536" type="curve" smooth="yes"/>
      <point x="232" y="536"/>
      <point x="263" y="565"/>
      <point x="277" y="642" type="curve"/>
    </contour>
    <contour>
      <point x="257" y="28" type="line"/>
      <point x="190" y="28"/>
      <point x="185" y="43"/>
      <point x="185" y="101" type="curve" smooth="yes"/>
      <point x="185" y="482" type="line"/>
      <point x="159" y="482" type="line"/>
      <point x="33" y="454" type="line"/>
      <point x="33" y="425" type="line"/>
      <point x="33" y="425"/>
      <point x="44" y="427"/>
      <point x="58" y="427" type="curve" smooth="yes"/>
      <point x="87" y="427"/>
      <point x="102" y="423"/>
      <point x="102" y="380" type="curve" smooth="yes"/>
      <point x="102" y="101" type="line" smooth="yes"/>
      <point x="102" y="44"/>
      <point x="99" y="28"/>
      <point x="32" y="28" type="curve"/>
      <point x="32" y="0" type="line"/>
      <point x="257" y="0" type="line"/>
    </contour>
  </outline>
</glyph>
<glyph name="Iogonek" format="2">
  <advance width="357"/>
  <unicode hex="012E"/>
  <outline>
    <contour>
      <point x="288" y="-134" type="line"/>
      <point x="259" y="-156"/>
      <point x="241" y="-165"/>
      <point x="204" y="-165" type="curve" smooth="yes"/>
      <point x="173" y="-165"/>
      <point x="153" y="-147"/>
      <point x="153" y="-110" type="curve" smooth="yes"/>
      <point x="153" y="-58"/>
      <point x="194" y="-26"/>
      <point x="229" y="0" type="curve"/>
      <point x="322" y="0" type="line"/>
      <point x="322" y="30" type="line"/>
      <point x="234" y="30"/>
      <point x="224" y="47"/>
      <point x="224" y="131" type="curve" smooth="yes"/>
      <point x="224" y="525" type="line" smooth="yes"/>
      <point x="224" y="603"/>
      <point x="227" y="627"/>
      <point x="322" y="627" type="curve"/>
      <point x="322" y="657" type="line"/>
      <point x="34" y="657" type="line"/>
      <point x="34" y="627" type="line"/>
      <point x="129" y="627"/>
      <point x="133" y="603"/>
      <point x="133" y="525" type="curve" smooth="yes"/>
      <point x="133" y="131" type="line" smooth="yes"/>
      <point x="133" y="43"/>
      <point x="125" y="30"/>
      <point x="34" y="30" type="curve"/>
      <point x="34" y="0" type="line"/>
      <point x="183" y="0" type="line"/>
      <point x="183" y="-2" type="line"/>
      <point x="145" y="-31"/>
      <point x="86" y="-76"/>
      <point x="86" y="-134" type="curve" smooth="yes"/>
      <point x="86" y="-184"/>
      <point x="122" y="-216"/>
      <point x="175" y="-216" type="curve" smooth="yes"/>
      <point x="234" y="-216"/>
      <point x="264" y="-190"/>
      <point x="302" y="-151" type="curve"/>
    </contour>
  </outline>
</glyph>
<glyph name="Lslash" format="2">
  <advance width="590"/>
  <unicode hex="0141"/>
  <outline>
    <contour>
      <point x="407" y="445" type="line"/>
      <point x="389" y="476" type="line"/>
      <point x="230" y="381" type="line"/>
      <point x="230" y="529" type="line" smooth="yes"/>
      <point x="230" y="607"/>
      <point x="247" y="627"/>
      <point x="329" y="627" type="curve"/>
      <point x="329" y="657" type="line"/>
      <point x="48" y="657" type="line"/>
      <point x="48" y="627" type="line"/>
      <point x="127" y="627"/>
      <point x="138" y="607"/>
      <point x="138" y="530" type="curve" smooth="yes"/>
      <point x="138" y="326" type="line"/>
      <point x="31" y="262" type="line"/>
      <point x="49" y="229" type="line"/>
      <point x="138" y="282" type="line"/>
      <point x="138" y="123" type="line" smooth="yes"/>
      <point x="138" y="45"/>
      <point x="127" y="30"/>
      <point x="48" y="30" type="curve"/>
      <point x="48" y="0" type="line"/>
      <point x="543" y="0" type="line"/>
      <point x="573" y="195" type="line"/>
      <point x="541" y="195" type="line"/>
      <point x="503" y="79"/>
      <point x="487" y="42"/>
      <point x="353" y="42" type="curve" smooth="yes"/>
      <point x="306" y="42" type="line" smooth="yes"/>
      <point x="247" y="42"/>
      <point x="230" y="51"/>
      <point x="230" y="95" type="curve" smooth="yes"/>
      <point x="230" y="338" type="line"/>
    </contour>
  </outline>
</glyph>
<glyph name="oe" format="2">
  <advance width="807"/>
  <unicode hex="0153"/>
  <outline>
    <contour>
      <point x="757" y="143" type="line"/>
      <point x="726" y="101"/>
      <point x="696" y="65"/>
      <point x="616" y="65" type="curve" smooth="yes"/>
      <point x="539" y="65"/>
      <point x="465" y="128"/>
      <point x="465" y="266" type="curve"/>
      <point x="774" y="266" type="line"/>
      <point x="769" y="406"/>
      <point x="697" y="485"/>
      <point x="591" y="485" type="curve" smooth="yes"/>
      <point x="523" y="485"/>
      <point x="467" y="455"/>
      <point x="429" y="396" type="curve"/>
      <point x="425" y="396" type="line"/>
      <point x="386" y="452"/>
      <point x="326" y="485"/>
      <point x="254" y="485" type="curve" smooth="yes"/>
      <point x="121" y="485"/>
      <point x="34" y="387"/>
      <point x="34" y="242" type="curve" smooth="yes"/>
      <point x="34" y="80"/>
      <point x="119" y="-10"/>
      <point x="254" y="-10" type="curve" smooth="yes"/>
      <point x="325" y="-10"/>
      <point x="388" y="28"/>
      <point x="426" y="80" type="curve"/>
      <point x="429" y="80" type="line"/>
      <point x="466" y="18"/>
      <point x="523" y="-10"/>
      <point x="593" y="-10" type="curve" smooth="yes"/>
      <point x="693" y="-10"/>
      <point x="741" y="53"/>
      <point x="777" y="129" type="curve"/>
    </contour>
    <contour>
      <point x="251" y="447" type="curve" smooth="yes"/>
      <point x="338" y="447"/>
      <point x="381" y="370"/>
      <point x="381" y="241" type="curve" smooth="yes"/>
      <point x="381" y="82"/>
      <point x="338" y="30"/>
      <point x="260" y="29" type="curve"/>
      <point x="175" y="29"/>
      <point x="127" y="97"/>
      <point x="127" y="252" type="curve" smooth="yes"/>
      <point x="127" y="383"/>
      <point x="177" y="447"/>
    </contour>
    <contour>
      <point x="464" y="303" type="line"/>
      <point x="472" y="396"/>
      <point x="509" y="445"/>
      <point x="576" y="445" type="curve" smooth="yes"/>
      <point x="644" y="445"/>
      <point x="677" y="377"/>
      <point x="680" y="303" type="curve"/>
    </contour>
  </outline>
</glyph>
<glyph name="Uogonek" format="2">
  <advance width="753"/>
  <unicode hex="0172"/>
  <outline>
    <contour>
      <point x="534" y="-134" type="line"/>
      <point x="504" y="-156"/>
      <point x="487" y="-165"/>
      <point x="450" y="-165" type="curve" smooth="yes"/>
      <point x="418" y="-165"/>
      <point x="399" y="-147"/>
      <point x="399" y="-110" type="curve" smooth="yes"/>
      <point x="399" y="-59"/>
      <point x="442" y="-15"/>
      <point x="475" y="-1" type="curve"/>
      <point x="592" y="32"/>
      <point x="640" y="116"/>
      <point x="640" y="261" type="curve" smooth="yes"/>
      <point x="640" y="502" type="line" smooth="yes"/>
      <point x="640" y="605"/>
      <point x="648" y="627"/>
      <point x="734" y="627" type="curve"/>
      <point x="734" y="657" type="line"/>
      <point x="489" y="657" type="line"/>
      <point x="489" y="627" type="line"/>
      <point x="573" y="627"/>
      <point x="583" y="604"/>
      <point x="583" y="499" type="curve" smooth="yes"/>
      <point x="583" y="247" type="line" smooth="yes"/>
      <point x="583" y="109"/>
      <point x="529" y="51"/>
      <point x="398" y="51" type="curve" smooth="yes"/>
      <point x="255" y="51"/>
      <point x="210" y="121"/>
      <point x="210" y="251" type="curve" smooth="yes"/>
      <point x="210" y="534" type="line" smooth="yes"/>
      <point x="210" y="609"/>
      <point x="223" y="627"/>
      <point x="308" y="627" type="curve"/>
      <point x="308" y="657" type="line"/>
      <point x="20" y="657" type="line"/>
      <point x="20" y="627" type="line"/>
      <point x="99" y="627"/>
      <point x="118" y="609"/>
      <point x="118" y="539" type="curve" smooth="yes"/>
      <point x="118" y="250" type="line" smooth="yes"/>
      <point x="118" y="64"/>
      <point x="196" y="-12"/>
      <point x="373" y="-12" type="curve" smooth="yes"/>
      <point x="388" y="-12"/>
      <point x="402" y="-11"/>
      <point x="415" y="-10" type="curve"/>
      <point x="415" y="-14" type="line"/>
      <point x="378" y="-43"/>
      <point x="331" y="-84"/>
      <point x="331" y="-134" type="curve" smooth="yes"/>
      <point x="331" y="-184"/>
      <point x="368" y="-216"/>
      <point x="421" y="-216" type="curve" smooth="yes"/>
      <point x="480" y="-216"/>
      <point x="510" y="-190"/>
      <point x="548" y="-151" type="curve"/>
    </contour>
  </outline>
</glyph>
<glyph name="chook" format="2">
  <advance width="446"/>
  <unicode hex="0188"/>
  <outline>
    <contour>
      <point x="408" y="148" type="line"/>
      <point x="363" y="90"/>
      <point x="329" y="65"/>
      <point x="264" y="65" type="curve" smooth="yes"/>
      <point x="161" y="65"/>
      <point x="112" y="151"/>
      <point x="112" y="273" type="curve" smooth="yes"/>
      <point x="112" y="388"/>
      <point x="161" y="448"/>
      <point x="242" y="448" type="curve" smooth="yes"/>
      <point x="328" y="448"/>
      <point x="295" y="334"/>
      <point x="369" y="334" type="curve" smooth="yes"/>
      <point x="397" y="334"/>
      <point x="411" y="350"/>
      <point x="411" y="379" type="curve" smooth="yes"/>
      <point x="411" y="408"/>
      <point x="395" y="436"/>
      <point x="368" y="455" type="curve"/>
      <point x="368" y="504" type="line" smooth="yes"/>
      <point x="368" y="600"/>
      <point x="397" y="629"/>
      <point x="427" y="629" type="curve" smooth="yes"/>
      <point x="462" y="629"/>
      <point x="458" y="562"/>
      <point x="503" y="562" type="curve" smooth="yes"/>
      <point x="520" y="562"/>
      <point x="535" y="574"/>
      <point x="535" y="599" type="curve" smooth="yes"/>
      <point x="535" y="637"/>
      <point x="507" y="666"/>
      <point x="451" y="666" type="curve" smooth="yes"/>
      <point x="345" y="666"/>
      <point x="326" y="571"/>
      <point x="324" y="475" type="curve"/>
      <point x="305" y="482"/>
      <point x="282" y="485"/>
      <point x="259" y="485" type="curve" smooth="yes"/>
      <point x="115" y="485"/>
      <point x="33" y="383"/>
      <point x="33" y="226" type="curve" smooth="yes"/>
      <point x="33" y="87"/>
      <point x="108" y="-10"/>
      <point x="233" y="-10" type="curve" smooth="yes"/>
      <point x="340" y="-10"/>
      <point x="389" y="53"/>
      <point x="427" y="134" type="curve"/>
    </contour>
  </outline>
</glyph>
<glyph name="ohorn" format="2">
  <advance width="516"/>
  <unicode hex="01A1"/>
  <outline>
    <contour>
      <point x="257" y="485" type="curve" smooth="yes"/>
      <point x="122" y="485"/>
      <point x="34" y="387"/>
      <point x="34" y="242" type="curve" smooth="yes"/>
      <point x="34" y="80"/>
      <point x="118" y="-10"/>
      <point x="258" y="-10" type="curve" smooth="yes"/>
      <point x="388" y="-10"/>
      <point x="480" y="78"/>
      <point x="480" y="246" type="curve" smooth="yes"/>
      <point x="480" y="333"/>
      <point x="443" y="400"/>
      <point x="398" y="441" type="curve"/>
      <point x="398" y="445" type="line"/>
      <point x="474" y="453"/>
      <point x="507" y="504"/>
      <point x="507" y="560" type="curve" smooth="yes"/>
      <point x="507" y="608"/>
      <point x="482" y="628"/>
      <point x="456" y="628" type="curve" smooth="yes"/>
      <point x="436" y="628"/>
      <point x="415" y="615"/>
      <point x="415" y="589" type="curve" smooth="yes"/>
      <point x="415" y="560"/>
      <point x="446" y="541"/>
      <point x="446" y="507" type="curve" smooth="yes"/>
      <point x="446" y="481"/>
      <point x="420" y="469"/>
      <point x="376" y="469" type="curve" smooth="yes"/>
      <point x="366" y="469"/>
      <point x="354" y="472"/>
      <point x="345" y="474" type="curve" smooth="yes"/>
      <point x="329" y="478"/>
      <point x="294" y="485"/>
    </contour>
    <contour>
      <point x="254" y="447" type="curve" smooth="yes"/>
      <point x="343" y="447"/>
      <point x="388" y="364"/>
      <point x="388" y="241" type="curve" smooth="yes"/>
      <point x="388" y="78"/>
      <point x="344" y="30"/>
      <point x="262" y="30" type="curve" smooth="yes"/>
      <point x="176" y="29"/>
      <point x="127" y="96"/>
      <point x="127" y="255" type="curve" smooth="yes"/>
      <point x="127" y="383"/>
      <point x="178" y="447"/>
    </contour>
  </outline>
</glyph>
<glyph name="phook" format="2">
  <advance width="522"/>
  <unicode hex="01A5"/>
  <outline>
    <contour>
      <point x="163" y="580" type="line"/>
      <point x="164" y="650"/>
      <point x="185" y="675"/>
      <point x="227" y="675" type="curve" smooth="yes"/>
      <point x="289" y="675"/>
      <point x="297" y="599"/>
      <point x="350" y="599" type="curve" smooth="yes"/>
      <point x="374" y="599"/>
      <point x="392" y="613"/>
      <point x="392" y="643" type="curve" smooth="yes"/>
      <point x="392" y="687"/>
      <point x="340" y="713"/>
      <point x="267" y="713" type="curve" smooth="yes"/>
      <point x="130" y="713"/>
      <point x="80" y="615"/>
      <point x="80" y="484" type="curve" smooth="yes"/>
      <point x="80" y="-119" type="line" smooth="yes"/>
      <point x="80" y="-175"/>
      <point x="70" y="-192"/>
      <point x="7" y="-192" type="curve"/>
      <point x="7" y="-220" type="line"/>
      <point x="260" y="-220" type="line"/>
      <point x="260" y="-191" type="line"/>
      <point x="182" y="-191"/>
      <point x="163" y="-178"/>
      <point x="163" y="-113" type="curve" smooth="yes"/>
      <point x="163" y="18" type="line"/>
      <point x="193" y="6"/>
      <point x="228" y="-10"/>
      <point x="268" y="-10" type="curve" smooth="yes"/>
      <point x="388" y="-10"/>
      <point x="487" y="91"/>
      <point x="487" y="261" type="curve" smooth="yes"/>
      <point x="487" y="392"/>
      <point x="418" y="485"/>
      <point x="319" y="485" type="curve" smooth="yes"/>
      <point x="260" y="485"/>
      <point x="214" y="456"/>
      <point x="167" y="400" type="curve"/>
      <point x="163" y="400" type="line"/>
    </contour>
    <contour>
      <point x="163" y="356" type="line"/>
      <point x="182" y="381"/>
      <point x="225" y="417"/>
      <point x="278" y="417" type="curve" smooth="yes"/>
      <point x="352" y="417"/>
      <point x="396" y="358"/>
      <point x="396" y="233" type="curve" smooth="yes"/>
      <point x="396" y="94"/>
      <point x="343" y="29"/>
      <point x="273" y="29" type="curve" smooth="yes"/>
      <point x="217" y="29"/>
      <point x="182" y="74"/>
      <point x="163" y="95" type="curve"/>
    </contour>
  </outline>
</glyph>
<glyph name="thook" format="2">
  <advance width="315"/>
  <unicode hex="01AD"/>
  <outline>
    <contour>
      <point x="293" y="90" type="line"/>
      <point x="268" y="62"/>
      <point x="255" y="49"/>
      <point x="223" y="49" type="curve" smooth="yes"/>
      <point x="184" y="49"/>
      <point x="175" y="73"/>
      <point x="175" y="144" type="curve" smooth="yes"/>
      <point x="175" y="426" type="line"/>
      <point x="288" y="426" type="line"/>
      <point x="288" y="468" type="line"/>
      <point x="175" y="468" type="line"/>
      <point x="175" y="581" type="line"/>
      <point x="176" y="650"/>
      <point x="197" y="676"/>
      <point x="239" y="676" type="curve" smooth="yes"/>
      <point x="302" y="676"/>
      <point x="309" y="600"/>
      <point x="362" y="600" type="curve" smooth="yes"/>
      <point x="386" y="600"/>
      <point x="405" y="614"/>
      <point x="405" y="643" type="curve" smooth="yes"/>
      <point x="405" y="688"/>
      <point x="352" y="713"/>
      <point x="280" y="713" type="curve" smooth="yes"/>
      <point x="202" y="713"/>
      <point x="158" y="686"/>
      <point x="129" y="639" type="curve" smooth="yes"/>
      <point x="105" y="601"/>
      <point x="96" y="563"/>
      <point x="93" y="508" type="curve"/>
      <point x="76" y="486"/>
      <point x="58" y="464"/>
      <point x="37" y="449" type="curve"/>
      <point x="37" y="426" type="line"/>
      <point x="92" y="426" type="line"/>
      <point x="92" y="116" type="line" smooth="yes"/>
      <point x="92" y="26"/>
      <point x="121" y="-10"/>
      <point x="188" y="-10" type="curve" smooth="yes"/>
      <point x="252" y="-10"/>
      <point x="273" y="20"/>
      <point x="312" y="74" type="curve"/>
    </contour>
  </outline>
</glyph>
<glyph name="Uhorn" format="2">
  <advance width="762"/>
  <unicode hex="01AF"/>
  <outline>
    <contour>
      <point x="489" y="627" type="line"/>
      <point x="573" y="627"/>
      <point x="583" y="604"/>
      <point x="583" y="499" type="curve" smooth="yes"/>
      <point x="583" y="247" type="line" smooth="yes"/>
      <point x="583" y="109"/>
      <point x="530" y="51"/>
      <point x="392" y="51" type="curve" smooth="yes"/>
      <point x="255" y="51"/>
      <point x="210" y="121"/>
      <point x="210" y="251" type="curve" smooth="yes"/>
      <point x="210" y="534" type="line" smooth="yes"/>
      <point x="210" y="609"/>
      <point x="223" y="627"/>
      <point x="308" y="627" type="curve"/>
      <point x="308" y="657" type="line"/>
      <point x="20" y="657" type="line"/>
      <point x="20" y="627" type="line"/>
      <point x="99" y="627"/>
      <point x="118" y="609"/>
      <point x="118" y="539" type="curve" smooth="yes"/>
      <point x="118" y="250" type="line" smooth="yes"/>
      <point x="118" y="64"/>
      <point x="196" y="-12"/>
      <point x="373" y="-12" type="curve" smooth="yes"/>
      <point x="562" y="-12"/>
      <point x="640" y="79"/>
      <point x="640" y="261" type="curve" smooth="yes"/>
      <point x="640" y="494" type="line" smooth="yes"/>
      <point x="640" y="604"/>
      <point x="649" y="613"/>
      <point x="726" y="631" type="curve" smooth="yes"/>
      <point x="803" y="649"/>
      <point x="824" y="722"/>
      <point x="824" y="756" type="curve" smooth="yes"/>
      <point x="824" y="807"/>
      <point x="793" y="830"/>
      <point x="763" y="830" type="curve" smooth="yes"/>
      <point x="736" y="830"/>
      <point x="720" y="810"/>
      <point x="720" y="790" type="curve" smooth="yes"/>
      <point x="720" y="758"/>
      <point x="753" y="718"/>
      <point x="753" y="693" type="curve" smooth="yes"/>
      <point x="753" y="674"/>
      <point x="741" y="657"/>
      <point x="682" y="657" type="curve" smooth="yes"/>
      <point x="489" y="657" type="line"/>
    </contour>
  </outline>
</glyph>
<glyph name="Zbar" format="2">
  <advance width="594"/>
  <unicode hex="01B5"/>
  <outline>
    <contour>
      <point x="568" y="186" type="line"/>
      <point x="537" y="186" type="line"/>
      <point x="504" y="75"/>
      <point x="479" y="44"/>
      <point x="365" y="44" type="curve" smooth="yes"/>
      <point x="156" y="44" type="line"/>
      <point x="156" y="50" type="line"/>
      <point x="349" y="327" type="line"/>
      <point x="488" y="327" type="line"/>
      <point x="488" y="366" type="line"/>
      <point x="376" y="366" type="line"/>
      <point x="561" y="629" type="line"/>
      <point x="561" y="657" type="line"/>
      <point x="72" y="657" type="line"/>
      <point x="61" y="482" type="line"/>
      <point x="93" y="482" type="line"/>
      <point x="113" y="593"/>
      <point x="153" y="612"/>
      <point x="256" y="612" type="curve" smooth="yes"/>
      <point x="437" y="612" type="line"/>
      <point x="437" y="604" type="line"/>
      <point x="267" y="366" type="line"/>
      <point x="114" y="366" type="line"/>
      <point x="114" y="327" type="line"/>
      <point x="240" y="327" type="line"/>
      <point x="29" y="29" type="line"/>
      <point x="29" y="0" type="line"/>
      <point x="539" y="0" type="line"/>
    </contour>
  </outline>
</glyph>
<glyph name="clickdental" format="2">
  <advance width="250"/>
  <unicode hex="01C0"/>
  <outline>
    <contour>
      <point x="165" y="706" type="line"/>
      <point x="85" y="706" type="line"/>
      <point x="85" y="0" type="line"/>
      <point x="165" y="0" type="line"/>
    </contour>
  </outline>
</glyph>
<glyph name="clickalveolar" format="2">
  <advance width="422"/>
  <unicode hex="01C2"/>
  <outline>
    <contour>
      <point x="381" y="289" type="line"/>
      <point x="381" y="333" type="line"/>
      <point x="251" y="333" type="line"/>
      <point x="251" y="425" type="line"/>
      <point x="381" y="425" type="line"/>
      <point x="381" y="468" type="line"/>
      <point x="251" y="468" type="line"/>
      <point x="251" y="706" type="line"/>
      <point x="171" y="706" type="line"/>
      <point x="171" y="468" type="line"/>
      <point x="41" y="468" type="line"/>
      <point x="41" y="425" type="line"/>
      <point x="171" y="425" type="line"/>
      <point x="171" y="333" type="line"/>
      <point x="41" y="333" type="line"/>
      <point x="41" y="289" type="line"/>
      <point x="171" y="289" type="line"/>
      <point x="171" y="0" type="line"/>
      <point x="251" y="0" type="line"/>
      <point x="251" y="289" type="line"/>
    </contour>
  </outline>
</glyph>
<glyph name="dcurl" format="2">
  <advance width="674"/>
  <unicode hex="0221"/>
  <outline>
    <contour>
      <point x="443" y="706" type="line"/>
      <point x="416" y="706" type="line"/>
      <point x="290" y="671" type="line"/>
      <point x="290" y="643" type="line"/>
      <point x="290" y="643"/>
      <point x="307" y="645"/>
      <point x="316" y="645" type="curve" smooth="yes"/>
      <point x="355" y="645"/>
      <point x="360" y="636"/>
      <point x="360" y="592" type="curve" smooth="yes"/>
      <point x="360" y="461" type="line"/>
      <point x="329" y="478"/>
      <point x="296" y="485"/>
      <point x="263" y="485" type="curve" smooth="yes"/>
      <point x="137" y="485"/>
      <point x="33" y="384"/>
      <point x="33" y="219" type="curve" smooth="yes"/>
      <point x="33" y="91"/>
      <point x="91" y="-8"/>
      <point x="204" y="-8" type="curve" smooth="yes"/>
      <point x="270" y="-8"/>
      <point x="321" y="30"/>
      <point x="359" y="64" type="curve"/>
      <point x="363" y="64" type="line"/>
      <point x="372" y="21"/>
      <point x="405" y="2"/>
      <point x="435" y="-4" type="curve"/>
      <point x="435" y="-6" type="line"/>
      <point x="407" y="-55"/>
      <point x="385" y="-89"/>
      <point x="360" y="-139" type="curve"/>
      <point x="393" y="-154" type="line"/>
      <point x="419" y="-101"/>
      <point x="444" y="-57"/>
      <point x="473" y="-9" type="curve"/>
      <point x="483" y="-10"/>
      <point x="497" y="-11"/>
      <point x="503" y="-11" type="curve" smooth="yes"/>
      <point x="597" y="-11"/>
      <point x="679" y="21"/>
      <point x="679" y="93" type="curve" smooth="yes"/>
      <point x="679" y="135"/>
      <point x="652" y="163"/>
      <point x="608" y="163" type="curve" smooth="yes"/>
      <point x="547" y="163"/>
      <point x="505" y="107"/>
      <point x="461" y="35" type="curve"/>
      <point x="458" y="35" type="line"/>
      <point x="444" y="50"/>
      <point x="443" y="67"/>
      <point x="443" y="125" type="curve" smooth="yes"/>
    </contour>
    <contour>
      <point x="360" y="101" type="line"/>
      <point x="325" y="77"/>
      <point x="298" y="64"/>
      <point x="251" y="64" type="curve" smooth="yes"/>
      <point x="166" y="64"/>
      <point x="120" y="120"/>
      <point x="120" y="258" type="curve" smooth="yes"/>
      <point x="120" y="384"/>
      <point x="177" y="445"/>
      <point x="261" y="445" type="curve" smooth="yes"/>
      <point x="323" y="445"/>
      <point x="352" y="406"/>
      <point x="360" y="365" type="curve"/>
    </contour>
    <contour>
      <point x="490" y="22" type="curve"/>
      <point x="512" y="62"/>
      <point x="552" y="131"/>
      <point x="604" y="131" type="curve" smooth="yes"/>
      <point x="625" y="131"/>
      <point x="643" y="119"/>
      <point x="643" y="91" type="curve" smooth="yes"/>
      <point x="643" y="41"/>
      <point x="570" y="20"/>
      <point x="513" y="20" type="curve" smooth="yes"/>
      <point x="505" y="20"/>
      <point x="497" y="21"/>
    </contour>
  </outline>
</glyph>
<glyph name="ncurl" format="2">
  <advance width="702"/>
  <unicode hex="0235"/>
  <outline>
    <contour>
      <point x="185" y="101" type="curve"/>
      <point x="185" y="358" type="line"/>
      <point x="214" y="385"/>
      <point x="249" y="421"/>
      <point x="300" y="421" type="curve" smooth="yes"/>
      <point x="343" y="421"/>
      <point x="388" y="402"/>
      <point x="388" y="282" type="curve" smooth="yes"/>
      <point x="388" y="101" type="line" smooth="yes"/>
      <point x="388" y="16"/>
      <point x="433" y="0"/>
      <point x="463" y="-6" type="curve"/>
      <point x="463" y="-8" type="line"/>
      <point x="435" y="-57"/>
      <point x="413" y="-91"/>
      <point x="388" y="-141" type="curve"/>
      <point x="421" y="-156" type="line"/>
      <point x="447" y="-103"/>
      <point x="472" y="-59"/>
      <point x="501" y="-11" type="curve"/>
      <point x="511" y="-12"/>
      <point x="525" y="-13"/>
      <point x="531" y="-13" type="curve" smooth="yes"/>
      <point x="625" y="-13"/>
      <point x="707" y="19"/>
      <point x="707" y="91" type="curve" smooth="yes"/>
      <point x="707" y="133"/>
      <point x="680" y="161"/>
      <point x="636" y="161" type="curve" smooth="yes"/>
      <point x="575" y="161"/>
      <point x="533" y="105"/>
      <point x="489" y="33" type="curve"/>
      <point x="486" y="33" type="line"/>
      <point x="472" y="48"/>
      <point x="471" y="65"/>
      <point x="471" y="123" type="curve" smooth="yes"/>
      <point x="471" y="307" type="line" smooth="yes"/>
      <point x="471" y="422"/>
      <point x="429" y="485"/>
      <point x="342" y="485" type="curve" smooth="yes"/>
      <point x="281" y="485"/>
      <point x="238" y="449"/>
      <point x="186" y="401" type="curve"/>
      <point x="182" y="401" type="line"/>
      <point x="183" y="482" type="line"/>
      <point x="160" y="482" type="line"/>
      <point x="33" y="453" type="line"/>
      <point x="33" y="424" type="line"/>
      <point x="33" y="424"/>
      <point x="43" y="426"/>
      <point x="60" y="426" type="curve" smooth="yes"/>
      <point x="87" y="426"/>
      <point x="102" y="418"/>
      <point x="102" y="382" type="curve" smooth="yes"/>
      <point x="102" y="101" type="line" smooth="yes"/>
      <point x="102" y="45"/>
      <point x="99" y="28"/>
      <point x="32" y="28" type="curve"/>
      <point x="32" y="0" type="line"/>
      <point x="261" y="0" type="line"/>
      <point x="261" y="28" type="line"/>
      <point x="189" y="28"/>
      <point x="185" y="45"/>
    </contour>
    <contour>
      <point x="520" y="20" type="curve"/>
      <point x="542" y="60"/>
      <point x="582" y="129"/>
      <point x="634" y="129" type="curve" smooth="yes"/>
      <point x="655" y="129"/>
      <point x="673" y="117"/>
      <point x="673" y="89" type="curve" smooth="yes"/>
      <point x="673" y="39"/>
      <point x="600" y="18"/>
      <point x="543" y="18" type="curve" smooth="yes"/>
      <point x="535" y="18"/>
      <point x="527" y="19"/>
    </contour>
  </outline>
</glyph>
<glyph name="alphaLatinturned" format="2">
  <advance width="544"/>
  <unicode hex="0252"/>
  <outline>
    <contour>
      <point x="29" y="457" type="line"/>
      <point x="29" y="430" type="line"/>
      <point x="50" y="430" type="line" smooth="yes"/>
      <point x="87" y="430"/>
      <point x="100" y="420"/>
      <point x="100" y="368" type="curve" smooth="yes"/>
      <point x="100" y="-6" type="line"/>
      <point x="123" y="-6" type="line"/>
      <point x="164" y="27" type="line"/>
      <point x="192" y="9"/>
      <point x="224" y="-10"/>
      <point x="280" y="-10" type="curve" smooth="yes"/>
      <point x="406" y="-10"/>
      <point x="509" y="91"/>
      <point x="509" y="256" type="curve" smooth="yes"/>
      <point x="509" y="384"/>
      <point x="452" y="483"/>
      <point x="339" y="483" type="curve" smooth="yes"/>
      <point x="273" y="483"/>
      <point x="222" y="445"/>
      <point x="184" y="411" type="curve"/>
      <point x="180" y="411" type="line"/>
      <point x="180" y="480" type="line"/>
      <point x="157" y="480" type="line"/>
    </contour>
    <contour>
      <point x="183" y="374" type="line"/>
      <point x="218" y="398"/>
      <point x="245" y="411"/>
      <point x="292" y="411" type="curve" smooth="yes"/>
      <point x="377" y="411"/>
      <point x="423" y="355"/>
      <point x="423" y="217" type="curve" smooth="yes"/>
      <point x="423" y="91"/>
      <point x="366" y="30"/>
      <point x="282" y="30" type="curve" smooth="yes"/>
      <point x="224" y="30"/>
      <point x="191" y="69"/>
      <point x="183" y="110" type="curve"/>
    </contour>
  </outline>
</glyph>
<glyph name="ccurl" format="2">
  <advance width="447"/>
  <unicode hex="0255"/>
  <outline>
    <contour>
      <point x="112" y="273" type="curve" smooth="yes"/>
      <point x="112" y="388"/>
      <point x="161" y="448"/>
      <point x="242" y="448" type="curve" smooth="yes"/>
      <point x="328" y="448"/>
      <point x="295" y="334"/>
      <point x="369" y="334" type="curve" smooth="yes"/>
      <point x="397" y="334"/>
      <point x="411" y="350"/>
      <point x="411" y="379" type="curve" smooth="yes"/>
      <point x="411" y="437"/>
      <point x="353" y="485"/>
      <point x="259" y="485" type="curve" smooth="yes"/>
      <point x="115" y="485"/>
      <point x="33" y="383"/>
      <point x="33" y="226" type="curve" smooth="yes"/>
      <point x="33" y="132"/>
      <point x="71" y="54"/>
      <point x="142" y="15" type="curve"/>
      <point x="125" y="-20"/>
      <point x="107" y="-62"/>
      <point x="90" y="-115" type="curve"/>
      <point x="126" y="-125" type="line"/>
      <point x="138" y="-88"/>
      <point x="153" y="-42"/>
      <point x="174" y="2" type="curve"/>
      <point x="196" y="-5"/>
      <point x="221" y="-10"/>
      <point x="249" y="-10" type="curve" smooth="yes"/>
      <point x="334" y="-10"/>
      <point x="414" y="15"/>
      <point x="414" y="98" type="curve" smooth="yes"/>
      <point x="414" y="153"/>
      <point x="371" y="176"/>
      <point x="326" y="176" type="curve" smooth="yes"/>
      <point x="287" y="176"/>
      <point x="237" y="167"/>
      <point x="181" y="84" type="curve"/>
      <point x="137" y="124"/>
      <point x="112" y="191"/>
    </contour>
    <contour>
      <point x="321" y="143" type="curve" smooth="yes"/>
      <point x="355" y="143"/>
      <point x="373" y="127"/>
      <point x="373" y="100" type="curve" smooth="yes"/>
      <point x="373" y="60"/>
      <point x="337" y="46"/>
      <point x="284" y="46" type="curve" smooth="yes"/>
      <point x="256" y="46"/>
      <point x="230" y="52"/>
      <point x="208" y="65" type="curve"/>
      <point x="238" y="110"/>
      <point x="275" y="143"/>
    </contour>
  </outline>
</glyph>
<glyph name="dhook" format="2">
  <advance width="542"/>
  <unicode hex="0257"/>
  <outline>
    <contour>
      <point x="442" y="573" type="line"/>
      <point x="443" y="645"/>
      <point x="462" y="676"/>
      <point x="507" y="676" type="curve" smooth="yes"/>
      <point x="560" y="676"/>
      <point x="556" y="600"/>
      <point x="608" y="600" type="curve" smooth="yes"/>
      <point x="630" y="600"/>
      <point x="648" y="614"/>
      <point x="648" y="643" type="curve" smooth="yes"/>
      <point x="648" y="688"/>
      <point x="600" y="713"/>
      <point x="532" y="713" type="curve" smooth="yes"/>
      <point x="396" y="713"/>
      <point x="359" y="602"/>
      <point x="359" y="484" type="curve" smooth="yes"/>
      <point x="359" y="461" type="line"/>
      <point x="328" y="478"/>
      <point x="295" y="485"/>
      <point x="262" y="485" type="curve" smooth="yes"/>
      <point x="136" y="485"/>
      <point x="33" y="384"/>
      <point x="33" y="219" type="curve" smooth="yes"/>
      <point x="33" y="91"/>
      <point x="91" y="-8"/>
      <point x="204" y="-8" type="curve" smooth="yes"/>
      <point x="270" y="-8"/>
      <point x="326" y="34"/>
      <point x="358" y="64" type="curve"/>
      <point x="362" y="64" type="line"/>
      <point x="362" y="-5" type="line"/>
      <point x="386" y="-5" type="line"/>
      <point x="519" y="18" type="line"/>
      <point x="519" y="45" type="line"/>
      <point x="492" y="45" type="line" smooth="yes"/>
      <point x="455" y="45"/>
      <point x="442" y="55"/>
      <point x="442" y="107" type="curve" smooth="yes"/>
    </contour>
    <contour>
      <point x="359" y="101" type="line"/>
      <point x="324" y="77"/>
      <point x="298" y="64"/>
      <point x="251" y="64" type="curve" smooth="yes"/>
      <point x="166" y="64"/>
      <point x="120" y="120"/>
      <point x="120" y="258" type="curve" smooth="yes"/>
      <point x="120" y="384"/>
      <point x="176" y="445"/>
      <point x="260" y="445" type="curve" smooth="yes"/>
      <point x="322" y="445"/>
      <point x="351" y="406"/>
      <point x="359" y="365" type="curve"/>
    </contour>
  </outline>
</glyph>
<glyph name="schwa" format="2">
  <advance width="464"/>
  <unicode hex="0259"/>
  <outline>
    <contour>
      <point x="49" y="332" type="line"/>
      <point x="81" y="374"/>
      <point x="112" y="410"/>
      <point x="193" y="410" type="curve" smooth="yes"/>
      <point x="273" y="410"/>
      <point x="349" y="347"/>
      <point x="349" y="209" type="curve"/>
      <point x="33" y="209" type="line"/>
      <point x="38" y="69"/>
      <point x="114" y="-10"/>
      <point x="223" y="-10" type="curve" smooth="yes"/>
      <point x="340" y="-10"/>
      <point x="430" y="75"/>
      <point x="430" y="237" type="curve" smooth="yes"/>
      <point x="430" y="398"/>
      <point x="337" y="485"/>
      <point x="217" y="485" type="curve" smooth="yes"/>
      <point x="114" y="485"/>
      <point x="66" y="422"/>
      <point x="30" y="346" type="curve"/>
    </contour>
    <contour>
      <point x="350" y="172" type="line"/>
      <point x="342" y="79"/>
      <point x="302" y="30"/>
      <point x="234" y="30" type="curve" smooth="yes"/>
      <point x="163" y="30"/>
      <point x="130" y="98"/>
      <point x="127" y="172" type="curve"/>
    </contour>
  </outline>
</glyph>
<glyph name="schwahook" format="2">
  <advance width="642"/>
  <unicode hex="025A"/>
  <outline>
    <contour>
      <point x="49" y="332" type="line"/>
      <point x="81" y="374"/>
      <point x="112" y="410"/>
      <point x="193" y="410" type="curve" smooth="yes"/>
      <point x="273" y="410"/>
      <point x="349" y="347"/>
      <point x="349" y="209" type="curve"/>
      <point x="33" y="209" type="line"/>
      <point x="38" y="69"/>
      <point x="114" y="-10"/>
      <point x="223" y="-10" type="curve" smooth="yes"/>
      <point x="340" y="-10"/>
      <point x="430" y="75"/>
      <point x="430" y="237" type="curve" smooth="yes"/>
      <point x="430" y="270"/>
      <point x="426" y="299"/>
      <point x="419" y="326" type="curve"/>
      <point x="466" y="353" type="line"/>
      <point x="468" y="352" type="line"/>
      <point x="468" y="303"/>
      <point x="495" y="261"/>
      <point x="547" y="261" type="curve" smooth="yes"/>
      <point x="606" y="261"/>
      <point x="637" y="302"/>
      <point x="637" y="350" type="curve" smooth="yes"/>
      <point x="637" y="359"/>
      <point x="636" y="371"/>
      <point x="632" y="385" type="curve"/>
      <point x="609" y="380" type="line"/>
      <point x="616" y="349"/>
      <point x="606" y="314"/>
      <point x="560" y="314" type="curve" smooth="yes"/>
      <point x="524" y="314"/>
      <point x="514" y="360"/>
      <point x="520" y="395" type="curve"/>
      <point x="505" y="406" type="line"/>
      <point x="411" y="351" type="line"/>
      <point x="378" y="438"/>
      <point x="304" y="485"/>
      <point x="217" y="485" type="curve" smooth="yes"/>
      <point x="114" y="485"/>
      <point x="66" y="422"/>
      <point x="30" y="346" type="curve"/>
    </contour>
    <contour>
      <point x="350" y="172" type="line"/>
      <point x="342" y="79"/>
      <point x="302" y="30"/>
      <point x="234" y="30" type="curve" smooth="yes"/>
      <point x="163" y="30"/>
      <point x="130" y="98"/>
      <point x="127" y="172" type="curve"/>
    </contour>
  </outline>
</glyph>
<glyph name="eopenreversed" format="2">
  <advance width="398"/>
  <unicode hex="025C"/>
  <outline>
    <contour>
      <point x="187" y="451" type="curve" smooth="yes"/>
      <point x="246" y="451"/>
      <point x="273" y="422"/>
      <point x="273" y="371" type="curve" smooth="yes"/>
      <point x="273" y="293"/>
      <point x="220" y="276"/>
      <point x="153" y="276" type="curve" smooth="yes"/>
      <point x="115" y="276" type="line"/>
      <point x="115" y="229" type="line"/>
      <point x="154" y="229" type="line" smooth="yes"/>
      <point x="241" y="229"/>
      <point x="276" y="197"/>
      <point x="276" y="127" type="curve" smooth="yes"/>
      <point x="276" y="62"/>
      <point x="236" y="45"/>
      <point x="171" y="45" type="curve" smooth="yes"/>
      <point x="114" y="45"/>
      <point x="68" y="61"/>
      <point x="33" y="100" type="curve"/>
      <point x="15" y="85" type="line"/>
      <point x="46" y="33"/>
      <point x="91" y="-10"/>
      <point x="177" y="-10" type="curve" smooth="yes"/>
      <point x="272" y="-10"/>
      <point x="363" y="25"/>
      <point x="363" y="127" type="curve" smooth="yes"/>
      <point x="363" y="207"/>
      <point x="296" y="244"/>
      <point x="246" y="253" type="curve"/>
      <point x="246" y="257" type="line"/>
      <point x="290" y="273"/>
      <point x="355" y="299"/>
      <point x="355" y="372" type="curve" smooth="yes"/>
      <point x="355" y="444"/>
      <point x="279" y="486"/>
      <point x="189" y="486" type="curve" smooth="yes"/>
      <point x="74" y="486"/>
      <point x="24" y="448"/>
      <point x="24" y="403" type="curve" smooth="yes"/>
      <point x="24" y="379"/>
      <point x="45" y="364"/>
      <point x="67" y="364" type="curve" smooth="yes"/>
      <point x="124" y="364"/>
      <point x="100" y="451"/>
    </contour>
  </outline>
</glyph>
<glyph name="eopenreversedhook" format="2">
  <advance width="575"/>
  <unicode hex="025D"/>
  <outline>
    <contour>
      <point x="187" y="451" type="curve" smooth="yes"/>
      <point x="246" y="451"/>
      <point x="273" y="422"/>
      <point x="273" y="371" type="curve" smooth="yes"/>
      <point x="273" y="293"/>
      <point x="220" y="276"/>
      <point x="153" y="276" type="curve" smooth="yes"/>
      <point x="115" y="276" type="line"/>
      <point x="115" y="229" type="line"/>
      <point x="154" y="229" type="line" smooth="yes"/>
      <point x="241" y="229"/>
      <point x="276" y="197"/>
      <point x="276" y="127" type="curve" smooth="yes"/>
      <point x="276" y="62"/>
      <point x="236" y="45"/>
      <point x="171" y="45" type="curve" smooth="yes"/>
      <point x="114" y="45"/>
      <point x="68" y="61"/>
      <point x="33" y="100" type="curve"/>
      <point x="15" y="85" type="line"/>
      <point x="46" y="33"/>
      <point x="91" y="-10"/>
      <point x="177" y="-10" type="curve" smooth="yes"/>
      <point x="272" y="-10"/>
      <point x="363" y="25"/>
      <point x="363" y="127" type="curve" smooth="yes"/>
      <point x="363" y="207"/>
      <point x="296" y="244"/>
      <point x="246" y="253" type="curve"/>
      <point x="246" y="257" type="line"/>
      <point x="278" y="269"/>
      <point x="321" y="285"/>
      <point x="342" y="322" type="curve"/>
      <point x="399" y="353" type="line"/>
      <point x="401" y="352" type="line"/>
      <point x="401" y="303"/>
      <point x="428" y="261"/>
      <point x="480" y="261" type="curve" smooth="yes"/>
      <point x="539" y="261"/>
      <point x="570" y="302"/>
      <point x="570" y="350" type="curve" smooth="yes"/>
      <point x="570" y="359"/>
      <point x="569" y="371"/>
      <point x="565" y="385" type="curve"/>
      <point x="542" y="380" type="line"/>
      <point x="549" y="349"/>
      <point x="539" y="314"/>
      <point x="493" y="314" type="curve" smooth="yes"/>
      <point x="457" y="314"/>
      <point x="447" y="360"/>
      <point x="453" y="395" type="curve"/>
      <point x="438" y="406" type="line"/>
      <point x="357" y="361" type="line"/>
      <point x="352" y="361" type="line"/>
      <point x="353" y="364"/>
      <point x="353" y="368"/>
      <point x="353" y="372" type="curve" smooth="yes"/>
      <point x="353" y="444"/>
      <point x="279" y="486"/>
      <point x="189" y="486" type="curve" smooth="yes"/>
      <point x="74" y="486"/>
      <point x="24" y="448"/>
      <point x="24" y="403" type="curve" smooth="yes"/>
      <point x="24" y="379"/>
      <point x="45" y="364"/>
      <point x="67" y="364" type="curve" smooth="yes"/>
      <point x="124" y="364"/>
      <point x="100" y="451"/>
    </contour>
  </outline>
</glyph>
<glyph name="ghook" format="2">
  <advance width="541"/>
  <unicode hex="0260"/>
  <outline>
    <contour>
      <point x="441" y="585" type="line"/>
      <point x="442" y="651"/>
      <point x="464" y="676"/>
      <point x="504" y="676" type="curve" smooth="yes"/>
      <point x="567" y="676"/>
      <point x="575" y="600"/>
      <point x="627" y="600" type="curve" smooth="yes"/>
      <point x="651" y="600"/>
      <point x="670" y="614"/>
      <point x="670" y="643" type="curve" smooth="yes"/>
      <point x="670" y="688"/>
      <point x="618" y="713"/>
      <point x="545" y="713" type="curve" smooth="yes"/>
      <point x="468" y="713"/>
      <point x="423" y="685"/>
      <point x="394" y="639" type="curve" smooth="yes"/>
      <point x="366" y="595"/>
      <point x="358" y="555"/>
      <point x="358" y="489" type="curve" smooth="yes"/>
      <point x="358" y="456" type="line"/>
      <point x="354" y="456" type="line"/>
      <point x="322" y="476"/>
      <point x="293" y="485"/>
      <point x="259" y="485" type="curve" smooth="yes"/>
      <point x="132" y="485"/>
      <point x="33" y="380"/>
      <point x="33" y="220" type="curve" smooth="yes"/>
      <point x="33" y="81"/>
      <point x="99" y="-8"/>
      <point x="203" y="-8" type="curve" smooth="yes"/>
      <point x="268" y="-8"/>
      <point x="311" y="24"/>
      <point x="355" y="63" type="curve"/>
      <point x="358" y="63" type="line"/>
      <point x="358" y="-26" type="line" smooth="yes"/>
      <point x="358" y="-157"/>
      <point x="310" y="-202"/>
      <point x="230" y="-202" type="curve" smooth="yes"/>
      <point x="164" y="-202"/>
      <point x="146" y="-109"/>
      <point x="96" y="-109" type="curve" smooth="yes"/>
      <point x="72" y="-109"/>
      <point x="53" y="-123"/>
      <point x="53" y="-154" type="curve" smooth="yes"/>
      <point x="53" y="-198"/>
      <point x="116" y="-235"/>
      <point x="211" y="-235" type="curve" smooth="yes"/>
      <point x="327" y="-235"/>
      <point x="441" y="-196"/>
      <point x="441" y="-1" type="curve" smooth="yes"/>
    </contour>
    <contour>
      <point x="358" y="103" type="line"/>
      <point x="330" y="80"/>
      <point x="300" y="65"/>
      <point x="251" y="65" type="curve" smooth="yes"/>
      <point x="151" y="65"/>
      <point x="119" y="149"/>
      <point x="119" y="258" type="curve" smooth="yes"/>
      <point x="119" y="383"/>
      <point x="174" y="445"/>
      <point x="258" y="445" type="curve" smooth="yes"/>
      <point x="311" y="445"/>
      <point x="345" y="416"/>
      <point x="358" y="366" type="curve"/>
    </contour>
  </outline>
  <guideline angle="90" x="-2094" y="0"/>
</glyph>
<glyph name="gcursive" format="2">
  <advance width="521"/>
  <unicode hex="0261"/>
  <outline>
    <contour>
      <point x="441" y="481" type="line"/>
      <point x="419" y="481" type="line"/>
      <point x="377" y="448" type="line"/>
      <point x="335" y="476"/>
      <point x="301" y="485"/>
      <point x="259" y="485" type="curve" smooth="yes"/>
      <point x="132" y="485"/>
      <point x="33" y="380"/>
      <point x="33" y="220" type="curve" smooth="yes"/>
      <point x="33" y="81"/>
      <point x="99" y="-8"/>
      <point x="203" y="-8" type="curve" smooth="yes"/>
      <point x="268" y="-8"/>
      <point x="311" y="24"/>
      <point x="355" y="63" type="curve"/>
      <point x="358" y="63" type="line"/>
      <point x="358" y="-26" type="line" smooth="yes"/>
      <point x="358" y="-157"/>
      <point x="310" y="-202"/>
      <point x="231" y="-202" type="curve" smooth="yes"/>
      <point x="162" y="-202"/>
      <point x="146" y="-109"/>
      <point x="96" y="-109" type="curve" smooth="yes"/>
      <point x="72" y="-109"/>
      <point x="53" y="-123"/>
      <point x="53" y="-154" type="curve" smooth="yes"/>
      <point x="53" y="-198"/>
      <point x="116" y="-235"/>
      <point x="211" y="-235" type="curve" smooth="yes"/>
      <point x="327" y="-235"/>
      <point x="441" y="-196"/>
      <point x="441" y="-1" type="curve" smooth="yes"/>
    </contour>
    <contour>
      <point x="358" y="103" type="line"/>
      <point x="330" y="80"/>
      <point x="300" y="65"/>
      <point x="251" y="65" type="curve" smooth="yes"/>
      <point x="151" y="65"/>
      <point x="119" y="149"/>
      <point x="119" y="258" type="curve" smooth="yes"/>
      <point x="119" y="383"/>
      <point x="174" y="445"/>
      <point x="258" y="445" type="curve" smooth="yes"/>
      <point x="311" y="445"/>
      <point x="345" y="416"/>
      <point x="358" y="366" type="curve"/>
    </contour>
  </outline>
</glyph>
<glyph name="gammaLatin" format="2">
  <advance width="479"/>
  <unicode hex="0263"/>
  <outline>
    <contour>
      <point x="497" y="473" type="line"/>
      <point x="322" y="473" type="line"/>
      <point x="322" y="444" type="line"/>
      <point x="358" y="444"/>
      <point x="379" y="439"/>
      <point x="379" y="417" type="curve" smooth="yes"/>
      <point x="379" y="401"/>
      <point x="373" y="389"/>
      <point x="372" y="384" type="curve"/>
      <point x="286" y="167" type="line"/>
      <point x="265" y="106" type="line"/>
      <point x="259" y="106" type="line"/>
      <point x="240" y="166" type="line"/>
      <point x="155" y="380" type="line" smooth="yes"/>
      <point x="149" y="394"/>
      <point x="145" y="406"/>
      <point x="145" y="419" type="curve" smooth="yes"/>
      <point x="145" y="435"/>
      <point x="158" y="444"/>
      <point x="197" y="444" type="curve"/>
      <point x="197" y="473" type="line"/>
      <point x="-14" y="473" type="line"/>
      <point x="-14" y="444" type="line"/>
      <point x="28" y="444"/>
      <point x="42" y="433"/>
      <point x="67" y="371" type="curve" smooth="yes"/>
      <point x="207" y="25" type="line"/>
      <point x="166" y="-64"/>
      <point x="148" y="-108"/>
      <point x="148" y="-146" type="curve" smooth="yes"/>
      <point x="148" y="-185"/>
      <point x="168" y="-227"/>
      <point x="231" y="-227" type="curve" smooth="yes"/>
      <point x="318" y="-227"/>
      <point x="343" y="-178"/>
      <point x="343" y="-126" type="curve" smooth="yes"/>
      <point x="343" y="-96"/>
      <point x="335" y="-60"/>
      <point x="285" y="52" type="curve"/>
      <point x="422" y="378" type="line"/>
      <point x="442" y="430"/>
      <point x="458" y="444"/>
      <point x="497" y="444" type="curve"/>
    </contour>
    <contour>
      <point x="229" y="-18" type="curve"/>
      <point x="261" y="-90"/>
      <point x="272" y="-121"/>
      <point x="272" y="-145" type="curve" smooth="yes"/>
      <point x="272" y="-173"/>
      <point x="260" y="-192"/>
      <point x="231" y="-192" type="curve" smooth="yes"/>
      <point x="201" y="-192"/>
      <point x="192" y="-167"/>
      <point x="192" y="-141" type="curve" smooth="yes"/>
      <point x="192" y="-112"/>
      <point x="202" y="-81"/>
    </contour>
  </outline>
</glyph>
<glyph name="ramshorn" format="2">
  <advance width="466"/>
  <unicode hex="0264"/>
  <outline>
    <contour>
      <point x="353" y="478" type="curve" smooth="yes"/>
      <point x="312" y="478"/>
      <point x="274" y="458"/>
      <point x="240" y="431" type="curve"/>
      <point x="205" y="459"/>
      <point x="165" y="478"/>
      <point x="117" y="478" type="curve" smooth="yes"/>
      <point x="50" y="478"/>
      <point x="2" y="441"/>
      <point x="2" y="391" type="curve" smooth="yes"/>
      <point x="2" y="359"/>
      <point x="21" y="345"/>
      <point x="44" y="345" type="curve" smooth="yes"/>
      <point x="67" y="345"/>
      <point x="78" y="360"/>
      <point x="80" y="390" type="curve" smooth="yes"/>
      <point x="82" y="425"/>
      <point x="84" y="445"/>
      <point x="118" y="445" type="curve" smooth="yes"/>
      <point x="150" y="445"/>
      <point x="173" y="428"/>
      <point x="202" y="394" type="curve"/>
      <point x="141" y="323"/>
      <point x="97" y="222"/>
      <point x="97" y="133" type="curve" smooth="yes"/>
      <point x="97" y="53"/>
      <point x="133" y="-12"/>
      <point x="226" y="-12" type="curve" smooth="yes"/>
      <point x="321" y="-12"/>
      <point x="373" y="57"/>
      <point x="373" y="150" type="curve" smooth="yes"/>
      <point x="373" y="230"/>
      <point x="335" y="335"/>
      <point x="266" y="407" type="curve"/>
      <point x="293" y="428"/>
      <point x="313" y="438"/>
      <point x="337" y="438" type="curve" smooth="yes"/>
      <point x="378" y="438"/>
      <point x="380" y="409"/>
      <point x="381" y="387" type="curve" smooth="yes"/>
      <point x="382" y="360"/>
      <point x="395" y="345"/>
      <point x="419" y="345" type="curve" smooth="yes"/>
      <point x="443" y="345"/>
      <point x="459" y="360"/>
      <point x="459" y="389" type="curve" smooth="yes"/>
      <point x="459" y="438"/>
      <point x="411" y="478"/>
    </contour>
    <contour>
      <point x="137" y="139" type="curve" smooth="yes"/>
      <point x="137" y="218"/>
      <point x="175" y="304"/>
      <point x="223" y="365" type="curve"/>
      <point x="262" y="303"/>
      <point x="292" y="221"/>
      <point x="292" y="142" type="curve" smooth="yes"/>
      <point x="292" y="75"/>
      <point x="271" y="29"/>
      <point x="218" y="29" type="curve" smooth="yes"/>
      <point x="172" y="29"/>
      <point x="137" y="64"/>
    </contour>
  </outline>
</glyph>
<glyph name="ibar" format="2">
  <advance width="295"/>
  <unicode hex="0268"/>
  <outline>
    <contour>
      <point x="262" y="28" type="line"/>
      <point x="195" y="28"/>
      <point x="190" y="43"/>
      <point x="190" y="101" type="curve" smooth="yes"/>
      <point x="190" y="247" type="line"/>
      <point x="264" y="247" type="line"/>
      <point x="264" y="281" type="line"/>
      <point x="190" y="281" type="line"/>
      <point x="190" y="482" type="line"/>
      <point x="164" y="482" type="line"/>
      <point x="38" y="454" type="line"/>
      <point x="38" y="425" type="line"/>
      <point x="38" y="425"/>
      <point x="49" y="427"/>
      <point x="63" y="427" type="curve" smooth="yes"/>
      <point x="92" y="427"/>
      <point x="107" y="423"/>
      <point x="107" y="380" type="curve" smooth="yes"/>
      <point x="107" y="281" type="line"/>
      <point x="33" y="281" type="line"/>
      <point x="33" y="247" type="line"/>
      <point x="107" y="247" type="line"/>
      <point x="107" y="101" type="line" smooth="yes"/>
      <point x="107" y="44"/>
      <point x="104" y="28"/>
      <point x="37" y="28" type="curve"/>
      <point x="37" y="0" type="line"/>
      <point x="262" y="0" type="line"/>
    </contour>
    <contour>
      <point x="150" y="693" type="curve" smooth="yes"/>
      <point x="115" y="693"/>
      <point x="93" y="667"/>
      <point x="93" y="637" type="curve" smooth="yes"/>
      <point x="93" y="606"/>
      <point x="116" y="580"/>
      <point x="150" y="580" type="curve" smooth="yes"/>
      <point x="185" y="580"/>
      <point x="207" y="606"/>
      <point x="207" y="637" type="curve" smooth="yes"/>
      <point x="207" y="667"/>
      <point x="185" y="693"/>
    </contour>
  </outline>
</glyph>
<glyph name="lretroflex" format="2">
  <advance width="248"/>
  <unicode hex="026D"/>
  <outline>
    <contour>
      <point x="80" y="-2" type="line" smooth="yes"/>
      <point x="80" y="-160"/>
      <point x="128" y="-235"/>
      <point x="247" y="-235" type="curve" smooth="yes"/>
      <point x="312" y="-235"/>
      <point x="354" y="-207"/>
      <point x="354" y="-163" type="curve" smooth="yes"/>
      <point x="354" y="-138"/>
      <point x="337" y="-121"/>
      <point x="310" y="-121" type="curve" smooth="yes"/>
      <point x="262" y="-121"/>
      <point x="261" y="-191"/>
      <point x="216" y="-191" type="curve" smooth="yes"/>
      <point x="172" y="-191"/>
      <point x="163" y="-149"/>
      <point x="163" y="-62" type="curve" smooth="yes"/>
      <point x="163" y="706" type="line"/>
      <point x="138" y="706" type="line"/>
      <point x="6" y="671" type="line"/>
      <point x="6" y="644" type="line"/>
      <point x="6" y="644"/>
      <point x="21" y="646"/>
      <point x="38" y="646" type="curve" smooth="yes"/>
      <point x="63" y="646"/>
      <point x="80" y="644"/>
      <point x="80" y="603" type="curve" smooth="yes"/>
    </contour>
  </outline>
</glyph>
<glyph name="mturnedlongleg" format="2">
  <advance width="826"/>
  <unicode hex="0270"/>
  <outline>
    <contour>
      <point x="666" y="72" type="line"/>
      <point x="666" y="-220" type="line"/>
      <point x="824" y="-220" type="line"/>
      <point x="824" y="-192" type="line"/>
      <point x="755" y="-192"/>
      <point x="746" y="-175"/>
      <point x="746" y="-124" type="curve" smooth="yes"/>
      <point x="746" y="482" type="line"/>
      <point x="720" y="482" type="line"/>
      <point x="594" y="454" type="line"/>
      <point x="594" y="425" type="line"/>
      <point x="594" y="425"/>
      <point x="605" y="427"/>
      <point x="619" y="427" type="curve" smooth="yes"/>
      <point x="648" y="427"/>
      <point x="663" y="423"/>
      <point x="663" y="380" type="curve" smooth="yes"/>
      <point x="663" y="116" type="line"/>
      <point x="634" y="89"/>
      <point x="590" y="52"/>
      <point x="538" y="52" type="curve" smooth="yes"/>
      <point x="492" y="52"/>
      <point x="458" y="74"/>
      <point x="458" y="159" type="curve" smooth="yes"/>
      <point x="458" y="482" type="line"/>
      <point x="432" y="482" type="line"/>
      <point x="306" y="454" type="line"/>
      <point x="306" y="425" type="line"/>
      <point x="306" y="425"/>
      <point x="317" y="427"/>
      <point x="331" y="427" type="curve" smooth="yes"/>
      <point x="360" y="427"/>
      <point x="375" y="423"/>
      <point x="375" y="380" type="curve" smooth="yes"/>
      <point x="375" y="114" type="line"/>
      <point x="342" y="86"/>
      <point x="301" y="52"/>
      <point x="260" y="52" type="curve" smooth="yes"/>
      <point x="213" y="52"/>
      <point x="174" y="74"/>
      <point x="174" y="165" type="curve" smooth="yes"/>
      <point x="174" y="482" type="line"/>
      <point x="148" y="482" type="line"/>
      <point x="22" y="454" type="line"/>
      <point x="22" y="425" type="line"/>
      <point x="22" y="425"/>
      <point x="33" y="427"/>
      <point x="47" y="427" type="curve" smooth="yes"/>
      <point x="76" y="427"/>
      <point x="91" y="423"/>
      <point x="91" y="380" type="curve" smooth="yes"/>
      <point x="91" y="153" type="line" smooth="yes"/>
      <point x="91" y="32"/>
      <point x="142" y="-12"/>
      <point x="220" y="-12" type="curve" smooth="yes"/>
      <point x="273" y="-12"/>
      <point x="324" y="17"/>
      <point x="379" y="71" type="curve"/>
      <point x="383" y="71" type="line"/>
      <point x="403" y="23"/>
      <point x="437" y="-12"/>
      <point x="494" y="-12" type="curve" smooth="yes"/>
      <point x="562" y="-12"/>
      <point x="608" y="25"/>
      <point x="662" y="72" type="curve"/>
    </contour>
  </outline>
</glyph>
<glyph name="phiLatin" format="2">
  <advance width="658"/>
  <unicode hex="0278"/>
  <outline>
    <contour>
      <point x="445" y="-191" type="line"/>
      <point x="373" y="-191"/>
      <point x="368" y="-177"/>
      <point x="368" y="-119" type="curve" smooth="yes"/>
      <point x="368" y="-7" type="line"/>
      <point x="544" y="3"/>
      <point x="624" y="110"/>
      <point x="624" y="249" type="curve" smooth="yes"/>
      <point x="624" y="380"/>
      <point x="543" y="471"/>
      <point x="368" y="480" type="curve"/>
      <point x="368" y="706" type="line"/>
      <point x="343" y="706" type="line"/>
      <point x="213" y="671" type="line"/>
      <point x="213" y="644" type="line"/>
      <point x="213" y="644"/>
      <point x="228" y="646"/>
      <point x="245" y="646" type="curve" smooth="yes"/>
      <point x="270" y="646"/>
      <point x="287" y="644"/>
      <point x="287" y="603" type="curve" smooth="yes"/>
      <point x="287" y="480" type="line"/>
      <point x="111" y="469"/>
      <point x="34" y="361"/>
      <point x="34" y="231" type="curve" smooth="yes"/>
      <point x="34" y="91"/>
      <point x="112" y="3"/>
      <point x="287" y="-7" type="curve"/>
      <point x="287" y="-119" type="line" smooth="yes"/>
      <point x="287" y="-175"/>
      <point x="283" y="-191"/>
      <point x="217" y="-191" type="curve"/>
      <point x="217" y="-220" type="line"/>
      <point x="445" y="-220" type="line"/>
    </contour>
    <contour>
      <point x="532" y="236" type="curve" smooth="yes"/>
      <point x="532" y="110"/>
      <point x="489" y="37"/>
      <point x="368" y="28" type="curve"/>
      <point x="368" y="445" type="line"/>
      <point x="479" y="434"/>
      <point x="532" y="342"/>
    </contour>
    <contour>
      <point x="126" y="248" type="curve" smooth="yes"/>
      <point x="126" y="356"/>
      <point x="177" y="435"/>
      <point x="287" y="446" type="curve"/>
      <point x="287" y="29" type="line"/>
      <point x="165" y="41"/>
      <point x="126" y="134"/>
    </contour>
  </outline>
</glyph>
<glyph name="rlongleg" format="2">
  <advance width="378"/>
  <unicode hex="027C"/>
  <outline>
    <contour>
      <point x="181" y="482" type="line"/>
      <point x="157" y="482" type="line"/>
      <point x="33" y="452" type="line"/>
      <point x="33" y="424" type="line"/>
      <point x="33" y="424"/>
      <point x="44" y="426"/>
      <point x="64" y="426" type="curve" smooth="yes"/>
      <point x="100" y="426"/>
      <point x="100" y="408"/>
      <point x="100" y="372" type="curve" smooth="yes"/>
      <point x="100" y="-123" type="line" smooth="yes"/>
      <point x="100" y="-179"/>
      <point x="93" y="-191"/>
      <point x="27" y="-191" type="curve"/>
      <point x="27" y="-220" type="line"/>
      <point x="277" y="-220" type="line"/>
      <point x="277" y="-191" type="line"/>
      <point x="202" y="-191"/>
      <point x="183" y="-181"/>
      <point x="183" y="-118" type="curve" smooth="yes"/>
      <point x="183" y="330" type="line"/>
      <point x="207" y="370"/>
      <point x="239" y="412"/>
      <point x="262" y="412" type="curve" smooth="yes"/>
      <point x="274" y="412"/>
      <point x="294" y="378"/>
      <point x="327" y="378" type="curve" smooth="yes"/>
      <point x="349" y="378"/>
      <point x="371" y="394"/>
      <point x="371" y="432" type="curve" smooth="yes"/>
      <point x="371" y="466"/>
      <point x="352" y="488"/>
      <point x="313" y="488" type="curve" smooth="yes"/>
      <point x="265" y="488"/>
      <point x="235" y="453"/>
      <point x="184" y="379" type="curve"/>
      <point x="181" y="379" type="line"/>
    </contour>
  </outline>
</glyph>
<glyph name="rfishhook" format="2">
  <advance width="371"/>
  <unicode hex="027E"/>
  <outline>
    <contour>
      <point x="95" y="258" type="curve"/>
      <point x="95" y="97" type="line" smooth="yes"/>
      <point x="95" y="41"/>
      <point x="88" y="29"/>
      <point x="22" y="29" type="curve"/>
      <point x="22" y="0" type="line"/>
      <point x="272" y="0" type="line"/>
      <point x="272" y="29" type="line"/>
      <point x="197" y="29"/>
      <point x="178" y="39"/>
      <point x="178" y="102" type="curve" smooth="yes"/>
      <point x="178" y="278" type="line" smooth="yes"/>
      <point x="178" y="388"/>
      <point x="181" y="446"/>
      <point x="232" y="446" type="curve" smooth="yes"/>
      <point x="269" y="446"/>
      <point x="280" y="383"/>
      <point x="324" y="383" type="curve" smooth="yes"/>
      <point x="343" y="383"/>
      <point x="364" y="396"/>
      <point x="364" y="424" type="curve" smooth="yes"/>
      <point x="364" y="462"/>
      <point x="317" y="481"/>
      <point x="269" y="481" type="curve" smooth="yes"/>
      <point x="137" y="481"/>
      <point x="95" y="378"/>
    </contour>
  </outline>
</glyph>
<glyph name="rsmallcap" format="2">
  <advance width="494"/>
  <unicode hex="0280"/>
  <outline>
    <contour>
      <point x="423" y="351" type="curve" smooth="yes"/>
      <point x="423" y="447"/>
      <point x="339" y="473"/>
      <point x="234" y="473" type="curve" smooth="yes"/>
      <point x="38" y="473" type="line"/>
      <point x="38" y="447" type="line"/>
      <point x="94" y="447"/>
      <point x="102" y="434"/>
      <point x="102" y="394" type="curve" smooth="yes"/>
      <point x="102" y="94" type="line" smooth="yes"/>
      <point x="102" y="33"/>
      <point x="87" y="28"/>
      <point x="32" y="28" type="curve"/>
      <point x="32" y="0" type="line"/>
      <point x="253" y="0" type="line"/>
      <point x="253" y="28" type="line"/>
      <point x="188" y="28"/>
      <point x="185" y="34"/>
      <point x="185" y="94" type="curve" smooth="yes"/>
      <point x="185" y="214" type="line"/>
      <point x="202" y="214" type="line" smooth="yes"/>
      <point x="222" y="214"/>
      <point x="226" y="212"/>
      <point x="242" y="189" type="curve" smooth="yes"/>
      <point x="272" y="146"/>
      <point x="293" y="118"/>
      <point x="374" y="0" type="curve"/>
      <point x="509" y="0" type="line"/>
      <point x="509" y="28" type="line"/>
      <point x="473" y="28"/>
      <point x="454" y="33"/>
      <point x="430" y="64" type="curve" smooth="yes"/>
      <point x="345" y="176"/>
      <point x="322" y="210"/>
      <point x="296" y="224" type="curve"/>
      <point x="296" y="228" type="line"/>
      <point x="357" y="241"/>
      <point x="423" y="269"/>
    </contour>
    <contour>
      <point x="185" y="434" type="line"/>
      <point x="197" y="436"/>
      <point x="202" y="437"/>
      <point x="226" y="437" type="curve" smooth="yes"/>
      <point x="300" y="437"/>
      <point x="339" y="418"/>
      <point x="339" y="351" type="curve" smooth="yes"/>
      <point x="339" y="276"/>
      <point x="290" y="249"/>
      <point x="205" y="245" type="curve"/>
      <point x="185" y="246" type="line"/>
    </contour>
  </outline>
</glyph>
<glyph name="rsmallcapinverted" format="2">
  <advance width="494"/>
  <unicode hex="0281"/>
  <outline>
    <contour>
      <point x="423" y="122" type="curve" smooth="yes"/>
      <point x="423" y="204"/>
      <point x="357" y="232"/>
      <point x="296" y="245" type="curve"/>
      <point x="296" y="249" type="line"/>
      <point x="322" y="263"/>
      <point x="345" y="297"/>
      <point x="430" y="409" type="curve" smooth="yes"/>
      <point x="454" y="440"/>
      <point x="473" y="445"/>
      <point x="509" y="445" type="curve"/>
      <point x="509" y="473" type="line"/>
      <point x="374" y="473" type="line"/>
      <point x="293" y="355"/>
      <point x="272" y="327"/>
      <point x="242" y="284" type="curve" smooth="yes"/>
      <point x="226" y="261"/>
      <point x="222" y="259"/>
      <point x="202" y="259" type="curve" smooth="yes"/>
      <point x="185" y="259" type="line"/>
      <point x="185" y="379" type="line" smooth="yes"/>
      <point x="185" y="439"/>
      <point x="188" y="445"/>
      <point x="253" y="445" type="curve"/>
      <point x="253" y="473" type="line"/>
      <point x="32" y="473" type="line"/>
      <point x="32" y="445" type="line"/>
      <point x="87" y="445"/>
      <point x="102" y="440"/>
      <point x="102" y="379" type="curve" smooth="yes"/>
      <point x="102" y="79" type="line" smooth="yes"/>
      <point x="102" y="39"/>
      <point x="94" y="26"/>
      <point x="38" y="26" type="curve"/>
      <point x="38" y="0" type="line"/>
      <point x="234" y="0" type="line" smooth="yes"/>
      <point x="339" y="0"/>
      <point x="423" y="26"/>
    </contour>
    <contour>
      <point x="185" y="227" type="line"/>
      <point x="205" y="228" type="line"/>
      <point x="290" y="224"/>
      <point x="339" y="197"/>
      <point x="339" y="122" type="curve" smooth="yes"/>
      <point x="339" y="55"/>
      <point x="300" y="36"/>
      <point x="226" y="36" type="curve" smooth="yes"/>
      <point x="202" y="36"/>
      <point x="197" y="37"/>
      <point x="185" y="39" type="curve"/>
    </contour>
  </outline>
</glyph>
<glyph name="eshcurl" format="2">
  <advance width="253"/>
  <unicode hex="0286"/>
  <outline>
    <contour>
      <point x="321" y="600" type="curve" smooth="yes"/>
      <point x="344" y="600"/>
      <point x="362" y="614"/>
      <point x="362" y="643" type="curve" smooth="yes"/>
      <point x="362" y="688"/>
      <point x="315" y="713"/>
      <point x="250" y="713" type="curve" smooth="yes"/>
      <point x="180" y="713"/>
      <point x="144" y="686"/>
      <point x="117" y="640" type="curve" smooth="yes"/>
      <point x="91" y="594"/>
      <point x="85" y="549"/>
      <point x="85" y="431" type="curve" smooth="yes"/>
      <point x="85" y="-35" type="line"/>
      <point x="78" y="-34"/>
      <point x="72" y="-33"/>
      <point x="55" y="-33" type="curve" smooth="yes"/>
      <point x="-20" y="-33"/>
      <point x="-88" y="-64"/>
      <point x="-88" y="-140" type="curve" smooth="yes"/>
      <point x="-88" y="-201"/>
      <point x="-46" y="-235"/>
      <point x="22" y="-235" type="curve" smooth="yes"/>
      <point x="93" y="-235"/>
      <point x="151" y="-191"/>
      <point x="164" y="-98" type="curve"/>
      <point x="189" y="-109"/>
      <point x="216" y="-126"/>
      <point x="237" y="-144" type="curve"/>
      <point x="259" y="-118" type="line"/>
      <point x="241" y="-100"/>
      <point x="201" y="-71"/>
      <point x="167" y="-57" type="curve"/>
      <point x="168" y="-51"/>
      <point x="168" y="-38"/>
      <point x="168" y="-29" type="curve" smooth="yes"/>
      <point x="168" y="562" type="line" smooth="yes"/>
      <point x="168" y="646"/>
      <point x="179" y="676"/>
      <point x="216" y="676" type="curve" smooth="yes"/>
      <point x="266" y="676"/>
      <point x="271" y="600"/>
    </contour>
    <contour>
      <point x="85" y="-72" type="curve"/>
      <point x="85" y="-153"/>
      <point x="74" y="-194"/>
      <point x="18" y="-194" type="curve" smooth="yes"/>
      <point x="-20" y="-194"/>
      <point x="-46" y="-181"/>
      <point x="-46" y="-137" type="curve" smooth="yes"/>
      <point x="-46" y="-89"/>
      <point x="-1" y="-69"/>
      <point x="51" y="-69" type="curve" smooth="yes"/>
      <point x="62" y="-69"/>
      <point x="73" y="-70"/>
    </contour>
  </outline>
</glyph>
<glyph name="vhook" format="2">
  <advance width="530"/>
  <unicode hex="028B"/>
  <outline>
    <contour>
      <point x="484" y="278" type="curve" smooth="yes"/>
      <point x="484" y="338"/>
      <point x="466" y="483"/>
      <point x="385" y="483" type="curve" smooth="yes"/>
      <point x="360" y="483"/>
      <point x="348" y="466"/>
      <point x="348" y="447" type="curve" smooth="yes"/>
      <point x="348" y="395"/>
      <point x="440" y="364"/>
      <point x="440" y="231" type="curve" smooth="yes"/>
      <point x="440" y="118"/>
      <point x="393" y="49"/>
      <point x="274" y="49" type="curve" smooth="yes"/>
      <point x="212" y="49"/>
      <point x="174" y="84"/>
      <point x="174" y="199" type="curve" smooth="yes"/>
      <point x="174" y="478" type="line"/>
      <point x="152" y="478" type="line"/>
      <point x="23" y="463" type="line"/>
      <point x="23" y="435" type="line"/>
      <point x="77" y="434"/>
      <point x="91" y="430"/>
      <point x="91" y="376" type="curve" smooth="yes"/>
      <point x="91" y="173" type="line" smooth="yes"/>
      <point x="91" y="37"/>
      <point x="152" y="-10"/>
      <point x="259" y="-10" type="curve" smooth="yes"/>
      <point x="400" y="-10"/>
      <point x="484" y="104"/>
    </contour>
  </outline>
  <guideline angle="0" x="0" y="742"/>
</glyph>
<glyph name="zcurl" format="2">
  <advance width="458"/>
  <unicode hex="0291"/>
  <outline>
    <contour>
      <point x="140" y="44" type="line"/>
      <point x="421" y="444" type="line"/>
      <point x="421" y="473" type="line"/>
      <point x="52" y="473" type="line"/>
      <point x="47" y="326" type="line"/>
      <point x="78" y="326" type="line"/>
      <point x="87" y="393"/>
      <point x="103" y="431"/>
      <point x="177" y="431" type="curve" smooth="yes"/>
      <point x="312" y="431" type="line"/>
      <point x="312" y="428" type="line"/>
      <point x="31" y="29" type="line"/>
      <point x="31" y="0" type="line"/>
      <point x="192" y="0" type="line"/>
      <point x="164" y="-48"/>
      <point x="145" y="-91"/>
      <point x="121" y="-141" type="curve"/>
      <point x="154" y="-156" type="line"/>
      <point x="180" y="-103"/>
      <point x="205" y="-48"/>
      <point x="234" y="0" type="curve"/>
      <point x="283" y="0" type="line" smooth="yes"/>
      <point x="370" y="0"/>
      <point x="448" y="19"/>
      <point x="448" y="96" type="curve" smooth="yes"/>
      <point x="448" y="135"/>
      <point x="422" y="164"/>
      <point x="369" y="164" type="curve" smooth="yes"/>
      <point x="307" y="164"/>
      <point x="254" y="110"/>
      <point x="213" y="41" type="curve"/>
      <point x="140" y="41" type="line"/>
    </contour>
    <contour>
      <point x="255" y="41" type="line"/>
      <point x="277" y="81"/>
      <point x="315" y="129"/>
      <point x="367" y="129" type="curve" smooth="yes"/>
      <point x="388" y="129"/>
      <point x="406" y="117"/>
      <point x="406" y="93" type="curve" smooth="yes"/>
      <point x="406" y="39"/>
      <point x="333" y="41"/>
      <point x="276" y="41" type="curve" smooth="yes"/>
    </contour>
  </outline>
</glyph>
<glyph name="ezhcurl" format="2">
  <advance width="443"/>
  <unicode hex="0293"/>
  <outline>
    <contour>
      <point x="284" y="-217" type="line"/>
      <point x="376" y="-184"/>
      <point x="424" y="-113"/>
      <point x="424" y="-24" type="curve" smooth="yes"/>
      <point x="424" y="126"/>
      <point x="314" y="160"/>
      <point x="221" y="174" type="curve"/>
      <point x="412" y="444" type="line"/>
      <point x="412" y="473" type="line"/>
      <point x="43" y="473" type="line"/>
      <point x="38" y="326" type="line"/>
      <point x="69" y="326" type="line"/>
      <point x="78" y="393"/>
      <point x="94" y="431"/>
      <point x="168" y="431" type="curve" smooth="yes"/>
      <point x="303" y="431" type="line"/>
      <point x="303" y="428" type="line"/>
      <point x="124" y="175" type="line"/>
      <point x="124" y="149" type="line"/>
      <point x="222" y="144"/>
      <point x="332" y="109"/>
      <point x="332" y="-26" type="curve" smooth="yes"/>
      <point x="332" y="-112"/>
      <point x="293" y="-156"/>
      <point x="259" y="-171" type="curve"/>
      <point x="214" y="-99"/>
      <point x="178" y="-36"/>
      <point x="113" y="-36" type="curve" smooth="yes"/>
      <point x="66" y="-36"/>
      <point x="31" y="-69"/>
      <point x="31" y="-111" type="curve" smooth="yes"/>
      <point x="31" y="-191"/>
      <point x="110" y="-227"/>
      <point x="210" y="-227" type="curve" smooth="yes"/>
      <point x="216" y="-227"/>
      <point x="236" y="-226"/>
      <point x="246" y="-225" type="curve"/>
      <point x="334" y="-373" type="line"/>
      <point x="368" y="-355" type="line"/>
    </contour>
    <contour>
      <point x="225" y="-182" type="curve"/>
      <point x="218" y="-183"/>
      <point x="211" y="-184"/>
      <point x="203" y="-184" type="curve" smooth="yes"/>
      <point x="129" y="-184"/>
      <point x="73" y="-163"/>
      <point x="73" y="-113" type="curve" smooth="yes"/>
      <point x="73" y="-85"/>
      <point x="91" y="-73"/>
      <point x="112" y="-73" type="curve" smooth="yes"/>
      <point x="159" y="-73"/>
      <point x="203" y="-142"/>
    </contour>
  </outline>
</glyph>
<glyph name="clickbilabial" format="2">
  <advance width="736"/>
  <unicode hex="0298"/>
  <outline>
    <contour>
      <point x="431" y="345" type="curve" smooth="yes"/>
      <point x="431" y="381"/>
      <point x="402" y="409"/>
      <point x="367" y="409" type="curve" smooth="yes"/>
      <point x="331" y="409"/>
      <point x="302" y="381"/>
      <point x="302" y="345" type="curve" smooth="yes"/>
      <point x="302" y="309"/>
      <point x="332" y="280"/>
      <point x="367" y="280" type="curve" smooth="yes"/>
      <point x="403" y="280"/>
      <point x="431" y="309"/>
    </contour>
    <contour>
      <point x="704" y="344" type="curve" smooth="yes"/>
      <point x="704" y="545"/>
      <point x="574" y="701"/>
      <point x="372" y="701" type="curve" smooth="yes"/>
      <point x="173" y="701"/>
      <point x="32" y="558"/>
      <point x="32" y="345" type="curve" smooth="yes"/>
      <point x="32" y="129"/>
      <point x="184" y="-12"/>
      <point x="365" y="-12" type="curve" smooth="yes"/>
      <point x="576" y="-12"/>
      <point x="704" y="147"/>
    </contour>
    <contour>
      <point x="611" y="347" type="curve" smooth="yes"/>
      <point x="611" y="164"/>
      <point x="514" y="24"/>
      <point x="368" y="24" type="curve" smooth="yes"/>
      <point x="210" y="24"/>
      <point x="125" y="167"/>
      <point x="125" y="347" type="curve" smooth="yes"/>
      <point x="125" y="555"/>
      <point x="232" y="670"/>
      <point x="365" y="670" type="curve" smooth="yes"/>
      <point x="517" y="670"/>
      <point x="611" y="528"/>
    </contour>
  </outline>
</glyph>
<glyph name="jcurl" format="2">
  <advance width="263"/>
  <unicode hex="029D"/>
  <outline>
    <contour>
      <point x="183" y="482" type="line"/>
      <point x="156" y="482" type="line"/>
      <point x="26" y="454" type="line"/>
      <point x="26" y="424" type="line"/>
      <point x="26" y="424"/>
      <point x="40" y="427"/>
      <point x="56" y="427" type="curve" smooth="yes"/>
      <point x="92" y="427"/>
      <point x="100" y="417"/>
      <point x="100" y="373" type="curve" smooth="yes"/>
      <point x="100" y="-35" type="line"/>
      <point x="93" y="-34"/>
      <point x="84" y="-33"/>
      <point x="68" y="-33" type="curve" smooth="yes"/>
      <point x="-7" y="-33"/>
      <point x="-73" y="-67"/>
      <point x="-73" y="-140" type="curve" smooth="yes"/>
      <point x="-73" y="-204"/>
      <point x="-25" y="-235"/>
      <point x="32" y="-235" type="curve" smooth="yes"/>
      <point x="108" y="-235"/>
      <point x="166" y="-191"/>
      <point x="179" y="-98" type="curve"/>
      <point x="206" y="-109"/>
      <point x="239" y="-133"/>
      <point x="252" y="-144" type="curve"/>
      <point x="274" y="-118" type="line"/>
      <point x="259" y="-102"/>
      <point x="218" y="-72"/>
      <point x="182" y="-57" type="curve"/>
      <point x="183" y="-45"/>
      <point x="183" y="-41"/>
      <point x="183" y="-17" type="curve" smooth="yes"/>
    </contour>
    <contour>
      <point x="100" y="-72" type="curve"/>
      <point x="100" y="-140"/>
      <point x="95" y="-194"/>
      <point x="32" y="-194" type="curve" smooth="yes"/>
      <point x="6" y="-194"/>
      <point x="-31" y="-185"/>
      <point x="-31" y="-141" type="curve" smooth="yes"/>
      <point x="-31" y="-90"/>
      <point x="12" y="-69"/>
      <point x="64" y="-69" type="curve" smooth="yes"/>
      <point x="75" y="-69"/>
      <point x="88" y="-70"/>
    </contour>
    <contour>
      <point x="139" y="673" type="curve" smooth="yes"/>
      <point x="103" y="673"/>
      <point x="81" y="647"/>
      <point x="81" y="617" type="curve" smooth="yes"/>
      <point x="81" y="586"/>
      <point x="105" y="560"/>
      <point x="139" y="560" type="curve" smooth="yes"/>
      <point x="174" y="560"/>
      <point x="198" y="586"/>
      <point x="198" y="617" type="curve" smooth="yes"/>
      <point x="198" y="647"/>
      <point x="174" y="673"/>
    </contour>
  </outline>
</glyph>
<glyph name="dzlig" format="2">
  <advance width="830"/>
  <unicode hex="02A3"/>
  <outline>
    <contour>
      <point x="512" y="45" type="line"/>
      <point x="793" y="444" type="line"/>
      <point x="793" y="473" type="line"/>
      <point x="443" y="473" type="line"/>
      <point x="443" y="706" type="line"/>
      <point x="416" y="706" type="line"/>
      <point x="290" y="671" type="line"/>
      <point x="290" y="643" type="line"/>
      <point x="290" y="643"/>
      <point x="307" y="645"/>
      <point x="316" y="645" type="curve" smooth="yes"/>
      <point x="355" y="645"/>
      <point x="360" y="636"/>
      <point x="360" y="592" type="curve" smooth="yes"/>
      <point x="360" y="461" type="line"/>
      <point x="329" y="478"/>
      <point x="296" y="485"/>
      <point x="263" y="485" type="curve" smooth="yes"/>
      <point x="137" y="485"/>
      <point x="33" y="384"/>
      <point x="33" y="219" type="curve" smooth="yes"/>
      <point x="33" y="91"/>
      <point x="91" y="-8"/>
      <point x="204" y="-8" type="curve" smooth="yes"/>
      <point x="270" y="-8"/>
      <point x="321" y="30"/>
      <point x="359" y="64" type="curve"/>
      <point x="363" y="64" type="line"/>
      <point x="363" y="-6" type="line"/>
      <point x="386" y="-6" type="line"/>
      <point x="432" y="0" type="line"/>
      <point x="787" y="0" type="line"/>
      <point x="797" y="160" type="line"/>
      <point x="764" y="160" type="line"/>
      <point x="744" y="67"/>
      <point x="723" y="41"/>
      <point x="637" y="41" type="curve" smooth="yes"/>
      <point x="512" y="41" type="line"/>
    </contour>
    <contour>
      <point x="360" y="101" type="line"/>
      <point x="325" y="77"/>
      <point x="298" y="64"/>
      <point x="251" y="64" type="curve" smooth="yes"/>
      <point x="166" y="64"/>
      <point x="120" y="120"/>
      <point x="120" y="258" type="curve" smooth="yes"/>
      <point x="120" y="384"/>
      <point x="177" y="445"/>
      <point x="261" y="445" type="curve" smooth="yes"/>
      <point x="323" y="445"/>
      <point x="352" y="406"/>
      <point x="360" y="365" type="curve"/>
    </contour>
    <contour>
      <point x="443" y="88" type="line"/>
      <point x="443" y="431" type="line"/>
      <point x="684" y="431" type="line"/>
      <point x="684" y="427" type="line"/>
      <point x="448" y="88" type="line"/>
    </contour>
  </outline>
</glyph>
<glyph name="dezh" format="2">
  <advance width="838"/>
  <unicode hex="02A4"/>
  <outline>
    <contour>
      <point x="520" y="175" type="line"/>
      <point x="520" y="149" type="line"/>
      <point x="618" y="144"/>
      <point x="728" y="108"/>
      <point x="728" y="-29" type="curve" smooth="yes"/>
      <point x="728" y="-185"/>
      <point x="625" y="-203"/>
      <point x="559" y="-203" type="curve" smooth="yes"/>
      <point x="512" y="-203"/>
      <point x="514" y="-101"/>
      <point x="459" y="-101" type="curve" smooth="yes"/>
      <point x="430" y="-101"/>
      <point x="415" y="-121"/>
      <point x="415" y="-149" type="curve" smooth="yes"/>
      <point x="415" y="-194"/>
      <point x="461" y="-235"/>
      <point x="554" y="-235" type="curve" smooth="yes"/>
      <point x="672" y="-235"/>
      <point x="820" y="-175"/>
      <point x="820" y="-27" type="curve" smooth="yes"/>
      <point x="820" y="125"/>
      <point x="710" y="160"/>
      <point x="617" y="174" type="curve"/>
      <point x="804" y="444" type="line"/>
      <point x="804" y="473" type="line"/>
      <point x="443" y="473" type="line"/>
      <point x="443" y="706" type="line"/>
      <point x="416" y="706" type="line"/>
      <point x="290" y="671" type="line"/>
      <point x="290" y="643" type="line"/>
      <point x="290" y="643"/>
      <point x="307" y="645"/>
      <point x="316" y="645" type="curve" smooth="yes"/>
      <point x="355" y="645"/>
      <point x="360" y="636"/>
      <point x="360" y="592" type="curve" smooth="yes"/>
      <point x="360" y="461" type="line"/>
      <point x="329" y="478"/>
      <point x="296" y="485"/>
      <point x="263" y="485" type="curve" smooth="yes"/>
      <point x="137" y="485"/>
      <point x="33" y="384"/>
      <point x="33" y="219" type="curve" smooth="yes"/>
      <point x="33" y="91"/>
      <point x="91" y="-8"/>
      <point x="204" y="-8" type="curve" smooth="yes"/>
      <point x="270" y="-8"/>
      <point x="321" y="30"/>
      <point x="359" y="64" type="curve"/>
      <point x="363" y="64" type="line"/>
      <point x="363" y="-5" type="line"/>
      <point x="386" y="-5" type="line"/>
      <point x="514" y="18" type="line"/>
      <point x="514" y="45" type="line"/>
      <point x="493" y="45" type="line" smooth="yes"/>
      <point x="456" y="45"/>
      <point x="443" y="55"/>
      <point x="443" y="107" type="curve" smooth="yes"/>
      <point x="443" y="431" type="line"/>
      <point x="695" y="431" type="line"/>
      <point x="695" y="428" type="line"/>
    </contour>
    <contour>
      <point x="360" y="101" type="line"/>
      <point x="325" y="77"/>
      <point x="298" y="64"/>
      <point x="251" y="64" type="curve" smooth="yes"/>
      <point x="166" y="64"/>
      <point x="120" y="120"/>
      <point x="120" y="258" type="curve" smooth="yes"/>
      <point x="120" y="384"/>
      <point x="177" y="445"/>
      <point x="261" y="445" type="curve" smooth="yes"/>
      <point x="323" y="445"/>
      <point x="352" y="406"/>
      <point x="360" y="365" type="curve"/>
    </contour>
  </outline>
</glyph>
<glyph name="tslig" format="2">
  <advance width="614"/>
  <unicode hex="02A6"/>
  <outline>
    <contour>
      <point x="92" y="136" type="line" smooth="yes"/>
      <point x="92" y="12"/>
      <point x="207" y="-12"/>
      <point x="331" y="-12" type="curve" smooth="yes"/>
      <point x="454" y="-12"/>
      <point x="584" y="20"/>
      <point x="584" y="121" type="curve" smooth="yes"/>
      <point x="584" y="194"/>
      <point x="538" y="230"/>
      <point x="447" y="278" type="curve" smooth="yes"/>
      <point x="363" y="321"/>
      <point x="330" y="345"/>
      <point x="330" y="385" type="curve" smooth="yes"/>
      <point x="330" y="430"/>
      <point x="365" y="451"/>
      <point x="411" y="451" type="curve" smooth="yes"/>
      <point x="472" y="451"/>
      <point x="509" y="422"/>
      <point x="531" y="327" type="curve"/>
      <point x="558" y="327" type="line"/>
      <point x="558" y="480" type="line"/>
      <point x="535" y="480" type="line"/>
      <point x="517" y="459" type="line"/>
      <point x="492" y="471"/>
      <point x="462" y="485"/>
      <point x="412" y="485" type="curve" smooth="yes"/>
      <point x="384" y="485"/>
      <point x="358" y="480"/>
      <point x="341" y="473" type="curve"/>
      <point x="175" y="473" type="line"/>
      <point x="175" y="610" type="line"/>
      <point x="150" y="610" type="line"/>
      <point x="114" y="525"/>
      <point x="84" y="483"/>
      <point x="37" y="454" type="curve"/>
      <point x="37" y="431" type="line"/>
      <point x="92" y="431" type="line"/>
    </contour>
    <contour>
      <point x="281" y="431" type="line"/>
      <point x="267" y="412"/>
      <point x="259" y="387"/>
      <point x="259" y="359" type="curve" smooth="yes"/>
      <point x="259" y="285"/>
      <point x="300" y="249"/>
      <point x="391" y="204" type="curve" smooth="yes"/>
      <point x="484" y="157"/>
      <point x="500" y="141"/>
      <point x="500" y="103" type="curve" smooth="yes"/>
      <point x="500" y="46"/>
      <point x="415" y="25"/>
      <point x="334" y="25" type="curve" smooth="yes"/>
      <point x="251" y="25"/>
      <point x="175" y="50"/>
      <point x="175" y="146" type="curve" smooth="yes"/>
      <point x="175" y="431" type="line"/>
    </contour>
  </outline>
</glyph>
<glyph name="tcligcurl" format="2">
  <advance width="687"/>
  <unicode hex="02A8"/>
  <outline>
    <contour>
      <point x="353" y="265" type="curve" smooth="yes"/>
      <point x="353" y="392"/>
      <point x="402" y="448"/>
      <point x="483" y="448" type="curve" smooth="yes"/>
      <point x="569" y="448"/>
      <point x="536" y="334"/>
      <point x="610" y="334" type="curve" smooth="yes"/>
      <point x="638" y="334"/>
      <point x="652" y="350"/>
      <point x="652" y="379" type="curve" smooth="yes"/>
      <point x="652" y="437"/>
      <point x="594" y="485"/>
      <point x="500" y="485" type="curve" smooth="yes"/>
      <point x="356" y="485"/>
      <point x="274" y="383"/>
      <point x="274" y="226" type="curve" smooth="yes"/>
      <point x="274" y="166"/>
      <point x="292" y="108"/>
      <point x="324" y="67" type="curve"/>
      <point x="299" y="56"/>
      <point x="269" y="43"/>
      <point x="229" y="43" type="curve" smooth="yes"/>
      <point x="191" y="43"/>
      <point x="175" y="78"/>
      <point x="175" y="144" type="curve" smooth="yes"/>
      <point x="175" y="431" type="line"/>
      <point x="288" y="431" type="line"/>
      <point x="288" y="473" type="line"/>
      <point x="175" y="473" type="line"/>
      <point x="176" y="610" type="line"/>
      <point x="150" y="610" type="line"/>
      <point x="114" y="525"/>
      <point x="84" y="483"/>
      <point x="37" y="454" type="curve"/>
      <point x="37" y="431" type="line"/>
      <point x="92" y="431" type="line"/>
      <point x="92" y="106" type="line" smooth="yes"/>
      <point x="92" y="43"/>
      <point x="111" y="-10"/>
      <point x="188" y="-10" type="curve" smooth="yes"/>
      <point x="238" y="-10"/>
      <point x="280" y="6"/>
      <point x="345" y="45" type="curve"/>
      <point x="395" y="0"/>
      <point x="451" y="-10"/>
      <point x="496" y="-10" type="curve" smooth="yes"/>
      <point x="598" y="-10"/>
      <point x="655" y="38"/>
      <point x="655" y="95" type="curve" smooth="yes"/>
      <point x="655" y="151"/>
      <point x="612" y="176"/>
      <point x="560" y="176" type="curve" smooth="yes"/>
      <point x="504" y="176"/>
      <point x="470" y="157"/>
      <point x="397" y="112" type="curve"/>
      <point x="367" y="154"/>
      <point x="353" y="211"/>
    </contour>
    <contour>
      <point x="559" y="144" type="curve" smooth="yes"/>
      <point x="591" y="144"/>
      <point x="614" y="132"/>
      <point x="614" y="101" type="curve" smooth="yes"/>
      <point x="614" y="72"/>
      <point x="594" y="46"/>
      <point x="524" y="46" type="curve" smooth="yes"/>
      <point x="479" y="46"/>
      <point x="443" y="62"/>
      <point x="416" y="89" type="curve"/>
      <point x="476" y="126"/>
      <point x="514" y="144"/>
    </contour>
  </outline>
</glyph>
<glyph name="lzlig" format="2">
  <advance width="580"/>
  <unicode hex="02AB"/>
  <outline>
    <contour>
      <point x="183" y="706" type="line"/>
      <point x="158" y="706" type="line"/>
      <point x="26" y="671" type="line"/>
      <point x="26" y="644" type="line"/>
      <point x="26" y="644"/>
      <point x="41" y="646"/>
      <point x="58" y="646" type="curve" smooth="yes"/>
      <point x="83" y="646"/>
      <point x="100" y="644"/>
      <point x="100" y="603" type="curve" smooth="yes"/>
      <point x="100" y="101" type="line" smooth="yes"/>
      <point x="100" y="45"/>
      <point x="96" y="29"/>
      <point x="30" y="29" type="curve"/>
      <point x="30" y="0" type="line"/>
      <point x="530" y="0" type="line"/>
      <point x="540" y="160" type="line"/>
      <point x="507" y="160" type="line"/>
      <point x="487" y="67"/>
      <point x="466" y="41"/>
      <point x="380" y="41" type="curve" smooth="yes"/>
      <point x="270" y="41" type="line"/>
      <point x="270" y="44" type="line"/>
      <point x="536" y="444" type="line"/>
      <point x="536" y="473" type="line"/>
      <point x="183" y="473" type="line"/>
    </contour>
    <contour>
      <point x="183" y="59" type="line"/>
      <point x="183" y="431" type="line"/>
      <point x="430" y="431" type="line"/>
      <point x="430" y="428" type="line"/>
      <point x="188" y="59" type="line"/>
    </contour>
  </outline>
</glyph>
<glyph name="bilabialpercussive" format="2">
  <advance width="599"/>
  <unicode hex="02AC"/>
  <outline>
    <contour>
      <point x="589" y="329" type="line"/>
      <point x="460" y="329" type="line"/>
      <point x="460" y="305" type="line"/>
      <point x="487" y="305"/>
      <point x="503" y="301"/>
      <point x="503" y="288" type="curve" smooth="yes"/>
      <point x="503" y="278"/>
      <point x="500" y="271"/>
      <point x="498" y="264" type="curve"/>
      <point x="439" y="104" type="line"/>
      <point x="426" y="64" type="line"/>
      <point x="420" y="64" type="line"/>
      <point x="409" y="104" type="line"/>
      <point x="347" y="261" type="line"/>
      <point x="344" y="272"/>
      <point x="341" y="280"/>
      <point x="341" y="289" type="curve" smooth="yes"/>
      <point x="341" y="300"/>
      <point x="348" y="305"/>
      <point x="375" y="305" type="curve"/>
      <point x="375" y="329" type="line"/>
      <point x="219" y="329" type="line"/>
      <point x="219" y="305" type="line"/>
      <point x="250" y="305"/>
      <point x="260" y="299"/>
      <point x="276" y="258" type="curve" smooth="yes"/>
      <point x="284" y="238" type="line"/>
      <point x="236" y="104" type="line"/>
      <point x="222" y="64" type="line"/>
      <point x="216" y="64" type="line"/>
      <point x="205" y="104" type="line"/>
      <point x="140" y="261" type="line" smooth="yes"/>
      <point x="135" y="272"/>
      <point x="132" y="279"/>
      <point x="132" y="289" type="curve" smooth="yes"/>
      <point x="132" y="300"/>
      <point x="141" y="305"/>
      <point x="169" y="305" type="curve"/>
      <point x="169" y="329" type="line"/>
      <point x="10" y="329" type="line"/>
      <point x="10" y="305" type="line"/>
      <point x="42" y="305"/>
      <point x="50" y="299"/>
      <point x="67" y="258" type="curve" smooth="yes"/>
      <point x="175" y="-9" type="line"/>
      <point x="224" y="-9" type="line"/>
      <point x="299" y="195" type="line"/>
      <point x="303" y="195" type="line"/>
      <point x="378" y="-9" type="line"/>
      <point x="429" y="-9" type="line"/>
      <point x="535" y="262" type="line" smooth="yes"/>
      <point x="548" y="296"/>
      <point x="562" y="305"/>
      <point x="589" y="305" type="curve"/>
    </contour>
    <contour>
      <point x="589" y="706" type="line"/>
      <point x="460" y="706" type="line"/>
      <point x="460" y="682" type="line"/>
      <point x="487" y="682"/>
      <point x="503" y="678"/>
      <point x="503" y="665" type="curve" smooth="yes"/>
      <point x="503" y="655"/>
      <point x="500" y="648"/>
      <point x="498" y="641" type="curve"/>
      <point x="439" y="481" type="line"/>
      <point x="426" y="441" type="line"/>
      <point x="420" y="441" type="line"/>
      <point x="409" y="481" type="line"/>
      <point x="347" y="638" type="line"/>
      <point x="344" y="649"/>
      <point x="341" y="657"/>
      <point x="341" y="666" type="curve" smooth="yes"/>
      <point x="341" y="677"/>
      <point x="348" y="682"/>
      <point x="375" y="682" type="curve"/>
      <point x="375" y="706" type="line"/>
      <point x="219" y="706" type="line"/>
      <point x="219" y="682" type="line"/>
      <point x="250" y="682"/>
      <point x="260" y="676"/>
      <point x="276" y="635" type="curve" smooth="yes"/>
      <point x="284" y="615" type="line"/>
      <point x="236" y="481" type="line"/>
      <point x="222" y="441" type="line"/>
      <point x="216" y="441" type="line"/>
      <point x="205" y="481" type="line"/>
      <point x="140" y="638" type="line" smooth="yes"/>
      <point x="135" y="649"/>
      <point x="132" y="656"/>
      <point x="132" y="666" type="curve" smooth="yes"/>
      <point x="132" y="677"/>
      <point x="141" y="682"/>
      <point x="169" y="682" type="curve"/>
      <point x="169" y="706" type="line"/>
      <point x="10" y="706" type="line"/>
      <point x="10" y="682" type="line"/>
      <point x="42" y="682"/>
      <point x="50" y="676"/>
      <point x="67" y="635" type="curve" smooth="yes"/>
      <point x="175" y="368" type="line"/>
      <point x="224" y="368" type="line"/>
      <point x="299" y="572" type="line"/>
      <point x="303" y="572" type="line"/>
      <point x="378" y="368" type="line"/>
      <point x="429" y="368" type="line"/>
      <point x="535" y="639" type="line" smooth="yes"/>
      <point x="548" y="673"/>
      <point x="562" y="682"/>
      <point x="589" y="682" type="curve"/>
    </contour>
  </outline>
</glyph>
<glyph name="bidentalpercussive" format="2">
  <advance width="479"/>
  <unicode hex="02AD"/>
  <outline>
    <contour>
      <point x="409" y="-6" type="line"/>
      <point x="409" y="294" type="line"/>
      <point x="70" y="294" type="line"/>
      <point x="70" y="-6" type="line"/>
      <point x="126" y="-6" type="line"/>
      <point x="126" y="222" type="line"/>
      <point x="353" y="222" type="line"/>
      <point x="353" y="-6" type="line"/>
    </contour>
    <contour>
      <point x="409" y="357" type="line"/>
      <point x="409" y="657" type="line"/>
      <point x="70" y="657" type="line"/>
      <point x="70" y="357" type="line"/>
      <point x="126" y="357" type="line"/>
      <point x="126" y="585" type="line"/>
      <point x="353" y="585" type="line"/>
      <point x="353" y="357" type="line"/>
    </contour>
  </outline>
</glyph>
<glyph name="hhookraised" format="2">
  <advance width="488"/>
  <unicode hex="02B1"/>
  <outline>
    <contour>
      <point x="84" y="643" type="curve"/>
      <point x="84" y="331" type="line" smooth="yes"/>
      <point x="84" y="287"/>
      <point x="68" y="280"/>
      <point x="28" y="280" type="curve"/>
      <point x="28" y="252" type="line"/>
      <point x="216" y="252" type="line"/>
      <point x="216" y="280" type="line"/>
      <point x="162" y="280"/>
      <point x="157" y="294"/>
      <point x="157" y="333" type="curve" smooth="yes"/>
      <point x="157" y="541" type="line"/>
      <point x="196" y="575"/>
      <point x="224" y="588"/>
      <point x="254" y="588" type="curve" smooth="yes"/>
      <point x="325" y="588"/>
      <point x="332" y="530"/>
      <point x="332" y="463" type="curve" smooth="yes"/>
      <point x="332" y="333" type="line" smooth="yes"/>
      <point x="332" y="296"/>
      <point x="328" y="280"/>
      <point x="274" y="280" type="curve"/>
      <point x="274" y="252" type="line"/>
      <point x="464" y="252" type="line"/>
      <point x="464" y="280" type="line"/>
      <point x="417" y="280"/>
      <point x="405" y="295"/>
      <point x="405" y="334" type="curve" smooth="yes"/>
      <point x="405" y="499" type="line" smooth="yes"/>
      <point x="405" y="562"/>
      <point x="384" y="643"/>
      <point x="286" y="643" type="curve" smooth="yes"/>
      <point x="247" y="643"/>
      <point x="211" y="628"/>
      <point x="161" y="582" type="curve"/>
      <point x="157" y="582" type="line"/>
      <point x="157" y="729" type="line" smooth="yes"/>
      <point x="157" y="783"/>
      <point x="182" y="803"/>
      <point x="216" y="803" type="curve" smooth="yes"/>
      <point x="270" y="803"/>
      <point x="277" y="739"/>
      <point x="322" y="739" type="curve" smooth="yes"/>
      <point x="343" y="739"/>
      <point x="359" y="750"/>
      <point x="359" y="775" type="curve" smooth="yes"/>
      <point x="359" y="814"/>
      <point x="314" y="835"/>
      <point x="252" y="835" type="curve" smooth="yes"/>
      <point x="186" y="835"/>
      <point x="141" y="811"/>
      <point x="115" y="772" type="curve" smooth="yes"/>
      <point x="91" y="734"/>
      <point x="84" y="700"/>
    </contour>
  </outline>
</glyph>
<glyph name="rraised" format="2">
  <advance width="325"/>
  <unicode hex="02B3"/>
  <outline>
    <contour>
      <point x="156" y="640" type="line"/>
      <point x="127" y="640" type="line"/>
      <point x="29" y="625" type="line"/>
      <point x="29" y="596" type="line"/>
      <point x="29" y="596"/>
      <point x="41" y="598"/>
      <point x="56" y="598" type="curve" smooth="yes"/>
      <point x="86" y="598"/>
      <point x="85" y="581"/>
      <point x="85" y="549" type="curve" smooth="yes"/>
      <point x="85" y="333" type="line" smooth="yes"/>
      <point x="85" y="290"/>
      <point x="77" y="280"/>
      <point x="28" y="280" type="curve"/>
      <point x="28" y="252" type="line"/>
      <point x="231" y="252" type="line"/>
      <point x="231" y="280" type="line"/>
      <point x="170" y="280"/>
      <point x="157" y="289"/>
      <point x="157" y="334" type="curve" smooth="yes"/>
      <point x="157" y="515" type="line"/>
      <point x="178" y="550"/>
      <point x="208" y="580"/>
      <point x="222" y="580" type="curve" smooth="yes"/>
      <point x="228" y="580"/>
      <point x="250" y="550"/>
      <point x="277" y="550" type="curve" smooth="yes"/>
      <point x="293" y="550"/>
      <point x="313" y="564"/>
      <point x="313" y="600" type="curve" smooth="yes"/>
      <point x="313" y="629"/>
      <point x="296" y="646"/>
      <point x="265" y="646" type="curve" smooth="yes"/>
      <point x="228" y="646"/>
      <point x="201" y="616"/>
      <point x="160" y="561" type="curve"/>
      <point x="156" y="561" type="line"/>
    </contour>
  </outline>
</glyph>
<glyph name="rturnedraised" format="2">
  <advance width="325"/>
  <unicode hex="02B4"/>
  <outline>
    <contour>
      <point x="185" y="245" type="line"/>
      <point x="214" y="245" type="line"/>
      <point x="312" y="260" type="line"/>
      <point x="312" y="289" type="line"/>
      <point x="312" y="289"/>
      <point x="300" y="287"/>
      <point x="285" y="287" type="curve" smooth="yes"/>
      <point x="255" y="287"/>
      <point x="256" y="304"/>
      <point x="256" y="336" type="curve" smooth="yes"/>
      <point x="256" y="552" type="line" smooth="yes"/>
      <point x="256" y="595"/>
      <point x="264" y="605"/>
      <point x="313" y="605" type="curve"/>
      <point x="313" y="633" type="line"/>
      <point x="110" y="633" type="line"/>
      <point x="110" y="605" type="line"/>
      <point x="171" y="605"/>
      <point x="184" y="596"/>
      <point x="184" y="551" type="curve" smooth="yes"/>
      <point x="184" y="370" type="line"/>
      <point x="163" y="335"/>
      <point x="133" y="305"/>
      <point x="119" y="305" type="curve" smooth="yes"/>
      <point x="113" y="305"/>
      <point x="91" y="335"/>
      <point x="64" y="335" type="curve" smooth="yes"/>
      <point x="48" y="335"/>
      <point x="28" y="321"/>
      <point x="28" y="285" type="curve" smooth="yes"/>
      <point x="28" y="256"/>
      <point x="45" y="239"/>
      <point x="76" y="239" type="curve" smooth="yes"/>
      <point x="113" y="239"/>
      <point x="140" y="269"/>
      <point x="181" y="324" type="curve"/>
      <point x="185" y="324" type="line"/>
    </contour>
  </outline>
</glyph>
<glyph name="apostrophemodifier" format="2">
  <advance width="244"/>
  <unicode hex="02BC"/>
  <outline>
    <contour>
      <point x="63" y="459" type="line"/>
      <point x="105" y="478"/>
      <point x="186" y="510"/>
      <point x="186" y="622" type="curve" smooth="yes"/>
      <point x="186" y="676"/>
      <point x="160" y="710"/>
      <point x="110" y="710" type="curve" smooth="yes"/>
      <point x="70" y="710"/>
      <point x="48" y="683"/>
      <point x="48" y="650" type="curve" smooth="yes"/>
      <point x="48" y="621"/>
      <point x="64" y="596"/>
      <point x="103" y="596" type="curve" smooth="yes"/>
      <point x="114" y="596"/>
      <point x="122" y="597"/>
      <point x="134" y="602" type="curve"/>
      <point x="134" y="525"/>
      <point x="88" y="500"/>
      <point x="51" y="484" type="curve"/>
    </contour>
  </outline>
</glyph>
<glyph name="glottalraised" format="2">
  <advance width="364"/>
  <unicode hex="02C0"/>
  <outline>
    <contour>
      <point x="184" y="362" type="line"/>
      <point x="183" y="432" type="line"/>
      <point x="238" y="441"/>
      <point x="330" y="475"/>
      <point x="330" y="574" type="curve" smooth="yes"/>
      <point x="330" y="652"/>
      <point x="280" y="714"/>
      <point x="169" y="714" type="curve" smooth="yes"/>
      <point x="123" y="714"/>
      <point x="44" y="695"/>
      <point x="44" y="641" type="curve" smooth="yes"/>
      <point x="44" y="620"/>
      <point x="58" y="604"/>
      <point x="80" y="604" type="curve" smooth="yes"/>
      <point x="133" y="604"/>
      <point x="112" y="687"/>
      <point x="175" y="687" type="curve" smooth="yes"/>
      <point x="226" y="687"/>
      <point x="250" y="652"/>
      <point x="250" y="582" type="curve" smooth="yes"/>
      <point x="250" y="478"/>
      <point x="168" y="455"/>
      <point x="110" y="455" type="curve"/>
      <point x="110" y="362" type="line"/>
    </contour>
  </outline>
</glyph>
